<?xml version="1.0" encoding="UTF-8" standalone="no"?>
<svg width="30px" height="30px" viewBox="0 0 30 30" version="1.1" xmlns="http://www.w3.org/2000/svg" xmlns:xlink="http://www.w3.org/1999/xlink" xmlns:sketch="http://www.bohemiancoding.com/sketch/ns">
    <!-- Generator: Sketch 3.4.4 (17249) - http://www.bohemiancoding.com/sketch -->
    <title>landmarks_circle</title>
    <desc>Created with Sketch.</desc>
    <defs></defs>
    <g id="hcom-pins" stroke="none" stroke-width="1" fill="none" fill-rule="evenodd" sketch:type="MSPage">
        <g id="landmarks_circle" sketch:type="MSArtboardGroup">
            <circle id="Oval-1" stroke="#333333" stroke-width="2" fill="#FFFFFF" sketch:type="MSShapeGroup" cx="14.5" cy="14.9462891" r="12.9462891"></circle>
            <path d="M15.1433026,8.27010713 C14.7799588,7.90996429 14.1888334,7.90996429 13.8254896,8.27010713 L8.27204677,12.4080936 C8.10420775,12.574454 8,12.8057132 8,13.0607382 L8,13.1274652 C8,13.6375152 8.41775317,14.0515881 8.93141436,14.0515881 L20.0383,14.0515881 C20.5519612,14.0515881 20.9687922,13.6375152 20.9687922,13.1274652 L20.9687922,13.0607382 C20.9687922,12.8239946 20.8784173,12.5872509 20.6967454,12.4080936 L15.1433026,8.27010713 Z" id="Fill-1" fill="#333333" sketch:type="MSShapeGroup"></path>
            <path d="M14.6019619,19.6904892 C15.1107201,19.6904892 15.5248014,19.416365 15.5248014,19.0780253 L15.5248014,18.5484201 L15.5248014,11.1191075 L15.5248014,10.5901928 C15.5248014,10.2518531 15.1107201,9.97703841 14.6019619,9.97703841 L14.3678707,9.97703841 C13.8580721,9.97703841 13.4439908,10.2518531 13.4439908,10.5901928 L13.4439908,11.1128931 L13.4439908,18.5546345 L13.4439908,19.0628345 C13.4439908,19.416365 13.8580721,19.6904892 14.3678707,19.6904892 L14.6019619,19.6904892 Z" id="Fill-4" fill="#333333" sketch:type="MSShapeGroup"></path>
            <path d="M10.221947,19.9950235 C10.5625972,19.9950235 10.8405511,19.7208993 10.8405511,19.3825596 L10.8405511,18.8529544 L10.8405511,13.4236418 L10.8405511,12.8947271 C10.8405511,12.5563874 10.5625972,12.2815727 10.221947,12.2815727 L10.065206,12.2815727 C9.72385917,12.2815727 9.44729853,12.5563874 9.44729853,12.8947271 L9.44729853,13.4174274 L9.44729853,18.8591688 L9.44729853,19.3673688 C9.44729853,19.7208993 9.72385917,19.9950235 10.065206,19.9950235 L10.221947,19.9950235 Z" id="Fill-6" fill="#333333" sketch:type="MSShapeGroup"></path>
            <path d="M18.9501444,20.3045343 C19.2907947,20.3045343 19.5680519,20.0304101 19.5680519,19.6920704 L19.5680519,19.1624652 L19.5680519,13.7331526 L19.5680519,13.2042379 C19.5680519,12.8658982 19.2907947,12.5910835 18.9501444,12.5910835 L18.7927069,12.5910835 C18.45136,12.5910835 18.1741027,12.8658982 18.1741027,13.2042379 L18.1741027,13.7269382 L18.1741027,19.1686796 L18.1741027,19.6768796 C18.1741027,20.0304101 18.45136,20.3045343 18.7927069,20.3045343 L18.9501444,20.3045343 Z" id="Fill-8" fill="#333333" sketch:type="MSShapeGroup"></path>
            <path d="M8.63323329,19 C8.27725726,19 8,19.2741242 8,19.6131544 L8,19.767824 C8,20.1061637 8.27725726,20.3809783 8.61860414,20.3809783 L20.1766581,20.3809783 C20.5180049,20.3809783 20.7945656,20.1061637 20.7945656,19.767824 L20.7945656,19.6131544 C20.7945656,19.2741242 20.5180049,19 20.1766581,19 L8.63323329,19 Z" id="Fill-10" fill="#333333" sketch:type="MSShapeGroup"></path>
        </g>
    </g>
</svg>