<?xml version="1.0" encoding="UTF-8"?>
<svg width="179px" height="36px" viewBox="0 0 179 36" version="1.1" xmlns="http://www.w3.org/2000/svg" xmlns:xlink="http://www.w3.org/1999/xlink">
    <!-- Generator: Sketch 48.2 (47327) - http://www.bohemiancoding.com/sketch -->
    <title>LOGO LOCKUP</title>
    <desc>Created with Sketch.</desc>
    <defs></defs>
    <g id="01" stroke="none" stroke-width="1" fill="none" fill-rule="evenodd" transform="translate(-13.000000, -12.000000)">
        <g id="LOGO-LOCKUP" transform="translate(13.000000, 12.000000)" fill="#D32F2F">
            <g id="STACKED-H">
                <path d="M29.9998,2 C27.7898,2 25.9998,3.791 25.9998,6 L25.9998,12.5 L15.9998,12 L15.9998,5 C15.9998,2.238 13.7608,0 10.9998,0 C8.2378,0 5.9998,2.238 5.9998,5 L5.9998,31 C5.9998,33.762 8.2378,36 10.9998,36 C13.7608,36 15.9998,33.762 15.9998,31 L15.9998,23 L25.9998,23 L25.9998,31 C25.9998,33.209 27.7898,35 29.9998,35 C32.2088,35 33.9998,33.209 33.9998,31 L33.9998,6 C33.9998,3.791 32.2088,2 29.9998,2" id="Fill-13"></path>
                <path d="M33.9998,31 C33.9998,33.209 32.2088,35 29.9998,35 C27.7898,35 25.9998,33.209 25.9998,31 L25.9998,23 L15.9998,23 L15.9998,31 C15.9998,33.762 13.7608,36 10.9998,36 C8.2378,36 5.9998,33.762 5.9998,31 L5.9998,5 C5.9998,2.238 8.2378,0 10.9998,0 C13.7608,0 15.9998,2.238 15.9998,5 L15.9998,12 L25.9998,12.5 L25.9998,6 C25.9998,3.791 27.7898,2 29.9998,2 C32.2088,2 33.9998,3.791 33.9998,6 L33.9998,31 Z" id="Fill-15"></path>
                <path d="M21.9998,7 C21.9998,5.953 22.3248,4.983 22.8768,4.18 C21.2178,4.667 19.9998,6.184 19.9998,8 L19.9998,11.199 L21.9998,11.299 L21.9998,7 Z" id="Fill-1"></path>
                <path d="M19.9998,29 C19.9998,30.816 21.2178,32.333 22.8768,32.82 C22.3248,32.017 21.9998,31.047 21.9998,30 L21.9998,24 L19.9998,24 L19.9998,29 Z" id="Fill-3"></path>
                <path d="M24.9998,24 L22.9998,24 L22.9998,30 C22.9998,31.816 24.2178,33.333 25.8768,33.82 C25.3248,33.017 24.9998,32.047 24.9998,31 L24.9998,24 Z" id="Fill-5"></path>
                <path d="M24.9998,6 C24.9998,4.953 25.3248,3.983 25.8768,3.18 C24.2178,3.667 22.9998,5.184 22.9998,7 L22.9998,11.349 L24.9998,11.449 L24.9998,6 Z" id="Fill-7"></path>
                <path d="M2.452,4.7187 C0.99,5.5917 0,7.1727 0,8.9997 L0,27.9997 C0,29.8267 0.99,31.4077 2.452,32.2807 C2.162,31.5767 2,30.8077 2,29.9997 L2,6.9997 C2,6.1927 2.162,5.4227 2.452,4.7187" id="Fill-9"></path>
                <path d="M4.9998,5 C4.9998,4.192 5.1618,3.423 5.4518,2.719 C3.9898,3.592 2.9998,5.173 2.9998,7 L2.9998,30 C2.9998,32.149 4.3618,33.966 6.2658,34.673 C5.4758,33.656 4.9998,32.384 4.9998,31 L4.9998,5 Z" id="Fill-11"></path>
            </g>
            <g id="WORDMARK" transform="translate(51.000000, 8.000000)">
                <path d="M43.9401565,11.4955665 L52.6677934,11.4955665 C52.6087011,9.63251232 51.3367136,7.30541872 48.3189984,7.30541872 C45.4495149,7.30541872 44.0873865,9.57536946 43.9401565,11.4955665 M48.3189984,5.15172414 C52.6087011,5.15172414 55.2708607,8.43940887 55.2708607,12.1359606 C55.2708607,12.9211823 54.7089828,13.3871921 53.7034116,13.3871921 L43.9692019,13.3871921 C44.1765258,15.773399 45.9523005,17.7527094 48.821784,17.7527094 C50.0346792,17.7527094 51.3066667,17.3743842 52.3723318,16.617734 C52.5195618,16.5014778 52.7268858,16.4729064 52.9632551,16.4729064 C53.5561815,16.4729064 54.0289202,16.9369458 54.0289202,17.5192118 C54.0289202,17.8975369 53.8516432,18.1891626 53.5561815,18.3931034 C52.1359624,19.4108374 50.4493271,19.9054187 48.5553678,19.9054187 C44.2947105,19.9054187 41.1598122,16.9369458 41.1598122,12.5142857 C41.1598122,8.43940887 44.1474804,5.15172414 48.3189984,5.15172414" id="Fill-21"></path>
                <path d="M56.96641,18.3931034 L56.96641,1.30935961 C56.96641,0.58226601 57.5583349,0 58.2974898,0 C59.0075994,0 59.6295712,0.58226601 59.6295712,1.30935961 L59.6295712,18.3931034 C59.6295712,19.120197 59.0075994,19.7024631 58.2974898,19.7024631 C57.5583349,19.7024631 56.96641,19.120197 56.96641,18.3931034" id="Fill-23"></path>
                <path d="M61.341446,17.4030542 C61.341446,16.7636453 61.8442316,16.269064 62.4942473,16.269064 C62.7316182,16.269064 62.9679875,16.3567488 63.146266,16.4730049 C64.2409765,17.2582266 65.6601941,17.810936 67.1695524,17.810936 C69.1806948,17.810936 70.2463599,16.9961576 70.2463599,15.8030542 C70.2463599,14.4060099 68.6188169,13.94 66.7849515,13.5331034 C64.3591612,12.9803941 61.518723,12.3390148 61.518723,9.31339901 C61.518723,7.07300493 63.4717746,5.15083744 66.9622285,5.15083744 C68.9443255,5.15083744 70.5117746,5.73310345 71.7246698,6.60699507 C71.9910861,6.80995074 72.19841,7.10157635 72.19841,7.47990148 C72.19841,8.06216749 71.6956244,8.55674877 71.1036995,8.55674877 C70.8973772,8.55674877 70.6610078,8.46906404 70.5117746,8.35182266 C69.5953427,7.68384236 68.3524006,7.27596059 66.9922754,7.27596059 C65.1874554,7.27596059 64.062698,7.97448276 64.062698,9.10945813 C64.062698,10.331133 65.6011017,10.7390148 67.3758748,11.1459113 C69.861759,11.6996059 72.8203818,12.3685714 72.8203818,15.5991133 C72.8203818,18.0138916 70.8082379,19.9055172 67.0513678,19.9055172 C65.0692707,19.9055172 63.2934961,19.410936 61.8442316,18.3340887 C61.5477684,18.1301478 61.341446,17.7823645 61.341446,17.4030542" id="Fill-25"></path>
                <path d="M13.8756808,18.2477833 L13.8756808,10.8842365 L2.95862285,10.8842365 L2.95862285,18.2477833 C2.95862285,19.0330049 2.30760563,19.7029557 1.50835681,19.7029557 C0.680062598,19.7029557 0,19.0330049 0,18.2477833 L0,1.45566502 C0,0.669458128 0.680062598,0.000492610837 1.47931142,0.000492610837 C2.30760563,0.000492610837 2.95862285,0.669458128 2.95862285,1.45566502 L2.95862285,8.29408867 L13.8756808,8.29408867 L13.8756808,1.45566502 C13.8756808,0.669458128 14.5256964,0.000492610837 15.3549922,0.000492610837 C16.1832864,0.000492610837 16.833302,0.669458128 16.833302,1.45566502 L16.833302,18.2477833 C16.833302,19.0330049 16.1832864,19.7029557 15.3549922,19.7029557 C14.5256964,19.7029557 13.8756808,19.0330049 13.8756808,18.2477833" id="Fill-17"></path>
                <path d="M30.5932019,12.5144828 C30.5932019,9.8662069 29.0257527,7.48 26.1552676,7.48 C23.3148294,7.48 21.7183349,9.8662069 21.7183349,12.5144828 C21.7183349,15.19133 23.3148294,17.5785222 26.1552676,17.5785222 C29.0257527,17.5785222 30.5932019,15.19133 30.5932019,12.5144828 M18.9359875,12.5144828 C18.9359875,8.46916256 21.7183349,5.15093596 26.1552676,5.15093596 C30.6222473,5.15093596 33.3735462,8.46916256 33.3735462,12.5144828 C33.3735462,16.5883744 30.6222473,19.9056158 26.1552676,19.9056158 C21.7183349,19.9056158 18.9359875,16.5883744 18.9359875,12.5144828" id="Fill-19"></path>
                <path d="M76.1272488,16.2388177 C77.13282,16.2388177 77.9911612,17.0535961 77.9911612,18.0437438 C77.9911612,19.0329064 77.13282,19.8762562 76.1272488,19.8762562 C75.1216776,19.8762562 74.2933834,19.0329064 74.2933834,18.0437438 C74.2933834,17.0535961 75.1216776,16.2388177 76.1272488,16.2388177" id="Fill-27"></path>
                <path d="M103.324945,12.5144828 C103.324945,9.8662069 101.756495,7.48 98.8860094,7.48 C96.0465728,7.48 94.4490767,9.8662069 94.4490767,12.5144828 C94.4490767,15.19133 96.0465728,17.5785222 98.8860094,17.5785222 C101.756495,17.5785222 103.324945,15.19133 103.324945,12.5144828 M91.6677308,12.5144828 C91.6677308,8.46916256 94.4490767,5.15093596 98.8860094,5.15093596 C103.353991,5.15093596 106.10529,8.46916256 106.10529,12.5144828 C106.10529,16.5883744 103.353991,19.9056158 98.8860094,19.9056158 C94.4490767,19.9056158 91.6677308,16.5883744 91.6677308,12.5144828" id="Fill-29"></path>
                <path d="M127.944513,9.4 L127.944513,18.3931034 C127.944513,19.120197 127.322541,19.7024631 126.583387,19.7024631 C125.874279,19.7024631 125.281352,19.120197 125.281352,18.3931034 L125.281352,10.1862069 C125.281352,8.55665025 124.542197,7.77142857 122.796469,7.77142857 C121.347205,7.77142857 119.925984,9.37536946 119.245922,10.3940887 L119.245922,18.3931034 C119.245922,19.120197 118.654998,19.7024631 117.914842,19.7024631 C117.204732,19.7024631 116.583762,19.120197 116.583762,18.3931034 L116.583762,10.1862069 C116.583762,8.55665025 115.873653,7.77142857 114.068833,7.77142857 C112.67866,7.77142857 111.288488,9.46995074 110.578379,10.48867 L110.578379,18.3931034 C110.578379,19.120197 109.956407,19.7024631 109.247299,19.7024631 C108.507142,19.7024631 107.915218,19.120197 107.915218,18.3931034 L107.915218,6.66502463 C107.915218,5.93694581 108.507142,5.35566502 109.217252,5.35566502 C109.956407,5.35566502 110.578379,5.93694581 110.578379,6.66502463 L110.578379,7.47980296 C111.170304,6.60689655 113.064263,5.15172414 115.19359,5.15172414 C117.352964,5.15172414 118.624951,6.25812808 119.069646,7.77044335 C119.896939,6.46108374 121.830961,5.15172414 123.931243,5.15172414 C126.564357,5.15172414 127.944513,6.5773399 127.944513,9.4" id="Fill-31"></path>
                <path d="M86.1556182,5.15123153 C88.1968075,5.15123153 89.6170266,5.79162562 90.7117371,6.78078818 C90.9481064,6.98472906 91.1253834,7.33448276 91.1253834,7.65369458 C91.1253834,8.32364532 90.5935524,8.84679803 89.9425352,8.84679803 C89.6170266,8.84679803 89.3506103,8.73054187 89.1432864,8.55615764 C88.3149922,7.79950739 87.3975587,7.47931034 86.2738028,7.47931034 C83.4634116,7.47931034 81.6585915,9.6044335 81.6585915,12.5147783 C81.6585915,15.4251232 83.4644131,17.4852217 86.2738028,17.5778325 C88.2659155,17.6438424 90.2760563,16.1423645 91.8465102,13.5305419 C92.4123944,12.9669951 92.8,12.7512315 93.3148044,12.7512315 C93.9958685,12.7512315 93.7815336,14.379803 93.4750548,14.944335 C92.6127074,16.5295567 91.8885759,17.2665025 91.0602817,18.0586207 C89.9134898,19.1541872 88.1968075,19.9059113 86.1556182,19.9059113 C81.8368701,19.9059113 78.8772457,16.7344828 78.8772457,12.5147783 C78.8772457,8.29408867 81.8368701,5.15123153 86.1556182,5.15123153" id="Fill-33"></path>
                <path d="M43.3983099,17.402069 C43.3983099,17.8966502 41.9570579,19.0050246 40.9204382,19.4986207 C40.3305164,19.7803941 39.73759,19.9055172 38.8792488,19.9055172 C36.6307355,19.9055172 35.4779343,18.6542857 35.4779343,16.4424631 L35.4779343,7.80009852 L34.1158059,7.80009852 C33.4948357,7.80009852 32.9329577,7.27596059 32.9329577,6.6355665 C32.9329577,6.02374384 33.4948357,5.50059113 34.1158059,5.50059113 L35.4779343,5.50059113 L35.4779343,2.82275862 C35.4779343,2.09566502 36.0688576,1.51339901 36.8090141,1.51339901 C37.5191236,1.51339901 38.1400939,2.09566502 38.1400939,2.82275862 L38.1400939,5.50059113 L40.0040063,5.50059113 C40.6550235,5.50059113 41.1868545,6.02374384 41.1868545,6.6355665 C41.1868545,7.27596059 40.6550235,7.80009852 40.0040063,7.80009852 L38.1400939,7.80009852 L38.1400939,15.8611823 C38.1400939,16.8503448 38.6138341,17.5784236 39.530266,17.5784236 C41.1598122,17.5784236 42.4388106,15.0887685 43.1599374,15.0887685 C43.84,15.0887685 43.3983099,16.7616749 43.3983099,17.402069" id="Fill-35"></path>
            </g>
        </g>
    </g>
</svg>