<svg id="Layer_1" data-name="Layer 1" xmlns="http://www.w3.org/2000/svg" xmlns:xlink="http://www.w3.org/1999/xlink" viewBox="0 0 316.9 68.05"><defs><style>.cls-1{fill:none;}.cls-2{clip-path:url(#clip-path);}.cls-3{fill:#fff;}</style><clipPath id="clip-path" transform="translate(-93.55 -37.97)"><rect class="cls-1" x="93.55" y="37.98" width="316.9" height="68.05"/></clipPath></defs><title>Horizontal_H_White</title><g class="cls-2"><path class="cls-3" d="M126.88,96.81c0,6.11-3.77,9.22-9.42,9.22s-9.21-3.1-9.21-9.22V47.2c0-6.11,3.74-9.22,9.38-9.22s9.25,3.11,9.25,9.22V62l18.67.76V51.4c0-6.11,1.72-9.22,7.37-9.22s7.82,3.11,7.82,9.22V95c0,6.11-2.18,9.22-7.82,9.22s-7.37-3.11-7.37-9.22V82.59l-18.67-.16Z" transform="translate(-93.55 -37.97)"/><path class="cls-3" d="M93.55,49.95c0-2.92,2.55-5.29,6.72-6.54-2.08,2.92-2.79,4.46-2.79,7.79v45c0,3.33.71,4,2.79,7-4.17-1.25-6.72-3.62-6.72-6.54Z" transform="translate(-93.55 -37.97)"/><path class="cls-3" d="M100.27,47.59c0-3.18,2.67-5.74,7.22-7.1-2.27,3.18-3,4.86-3,8.5V98.06c0,3.64.72,4.4,3,7.59-4.55-1.36-7.22-4-7.22-7.16Z" transform="translate(-93.55 -37.97)"/><path class="cls-3" d="M144.53,43.91c-4.09,1.23-6.87,3.88-6.66,7.68,0,3.27,0,4.36,0,7.73l3.45.18v-7c0-3.27,1.16-5.74,3.21-8.6" transform="translate(-93.55 -37.97)"/><path class="cls-3" d="M137.68,46.26c-3.87,1.16-6.22,3.66-6.22,6.37,0,3.09,0,3.19,0,6.38l3.59.19V53.49c0-3.09.7-4.52,2.64-7.23" transform="translate(-93.55 -37.97)"/><path class="cls-3" d="M144.53,101.87c-4.09-1.22-6.87-3.88-6.66-7.68,0-3.27,0-4.54,0-7.91h3.77v7a13.67,13.67,0,0,0,2.9,8.6" transform="translate(-93.55 -37.97)"/><path class="cls-3" d="M137.72,99.53c-3.87-1.16-6.22-3.66-6.22-6.37,0-3.09,0-3.67,0-6.86h3.28v6c0,3.09,1,4.52,2.94,7.23" transform="translate(-93.55 -37.97)"/><path class="cls-3" d="M218.74,76.6c0-7.35,4.83-13.28,12.55-13.28s12.55,5.93,12.55,13.28S239,89.93,231.29,89.93s-12.55-6-12.55-13.34m21,0c0-5.15-3-9.76-8.4-9.76s-8.45,4.62-8.45,9.76,3,9.82,8.45,9.82,8.4-4.62,8.4-9.82" transform="translate(-93.55 -37.97)"/><path class="cls-3" d="M231.29,67.72c-5.2,0-7.56,4.6-7.56,8.88s2.37,8.93,7.56,8.93,7.51-4.63,7.51-8.93-2.35-8.87-7.51-8.87m0,19.59c-6.13,0-9.34-5.39-9.34-10.71s3.21-10.65,9.34-10.65c5.47,0,9.29,4.38,9.29,10.65s-3.82,10.71-9.29,10.71m0-23.1c-6.87,0-11.66,5.1-11.66,12.39S224.42,89,231.29,89s11.66-5.12,11.66-12.44S238.15,64.2,231.29,64.2m0,26.62c-7.79,0-13.44-6-13.44-14.22s5.65-14.17,13.44-14.17,13.44,6,13.44,14.17-5.65,14.22-13.44,14.22" transform="translate(-93.55 -37.97)"/><path class="cls-3" d="M253.8,89.51c-3.7.48-5.55-1.73-5.55-5.51V67.41h-2.68a1.73,1.73,0,0,1,0-3.47h2.68v-5.2a2,2,0,0,1,3.94,0v5.2h3.62a1.73,1.73,0,1,1,0,3.47h-3.62V83.16c0,1.89.83,3,2.65,2.38a10.09,10.09,0,0,0,5.69-4.29l1.67,3.64a14,14,0,0,1-8.39,4.62" transform="translate(-93.55 -37.97)"/><path class="cls-3" d="M245.57,64.83a.85.85,0,0,0-.84.84.87.87,0,0,0,.84.85h3.57V84a5.07,5.07,0,0,0,1.32,3.91,3.94,3.94,0,0,0,3.21.73,13.47,13.47,0,0,0,7.47-3.9L260.33,83a10.68,10.68,0,0,1-5.25,3.43,2.75,2.75,0,0,1-2.59-.23,3.42,3.42,0,0,1-1.2-3V66.52h4.51a.84.84,0,1,0,0-1.69H251.3V58.74a1.08,1.08,0,0,0-1.05-1.05,1.09,1.09,0,0,0-1.1,1.05v6.09Zm7.26,25.63a5.18,5.18,0,0,1-3.55-1.22A6.74,6.74,0,0,1,247.36,84V68.3h-1.79a2.62,2.62,0,1,1,0-5.25h1.79V58.74a2.86,2.86,0,0,1,5.72,0v4.31h2.73a2.62,2.62,0,1,1,0,5.25h-2.73V83.16a2,2,0,0,0,.45,1.56,1.25,1.25,0,0,0,1,0l.11,0a9.37,9.37,0,0,0,5.13-3.92l.89-1.31L263.23,85l-.32.43a14.76,14.76,0,0,1-9,5h0a8.4,8.4,0,0,1-1.09.07" transform="translate(-93.55 -37.97)"/><path class="cls-3" d="M272,63.31c7.66,0,12.18,6,12.18,12.6,0,1.26-.84,2-2.31,2H263.68c.31,4.78,3.67,8.77,9.13,8.77a11,11,0,0,0,6.83-2.42,1.72,1.72,0,0,1,.89-.21,1.59,1.59,0,0,1,1.63,1.57,1.63,1.63,0,0,1-.68,1.31,14.35,14.35,0,0,1-9,3c-7.51,0-12.92-5.41-12.92-13.33,0-7.35,5.25-13.28,12.5-13.28M263.68,75h16.64c-.05-3.78-2.57-8.46-8.35-8.46-5.41,0-8.09,4.57-8.29,8.46" transform="translate(-93.55 -37.97)"/><path class="cls-3" d="M264.67,74.13h14.69c-.36-2.71-2.19-6.68-7.39-6.68-4.63,0-6.8,3.71-7.3,6.68m16.55,1.78H262.74l0-.94c.25-4.62,3.48-9.3,9.19-9.3,6,0,9.17,4.7,9.24,9.33ZM272,64.2c-6.62,0-11.61,5.33-11.61,12.39,0,7.33,4.95,12.44,12,12.44a13.55,13.55,0,0,0,8.49-2.81.76.76,0,0,0,.34-.61.7.7,0,0,0-.74-.68,1,1,0,0,0-.4.06,11.81,11.81,0,0,1-7.32,2.56,9.83,9.83,0,0,1-10-9.6l-.06-.95H281.9c1.42,0,1.42-.81,1.42-1.11,0-5.82-3.88-11.71-11.29-11.71m.42,26.62c-8.13,0-13.81-5.85-13.81-14.22,0-8.08,5.76-14.17,13.39-14.17,6.5,0,13.07,4.63,13.07,13.49,0,1.75-1.26,2.89-3.2,2.89H264.67a7.93,7.93,0,0,0,8.14,7,10.06,10.06,0,0,0,6.27-2.22l.09-.06a2.58,2.58,0,0,1,1.35-.34A2.47,2.47,0,0,1,282,87.65a15.29,15.29,0,0,1-9.56,3.17" transform="translate(-93.55 -37.97)"/><path class="cls-3" d="M287.91,87.57V56a2,2,0,0,1,3.94,0V87.57a2,2,0,0,1-3.94,0" transform="translate(-93.55 -37.97)"/><path class="cls-3" d="M289.9,55A1.1,1.1,0,0,0,288.79,56V87.57a1.1,1.1,0,0,0,1.11,1.05A1.08,1.08,0,0,0,291,87.57V56A1.08,1.08,0,0,0,289.9,55m0,35.44A2.86,2.86,0,0,1,287,87.57V56a2.86,2.86,0,0,1,5.72,0V87.57a2.87,2.87,0,0,1-2.83,2.83" transform="translate(-93.55 -37.97)"/><path class="cls-3" d="M295.27,85.52A1.75,1.75,0,0,1,297,83.79a1.9,1.9,0,0,1,1,.32,11.35,11.35,0,0,0,7.19,2.63c3.89,0,6-1.73,6-4.2,0-2.78-3.1-3.68-6.51-4.52-4.31-1-9.19-2.15-9.19-7.4,0-3.94,3.41-7.3,9.45-7.3a13.08,13.08,0,0,1,8.4,2.78,1.79,1.79,0,0,1,.68,1.31,1.73,1.73,0,0,1-1.68,1.68,1.64,1.64,0,0,1-.95-.37A9.77,9.77,0,0,0,305,66.51c-3.47,0-5.62,1.57-5.62,3.83,0,2.47,2.89,3.26,6.2,4,4.41,1,9.5,2.26,9.5,7.88,0,4.25-3.41,7.67-10,7.67a13.93,13.93,0,0,1-9.08-3,1.67,1.67,0,0,1-.73-1.42" transform="translate(-93.55 -37.97)"/><path class="cls-3" d="M297,84.68a.87.87,0,0,0-.84.84.78.78,0,0,0,.34.67A13,13,0,0,0,305.09,89c5.52,0,9.09-2.66,9.09-6.77,0-4.65-3.82-5.88-8.81-7-3.07-.73-6.89-1.64-6.89-4.91,0-2.82,2.62-4.72,6.51-4.72A10.68,10.68,0,0,1,312,68a.77.77,0,0,0,.36.15.85.85,0,0,0,.79-.79.94.94,0,0,0-.37-.63A12.25,12.25,0,0,0,305,64.2c-5,0-8.56,2.63-8.56,6.41,0,4.24,3.52,5.38,8.5,6.54,3.21.79,7.2,1.77,7.2,5.38,0,2.46-1.81,5.09-6.87,5.09a12.21,12.21,0,0,1-7.72-2.79,1,1,0,0,0-.52-.15m8.08,6.14a14.87,14.87,0,0,1-9.64-3.19,2.52,2.52,0,0,1-1.06-2.11A2.63,2.63,0,0,1,297,82.9a2.77,2.77,0,0,1,1.54.47l.07.06a10.43,10.43,0,0,0,6.63,2.42c3.19,0,5.1-1.24,5.1-3.31s-2.53-2.84-5.83-3.65c-4.39-1-9.87-2.29-9.87-8.27,0-3.94,3.24-8.19,10.34-8.19a14,14,0,0,1,9,3,2.67,2.67,0,0,1,1,2A2.6,2.6,0,0,1,312.38,70a2.51,2.51,0,0,1-1.5-.56,8.93,8.93,0,0,0-5.9-2c-2.87,0-4.73,1.15-4.73,2.94s2.28,2.41,5.51,3.18c4.05.91,10.19,2.3,10.19,8.74,0,5.2-4.26,8.55-10.87,8.55" transform="translate(-93.55 -37.97)"/><path class="cls-3" d="M320,84.05a2.89,2.89,0,1,1-2.89,2.89A2.91,2.91,0,0,1,320,84.05" transform="translate(-93.55 -37.97)"/><path class="cls-3" d="M320,84.94a2,2,0,1,0,2,2,2,2,0,0,0-2-2m0,5.78a3.78,3.78,0,1,1,3.78-3.78A3.78,3.78,0,0,1,320,90.72" transform="translate(-93.55 -37.97)"/><path class="cls-3" d="M336.42,89.93c-7.56-.21-12.66-5.78-12.66-13.33s5.09-13.28,12.66-13.28a10.89,10.89,0,0,1,8.14,3.15,1.89,1.89,0,0,1,.58,1.31,1.77,1.77,0,0,1-1.79,1.78,1.67,1.67,0,0,1-1.15-.47,7.37,7.37,0,0,0-5.57-2.26c-5.41,0-8.77,4.15-8.77,9.76s3.36,9.65,8.77,9.82a14,14,0,0,0,11.21-5.33c3.62-4.66,2.63,2.3,1.69,3.79-2.82,2.72-5.86,5.05-13.11,5.05" transform="translate(-93.55 -37.97)"/><path class="cls-3" d="M336.42,64.2c-6.82,0-11.77,5.21-11.77,12.39S329.49,88.84,336.43,89c6.85,0,9.69-2.13,12.39-4.72a8.76,8.76,0,0,0,.68-3.74,6.9,6.9,0,0,0-1,1.05A14.93,14.93,0,0,1,336.6,87.3c-5.76-.18-9.63-4.49-9.63-10.71s4-10.65,9.66-10.65a8.25,8.25,0,0,1,6.2,2.52.78.78,0,0,0,.52.21.88.88,0,0,0,.9-.89,1,1,0,0,0-.31-.68,10,10,0,0,0-7.51-2.9m0,26.62h0c-8-.22-13.52-6.07-13.52-14.22s5.7-14.17,13.55-14.17a11.79,11.79,0,0,1,8.76,3.4,2.77,2.77,0,0,1,.85,1.95,2.65,2.65,0,0,1-2.68,2.67,2.55,2.55,0,0,1-1.78-.73,6.49,6.49,0,0,0-4.94-2c-4.71,0-7.88,3.57-7.88,8.87s3.1,8.78,7.91,8.93a13.14,13.14,0,0,0,10.48-5c.56-.72,2-2.63,3.38-1.68,1.54,1.08.45,5.41-.23,6.49l-.14.17c-2.9,2.79-6.14,5.3-13.72,5.3" transform="translate(-93.55 -37.97)"/><path class="cls-3" d="M347.05,76.6c0-7.35,4.83-13.28,12.55-13.28s12.55,5.93,12.55,13.28-4.83,13.34-12.55,13.34-12.55-6-12.55-13.34m21,0c0-5.15-3-9.76-8.4-9.76s-8.45,4.62-8.45,9.76,3,9.82,8.45,9.82,8.4-4.62,8.4-9.82" transform="translate(-93.55 -37.97)"/><path class="cls-3" d="M359.6,67.72c-5.2,0-7.56,4.6-7.56,8.88s2.37,8.93,7.56,8.93,7.51-4.63,7.51-8.93-2.35-8.87-7.51-8.87m0,19.59c-6.13,0-9.34-5.39-9.34-10.71s3.21-10.65,9.34-10.65c5.47,0,9.29,4.38,9.29,10.65s-3.82,10.71-9.29,10.71m0-23.1c-6.87,0-11.66,5.1-11.66,12.39S352.74,89,359.6,89s11.66-5.12,11.66-12.44S366.47,64.2,359.6,64.2m0,26.62c-7.79,0-13.44-6-13.44-14.22s5.65-14.17,13.44-14.17S373,68.38,373,76.6s-5.65,14.22-13.44,14.22" transform="translate(-93.55 -37.97)"/><path class="cls-3" d="M409.56,71V87.57a2,2,0,0,1-2,1.94,2,2,0,0,1-1.94-1.94V72.08c0-3.2-1.42-5.25-4.67-5.25a8.88,8.88,0,0,0-6.72,3.88V87.57a2,2,0,0,1-1.94,1.94,2,2,0,0,1-2-1.94V72.08c0-3.2-1.36-5.25-4.67-5.25-2.57,0-5.3,1.89-6.67,3.94v16.8a2,2,0,0,1-3.94,0V65.67a2,2,0,0,1,3.94,0v1.95a10.93,10.93,0,0,1,8.19-4.31c3.89,0,6.09,2.1,6.83,4.72a10.68,10.68,0,0,1,8.51-4.72c4.62,0,7.09,2.57,7.09,7.66" transform="translate(-93.55 -37.97)"/><path class="cls-3" d="M377,64.62a1.08,1.08,0,0,0-1.05,1.05v21.9A1.09,1.09,0,0,0,377,88.62a1.08,1.08,0,0,0,1.05-1.05V65.67A1.09,1.09,0,0,0,377,64.62m8.66,1.32c3.59,0,5.56,2.18,5.56,6.14V87.57a1.14,1.14,0,0,0,1.1,1.05,1.08,1.08,0,0,0,1.05-1.05V70.45l.15-.22.12-.18-.5-1.77c-.72-2.59-2.9-4.07-6-4.07a10.07,10.07,0,0,0-7.44,3.89l-.83,1.31a9.45,9.45,0,0,1,6.75-3.46m15.33,0c3.54,0,5.56,2.24,5.56,6.14V87.57a1.08,1.08,0,0,0,1.05,1.05,1.14,1.14,0,0,0,1.1-1.05V71c0-4.56-2-6.78-6.2-6.78a9.79,9.79,0,0,0-7.75,4.3l-.4.65a9.55,9.55,0,0,1,6.63-3.22m6.62,24.46a2.87,2.87,0,0,1-2.83-2.83V72.08c0-2.93-1.24-4.36-3.78-4.36A8,8,0,0,0,395.12,71V87.57a2.86,2.86,0,0,1-5.72,0V72.08c0-3.91-2.16-4.36-3.78-4.36-2.22,0-4.58,1.68-5.78,3.33V87.57a2.86,2.86,0,0,1-5.72,0V65.67a2.86,2.86,0,0,1,5.7-.33,11.71,11.71,0,0,1,7.32-2.92,7.6,7.6,0,0,1,7.07,3.83,11.61,11.61,0,0,1,8.26-3.83c5.15,0,8,3,8,8.56V87.57a2.9,2.9,0,0,1-2.88,2.83" transform="translate(-93.55 -37.97)"/><path class="cls-3" d="M211.2,87V74.43H193V87a2,2,0,0,1-1.91,1.92,1.94,1.94,0,0,1-2-1.92V59.29A1.93,1.93,0,0,1,191,57.37a2,2,0,0,1,2,1.92V71H211.2V59.29a1.94,1.94,0,0,1,3.88,0V87a1.94,1.94,0,0,1-3.88,0" transform="translate(-93.55 -37.97)"/><path class="cls-3" d="M192.08,73.54h20V87a1,1,0,0,0,1,1,1.05,1.05,0,0,0,1.07-1V59.29a1,1,0,0,0-1-1,1.05,1.05,0,0,0-1.07,1V71.86h-20V59.29a1.08,1.08,0,0,0-1.07-1,1,1,0,0,0-1,1V87a1.05,1.05,0,0,0,1.07,1,1.07,1.07,0,0,0,1-1Zm21,16.27A2.81,2.81,0,0,1,210.31,87V75.32H193.86V87a2.83,2.83,0,0,1-5.66,0V59.29A2.81,2.81,0,0,1,191,56.48a2.87,2.87,0,0,1,2.85,2.81V70.08h16.44V59.29a2.83,2.83,0,0,1,5.66,0V87a2.83,2.83,0,0,1-2.85,2.81" transform="translate(-93.55 -37.97)"/></g></svg>