<?xml version="1.0" encoding="UTF-8"?>
<svg width="1748px" height="360px" viewBox="0 0 1748 360" version="1.1" xmlns="http://www.w3.org/2000/svg" xmlns:xlink="http://www.w3.org/1999/xlink">
    <!-- Generator: Sketch 47.1 (45422) - http://www.bohemiancoding.com/sketch -->
    <title>Page 1</title>
    <desc>Created with Sketch.</desc>
    <defs></defs>
    <g id="06_FATTER-H" stroke="none" stroke-width="1" fill="none" fill-rule="evenodd">
        <g id="01" transform="translate(-380.000000, -1604.000000)" fill="#D32F2F">
            <g id="Page-1" transform="translate(380.000000, 1604.000000)">
                <path d="M220.004,70 C220.004,59.53 223.254,49.83 228.774,41.8 C212.184,46.67 200.004,61.84 200.004,80 L200.004,111.99 L220.004,112.99 L220.004,70 Z" id="Fill-1"></path>
                <path d="M200.004,290 C200.004,308.16 212.184,323.33 228.774,328.2 C223.254,320.17 220.004,310.47 220.004,300 L220.004,240 L200.004,240 L200.004,290 Z" id="Fill-3"></path>
                <path d="M250.004,240 L230.004,240 L230.004,300 C230.004,318.16 242.184,333.33 258.774,338.2 C253.254,330.17 250.004,320.47 250.004,310 L250.004,240 Z" id="Fill-5"></path>
                <path d="M250.004,60 C250.004,49.53 253.254,39.83 258.774,31.8 C242.184,36.67 230.004,51.84 230.004,70 L230.004,113.49 L250.004,114.49 L250.004,60 Z" id="Fill-7"></path>
                <path d="M24.526,47.187 C9.906,55.917 0.006,71.727 0.006,89.997 L0.006,279.997 C0.006,298.267 9.906,314.077 24.526,322.807 C21.626,315.767 20.006,308.077 20.006,299.997 L20.006,69.997 C20.006,61.927 21.626,54.227 24.526,47.187" id="Fill-9"></path>
                <path d="M50.004,50 C50.004,41.92 51.624,34.23 54.524,27.19 C39.904,35.92 30.004,51.73 30.004,70 L30.004,300 C30.004,321.49 43.624,339.66 62.664,346.73 C54.764,336.56 50.004,323.84 50.004,310 L50.004,50 Z" id="Fill-11"></path>
                <path d="M300.004,20 C277.904,20 260.004,37.91 260.004,60 L260.004,125 L160.004,120 L160.004,50 C160.004,22.38 137.614,0 110.004,0 C82.384,0 60.004,22.38 60.004,50 L60.004,310 C60.004,337.62 82.384,360 110.004,360 C137.614,360 160.004,337.62 160.004,310 L160.004,230 L260.004,230 L260.004,310 C260.004,332.09 277.904,350 300.004,350 C322.094,350 340.004,332.09 340.004,310 L340.004,60 C340.004,37.91 322.094,20 300.004,20" id="Fill-13"></path>
                <path d="M340.004,310 C340.004,332.09 322.094,350 300.004,350 C277.904,350 260.004,332.09 260.004,310 L260.004,230 L160.004,230 L160.004,310 C160.004,337.62 137.614,360 110.004,360 C82.384,360 60.004,337.62 60.004,310 L60.004,50 C60.004,22.38 82.384,0 110.004,0 C137.614,0 160.004,22.38 160.004,50 L160.004,120 L260.004,125 L260.004,60 C260.004,37.91 277.904,20 300.004,20 C322.094,20 340.004,37.91 340.004,60 L340.004,310 Z" id="Fill-15"></path>
                <path d="M608.54,265.088 L608.54,190.348 L499.54,190.348 L499.54,265.088 C499.54,273.058 493.04,279.858 485.06,279.858 C476.79,279.858 470,273.058 470,265.088 L470,94.648 C470,86.668 476.79,79.878 484.77,79.878 C493.04,79.878 499.54,86.668 499.54,94.648 L499.54,164.058 L608.54,164.058 L608.54,94.648 C608.54,86.668 615.03,79.878 623.31,79.878 C631.58,79.878 638.07,86.668 638.07,94.648 L638.07,265.088 C638.07,273.058 631.58,279.858 623.31,279.858 C615.03,279.858 608.54,273.058 608.54,265.088" id="Fill-17"></path>
                <path d="M775.454,206.895 C775.454,180.015 759.804,155.795 731.144,155.795 C702.784,155.795 686.844,180.015 686.844,206.895 C686.844,234.065 702.784,258.295 731.144,258.295 C759.804,258.295 775.454,234.065 775.454,206.895 M659.064,206.895 C659.064,165.835 686.844,132.155 731.144,132.155 C775.744,132.155 803.214,165.835 803.214,206.895 C803.214,248.245 775.744,281.915 731.144,281.915 C686.844,281.915 659.064,248.245 659.064,206.895" id="Fill-19"></path>
                <path d="M908.715,196.553 L995.855,196.553 C995.265,177.643 982.565,154.023 952.435,154.023 C923.785,154.023 910.185,177.063 908.715,196.553 M952.435,132.163 C995.265,132.163 1021.845,165.533 1021.845,203.053 C1021.845,211.023 1016.235,215.753 1006.195,215.753 L909.005,215.753 C911.075,239.973 928.805,260.063 957.455,260.063 C969.565,260.063 982.265,256.223 992.905,248.543 C994.375,247.363 996.445,247.073 998.805,247.073 C1004.725,247.073 1009.445,251.783 1009.445,257.693 C1009.445,261.533 1007.675,264.493 1004.725,266.563 C990.545,276.893 973.705,281.913 954.795,281.913 C912.255,281.913 880.955,251.783 880.955,206.893 C880.955,165.533 910.785,132.163 952.435,132.163" id="Fill-21"></path>
                <path d="M1038.774,266.563 L1038.774,93.163 C1038.774,85.783 1044.684,79.873 1052.064,79.873 C1059.154,79.873 1065.364,85.783 1065.364,93.163 L1065.364,266.563 C1065.364,273.943 1059.154,279.853 1052.064,279.853 C1044.684,279.853 1038.774,273.943 1038.774,266.563" id="Fill-23"></path>
                <path d="M1082.456,256.514 C1082.456,250.024 1087.476,245.004 1093.966,245.004 C1096.336,245.004 1098.696,245.894 1100.476,247.074 C1111.406,255.044 1125.576,260.654 1140.646,260.654 C1160.726,260.654 1171.366,252.384 1171.366,240.274 C1171.366,226.094 1155.116,221.364 1136.806,217.234 C1112.586,211.624 1084.226,205.114 1084.226,174.404 C1084.226,151.664 1103.726,132.154 1138.576,132.154 C1158.366,132.154 1174.016,138.064 1186.126,146.934 C1188.786,148.994 1190.856,151.954 1190.856,155.794 C1190.856,161.704 1185.836,166.724 1179.926,166.724 C1177.866,166.724 1175.506,165.834 1174.016,164.644 C1164.866,157.864 1152.456,153.724 1138.876,153.724 C1120.856,153.724 1109.626,160.814 1109.626,172.334 C1109.626,184.734 1124.986,188.874 1142.706,193.004 C1167.526,198.624 1197.066,205.414 1197.066,238.204 C1197.066,262.714 1176.976,281.914 1139.466,281.914 C1119.676,281.914 1101.946,276.894 1087.476,265.964 C1084.516,263.894 1082.456,260.364 1082.456,256.514" id="Fill-25"></path>
                <path d="M1230.083,244.697 C1240.123,244.697 1248.693,252.967 1248.693,263.017 C1248.693,273.057 1240.123,281.617 1230.083,281.617 C1220.043,281.617 1211.773,273.057 1211.773,263.017 C1211.773,252.967 1220.043,244.697 1230.083,244.697" id="Fill-27"></path>
                <path d="M1501.635,206.895 C1501.635,180.015 1485.975,155.795 1457.315,155.795 C1428.965,155.795 1413.015,180.015 1413.015,206.895 C1413.015,234.065 1428.965,258.295 1457.315,258.295 C1485.975,258.295 1501.635,234.065 1501.635,206.895 M1385.245,206.895 C1385.245,165.835 1413.015,132.155 1457.315,132.155 C1501.925,132.155 1529.395,165.835 1529.395,206.895 C1529.395,248.245 1501.925,281.915 1457.315,281.915 C1413.015,281.915 1385.245,248.245 1385.245,206.895" id="Fill-29"></path>
                <path d="M1747.446,175.283 L1747.446,266.563 C1747.446,273.943 1741.236,279.853 1733.856,279.853 C1726.776,279.853 1720.856,273.943 1720.856,266.563 L1720.856,183.263 C1720.856,166.723 1713.476,158.753 1696.046,158.753 C1681.576,158.753 1667.386,175.033 1660.596,185.373 L1660.596,266.563 C1660.596,273.943 1654.696,279.853 1647.306,279.853 C1640.216,279.853 1634.016,273.943 1634.016,266.563 L1634.016,183.263 C1634.016,166.723 1626.926,158.753 1608.906,158.753 C1595.026,158.753 1581.146,175.993 1574.056,186.333 L1574.056,266.563 C1574.056,273.943 1567.846,279.853 1560.766,279.853 C1553.376,279.853 1547.466,273.943 1547.466,266.563 L1547.466,147.523 C1547.466,140.133 1553.376,134.233 1560.466,134.233 C1567.846,134.233 1574.056,140.133 1574.056,147.523 L1574.056,155.793 C1579.966,146.933 1598.876,132.163 1620.136,132.163 C1641.696,132.163 1654.396,143.393 1658.836,158.743 C1667.096,145.453 1686.406,132.163 1707.376,132.163 C1733.666,132.163 1747.446,146.633 1747.446,175.283" id="Fill-31"></path>
                <path d="M1330.21,132.158 C1350.59,132.158 1364.77,138.658 1375.7,148.698 C1378.06,150.768 1379.83,154.318 1379.83,157.558 C1379.83,164.358 1374.52,169.668 1368.02,169.668 C1364.77,169.668 1362.11,168.488 1360.04,166.718 C1351.77,159.038 1342.61,155.788 1331.39,155.788 C1303.33,155.788 1285.31,177.358 1285.31,206.898 C1285.31,236.438 1303.34,257.348 1331.39,258.288 C1351.28,258.958 1371.35,243.718 1387.03,217.208 C1392.68,211.488 1396.55,209.298 1401.69,209.298 C1408.49,209.298 1406.35,225.828 1403.29,231.558 C1394.68,247.648 1387.45,255.128 1379.18,263.168 C1367.73,274.288 1350.59,281.918 1330.21,281.918 C1287.09,281.918 1257.54,249.728 1257.54,206.898 C1257.54,164.058 1287.09,132.158 1330.21,132.158" id="Fill-33"></path>
                <path d="M903.305,256.504 C903.305,261.524 888.915,272.774 878.565,277.784 C872.675,280.644 866.755,281.914 858.185,281.914 C835.735,281.914 824.225,269.214 824.225,246.764 L824.225,159.044 L810.625,159.044 C804.425,159.044 798.815,153.724 798.815,147.224 C798.815,141.014 804.425,135.704 810.625,135.704 L824.225,135.704 L824.225,108.524 C824.225,101.144 830.125,95.234 837.515,95.234 C844.605,95.234 850.805,101.144 850.805,108.524 L850.805,135.704 L869.415,135.704 C875.915,135.704 881.225,141.014 881.225,147.224 C881.225,153.724 875.915,159.044 869.415,159.044 L850.805,159.044 L850.805,240.864 C850.805,250.904 855.535,258.294 864.685,258.294 C880.955,258.294 893.725,233.024 900.925,233.024 C907.715,233.024 903.305,250.004 903.305,256.504" id="Fill-35"></path>
            </g>
        </g>
    </g>
</svg>