<?xml version="1.0" encoding="utf-8"?>
<!-- Generator: Adobe Illustrator 21.1.0, SVG Export Plug-In . SVG Version: 6.00 Build 0)  -->
<svg version="1.1" id="Layer_1" xmlns="http://www.w3.org/2000/svg" xmlns:xlink="http://www.w3.org/1999/xlink" x="0px" y="0px"
	 viewBox="0 0 1748 360" style="enable-background:new 0 0 1748 360;" xml:space="preserve">
<style type="text/css">
	.st0{fill:#FFFFFF;}
</style>
<title>Page 1</title>
<desc>Created with Sketch.</desc>
<g id="_x30_6_x5F_FATTER-H">
	<g id="_x30_1" transform="translate(-380.000000, -1604.000000)">
		<g id="Page-1" transform="translate(380.000000, 1604.000000)">
			<path id="Fill-1" class="st0" d="M220,70c0-10.5,3.2-20.2,8.8-28.2C212.2,46.7,200,61.8,200,80v32l20,1V70z"/>
			<path id="Fill-3" class="st0" d="M200,290c0,18.2,12.2,33.3,28.8,38.2c-5.5-8-8.8-17.7-8.8-28.2v-60h-20V290z"/>
			<path id="Fill-5" class="st0" d="M250,240h-20v60c0,18.2,12.2,33.3,28.8,38.2c-5.5-8-8.8-17.7-8.8-28.2V240z"/>
			<path id="Fill-7" class="st0" d="M250,60c0-10.5,3.2-20.2,8.8-28.2C242.2,36.7,230,51.8,230,70v43.5l20,1V60z"/>
			<path id="Fill-9" class="st0" d="M24.5,47.2C9.9,55.9,0,71.7,0,90v190c0,18.3,9.9,34.1,24.5,42.8c-2.9-7-4.5-14.7-4.5-22.8V70
				C20,61.9,21.6,54.2,24.5,47.2"/>
			<path id="Fill-11" class="st0" d="M50,50c0-8.1,1.6-15.8,4.5-22.8C39.9,35.9,30,51.7,30,70v230c0,21.5,13.6,39.7,32.7,46.7
				C54.8,336.6,50,323.8,50,310V50z"/>
			<path id="Fill-13" class="st0" d="M300,20c-22.1,0-40,17.9-40,40v65l-100-5V50c0-27.6-22.4-50-50-50C82.4,0,60,22.4,60,50v260
				c0,27.6,22.4,50,50,50c27.6,0,50-22.4,50-50v-80h100v80c0,22.1,17.9,40,40,40c22.1,0,40-17.9,40-40V60C340,37.9,322.1,20,300,20"
				/>
			<path id="Fill-15" class="st0" d="M340,310c0,22.1-17.9,40-40,40c-22.1,0-40-17.9-40-40v-80H160v80c0,27.6-22.4,50-50,50
				c-27.6,0-50-22.4-50-50V50c0-27.6,22.4-50,50-50c27.6,0,50,22.4,50,50v70l100,5V60c0-22.1,17.9-40,40-40c22.1,0,40,17.9,40,40
				V310z"/>
			<path id="Fill-17" class="st0" d="M608.5,265.1v-74.7h-109v74.7c0,8-6.5,14.8-14.5,14.8c-8.3,0-15.1-6.8-15.1-14.8V94.6
				c0-8,6.8-14.8,14.8-14.8c8.3,0,14.8,6.8,14.8,14.8v69.4h109V94.6c0-8,6.5-14.8,14.8-14.8c8.3,0,14.8,6.8,14.8,14.8v170.4
				c0,8-6.5,14.8-14.8,14.8C615,279.9,608.5,273.1,608.5,265.1"/>
			<path id="Fill-19" class="st0" d="M775.5,206.9c0-26.9-15.6-51.1-44.3-51.1c-28.4,0-44.3,24.2-44.3,51.1
				c0,27.2,15.9,51.4,44.3,51.4C759.8,258.3,775.5,234.1,775.5,206.9 M659.1,206.9c0-41.1,27.8-74.7,72.1-74.7
				c44.6,0,72.1,33.7,72.1,74.7c0,41.3-27.5,75-72.1,75C686.8,281.9,659.1,248.2,659.1,206.9"/>
			<path id="Fill-21" class="st0" d="M908.7,196.6h87.1c-0.6-18.9-13.3-42.5-43.4-42.5C923.8,154,910.2,177.1,908.7,196.6
				 M952.4,132.2c42.8,0,69.4,33.4,69.4,70.9c0,8-5.6,12.7-15.6,12.7H909c2.1,24.2,19.8,44.3,48.5,44.3c12.1,0,24.8-3.8,35.5-11.5
				c1.5-1.2,3.5-1.5,5.9-1.5c5.9,0,10.6,4.7,10.6,10.6c0,3.8-1.8,6.8-4.7,8.9c-14.2,10.3-31,15.4-49.9,15.4
				c-42.5,0-73.8-30.1-73.8-75C881,165.5,910.8,132.2,952.4,132.2"/>
			<path id="Fill-23" class="st0" d="M1038.8,266.6V93.2c0-7.4,5.9-13.3,13.3-13.3c7.1,0,13.3,5.9,13.3,13.3v173.4
				c0,7.4-6.2,13.3-13.3,13.3C1044.7,279.9,1038.8,273.9,1038.8,266.6"/>
			<path id="Fill-25" class="st0" d="M1082.5,256.5c0-6.5,5-11.5,11.5-11.5c2.4,0,4.7,0.9,6.5,2.1c10.9,8,25.1,13.6,40.2,13.6
				c20.1,0,30.7-8.3,30.7-20.4c0-14.2-16.2-18.9-34.6-23c-24.2-5.6-52.6-12.1-52.6-42.8c0-22.7,19.5-42.2,54.4-42.2
				c19.8,0,35.4,5.9,47.5,14.8c2.7,2.1,4.7,5,4.7,8.9c0,5.9-5,10.9-10.9,10.9c-2.1,0-4.4-0.9-5.9-2.1c-9.2-6.8-21.6-10.9-35.1-10.9
				c-18,0-29.2,7.1-29.2,18.6c0,12.4,15.4,16.5,33.1,20.7c24.8,5.6,54.4,12.4,54.4,45.2c0,24.5-20.1,43.7-57.6,43.7
				c-19.8,0-37.5-5-52-16C1084.5,263.9,1082.5,260.4,1082.5,256.5"/>
			<path id="Fill-27" class="st0" d="M1230.1,244.7c10,0,18.6,8.3,18.6,18.3c0,10-8.6,18.6-18.6,18.6s-18.3-8.6-18.3-18.6
				C1211.8,253,1220,244.7,1230.1,244.7"/>
			<path id="Fill-29" class="st0" d="M1501.6,206.9c0-26.9-15.7-51.1-44.3-51.1c-28.3,0-44.3,24.2-44.3,51.1
				c0,27.2,15.9,51.4,44.3,51.4C1486,258.3,1501.6,234.1,1501.6,206.9 M1385.2,206.9c0-41.1,27.8-74.7,72.1-74.7
				c44.6,0,72.1,33.7,72.1,74.7c0,41.3-27.5,75-72.1,75C1413,281.9,1385.2,248.2,1385.2,206.9"/>
			<path id="Fill-31" class="st0" d="M1747.4,175.3v91.3c0,7.4-6.2,13.3-13.6,13.3c-7.1,0-13-5.9-13-13.3v-83.3
				c0-16.5-7.4-24.5-24.8-24.5c-14.5,0-28.7,16.3-35.5,26.6v81.2c0,7.4-5.9,13.3-13.3,13.3c-7.1,0-13.3-5.9-13.3-13.3v-83.3
				c0-16.5-7.1-24.5-25.1-24.5c-13.9,0-27.8,17.2-34.8,27.6v80.2c0,7.4-6.2,13.3-13.3,13.3c-7.4,0-13.3-5.9-13.3-13.3v-119
				c0-7.4,5.9-13.3,13-13.3c7.4,0,13.6,5.9,13.6,13.3v8.3c5.9-8.9,24.8-23.6,46.1-23.6c21.6,0,34.3,11.2,38.7,26.6
				c8.3-13.3,27.6-26.6,48.5-26.6C1733.7,132.2,1747.4,146.6,1747.4,175.3"/>
			<path id="Fill-33" class="st0" d="M1330.2,132.2c20.4,0,34.6,6.5,45.5,16.5c2.4,2.1,4.1,5.6,4.1,8.9c0,6.8-5.3,12.1-11.8,12.1
				c-3.2,0-5.9-1.2-8-2.9c-8.3-7.7-17.4-10.9-28.7-10.9c-28.1,0-46.1,21.6-46.1,51.1s18,50.4,46.1,51.4c19.9,0.7,40-14.6,55.6-41.1
				c5.7-5.7,9.5-7.9,14.7-7.9c6.8,0,4.7,16.5,1.6,22.3c-8.6,16.1-15.8,23.6-24.1,31.6c-11.5,11.1-28.6,18.8-49,18.8
				c-43.1,0-72.7-32.2-72.7-75C1257.5,164.1,1287.1,132.2,1330.2,132.2"/>
			<path id="Fill-35" class="st0" d="M903.3,256.5c0,5-14.4,16.3-24.7,21.3c-5.9,2.9-11.8,4.1-20.4,4.1c-22.5,0-34-12.7-34-35.1V159
				h-13.6c-6.2,0-11.8-5.3-11.8-11.8c0-6.2,5.6-11.5,11.8-11.5h13.6v-27.2c0-7.4,5.9-13.3,13.3-13.3c7.1,0,13.3,5.9,13.3,13.3v27.2
				h18.6c6.5,0,11.8,5.3,11.8,11.5c0,6.5-5.3,11.8-11.8,11.8h-18.6v81.8c0,10,4.7,17.4,13.9,17.4c16.3,0,29-25.3,36.2-25.3
				C907.7,233,903.3,250,903.3,256.5"/>
		</g>
	</g>
</g>
</svg>
