<?xml version="1.0" encoding="utf-8"?>
<!-- Generator: Adobe Illustrator 21.1.0, SVG Export Plug-In . SVG Version: 6.00 Build 0)  -->
<svg version="1.1" id="Layer_1" xmlns="http://www.w3.org/2000/svg" xmlns:xlink="http://www.w3.org/1999/xlink" x="0px" y="0px"
	 viewBox="0 0 373.4 89" style="enable-background:new 0 0 373.4 89;" xml:space="preserve">
<style type="text/css">
	.st0{fill:#ED3824;}
</style>
<g>
	<path class="st0" d="M149.2,58.4V46.9c0-3.3-1.7-4.3-4.5-4.3c-2.4,0-4.4,1.4-5.5,2.8v13c0,1.7-1.4,3.1-3.1,3.1
		c-1.7,0-3.2-1.4-3.2-3.1V31.6c0-1.7,1.4-3.1,3.2-3.1c1.7,0,3.1,1.4,3.1,3.1v9.2c1.5-1.8,4.5-3.6,8.4-3.6c5.3,0,7.8,2.8,7.8,7.4
		v13.9c0,1.7-1.4,3.1-3.2,3.1C150.6,61.5,149.2,60.1,149.2,58.4z"/>
	<path class="st0" d="M160.3,49.4c0-6.7,4.8-12.3,12.7-12.3c7.9,0,12.7,5.6,12.7,12.3c0,6.7-4.8,12.3-12.7,12.3
		C165.1,61.8,160.3,56.2,160.3,49.4z M179.2,49.4c0-3.6-2.2-6.8-6.2-6.8s-6.1,3.2-6.1,6.8c0,3.7,2.2,6.9,6.1,6.9
		S179.2,53.1,179.2,49.4z"/>
	<path class="st0" d="M203.7,58.9c0,1.2-0.8,2.1-1.9,2.4c-0.8,0.3-1.9,0.5-3.3,0.5c-4.4,0-6.8-2.2-6.8-6.4V43.1h-1.5
		c-1.5,0-2.8-1.2-2.8-2.7c0-1.5,1.2-2.7,2.8-2.7h1.5v-3.6c0-1.7,1.4-3.1,3.2-3.1c1.7,0,3.1,1.4,3.1,3.1v3.6h2.5
		c1.5,0,2.7,1.2,2.7,2.7c0,1.5-1.2,2.7-2.7,2.7h-2.5v10.6c0,1.5,0.7,2.6,2.1,2.6c0.4,0,0.7-0.1,1-0.1
		C202.8,56.3,203.7,57.4,203.7,58.9z"/>
	<path class="st0" d="M218.3,37.2c7.2,0,12,5.2,12,11.4c0,2-1.3,2.9-3.8,2.9h-14.1c0.4,3,2.8,5.4,6.9,5.4c1.6,0,3.4-0.5,4.9-1.3
		c0.3-0.2,0.7-0.3,1.2-0.3c1.3,0,2.5,1.1,2.5,2.4c0,0.9-0.6,1.7-1.3,2.1c-2.3,1.3-5.1,1.9-7.9,1.9c-7.3,0-12.8-4.8-12.8-12.3
		C205.8,42.6,211,37.2,218.3,37.2z M212.3,47.3h11.8c-0.1-2.2-1.7-5.2-5.9-5.2C214.3,42.1,212.6,44.9,212.3,47.3z"/>
	<path class="st0" d="M235,58.4V31.6c0-1.7,1.4-3.1,3.2-3.1c1.7,0,3.1,1.4,3.1,3.1v26.9c0,1.7-1.4,3.1-3.1,3.1
		C236.3,61.5,235,60.1,235,58.4z"/>
	<path class="st0" d="M246.1,57.3c0-1.4,1.2-2.6,2.6-2.6c0.5,0,0.9,0.1,1.3,0.3c1.9,1.2,4.3,2,6.5,2c2.7,0,4-0.9,4-2.4
		c0-1.7-2.1-2.2-4.8-2.8c-4.1-0.8-9.4-1.7-9.4-7.3c0-3.9,3.5-7.4,9.8-7.4c3.1,0,5.7,0.8,7.9,2.1c0.7,0.4,1.2,1.2,1.2,2
		c0,1.3-1.1,2.4-2.4,2.4c-0.4,0-0.9-0.1-1.2-0.3c-1.5-0.9-3.4-1.5-5.5-1.5c-2.3,0-3.8,0.8-3.8,2.2c0,1.5,1.9,2,4.6,2.5
		c4.1,0.8,9.6,1.8,9.6,7.7c0,4.3-3.7,7.5-10.4,7.5c-3.2,0-6.3-0.8-8.8-2.3C246.6,59.1,246.1,58.2,246.1,57.3z"/>
	<path class="st0" d="M274.6,53.9c2.2,0,4,1.8,4,3.9c0,2.1-1.8,3.9-4,3.9s-4-1.8-4-3.9C270.6,55.7,272.5,53.9,274.6,53.9z"/>
	<path class="st0" d="M295.2,37.2c3.2,0,5.5,0.9,7.3,2.2c0.7,0.5,1.2,1.4,1.2,2.3c0,1.5-1.3,2.8-2.8,2.8c-0.6,0-1.2-0.2-1.6-0.5
		c-1.1-0.8-2.3-1.2-3.8-1.2c-3.8,0-6.5,2.7-6.5,6.8c0,4.1,2.7,6.9,6.5,6.9c1.4,0,2.7-0.4,3.7-1.2c0.4-0.3,1-0.5,1.6-0.5
		c1.6,0,2.9,1.2,2.9,2.8c0,0.9-0.5,1.8-1.2,2.3c-1.8,1.3-4.1,2.2-7.3,2.2c-7.4,0-12.7-5.1-12.7-12.3
		C282.5,42.3,287.8,37.2,295.2,37.2z"/>
	<path class="st0" d="M307.1,49.4c0-6.7,4.8-12.3,12.7-12.3c7.9,0,12.7,5.6,12.7,12.3c0,6.7-4.8,12.3-12.7,12.3
		C311.9,61.8,307.1,56.2,307.1,49.4z M325.9,49.4c0-3.6-2.2-6.8-6.2-6.8s-6.1,3.2-6.1,6.8c0,3.7,2.2,6.9,6.1,6.9
		S325.9,53.1,325.9,49.4z"/>
	<path class="st0" d="M373.4,44.2v14.2c0,1.7-1.4,3.1-3.2,3.1c-1.7,0-3.2-1.4-3.2-3.1V46.4c0-2.2-1-3.7-3.6-3.7
		c-2.2,0-4.1,1.5-5,2.7v13.1c0,1.7-1.4,3.1-3.2,3.1c-1.7,0-3.2-1.4-3.2-3.1V46.4c0-2.2-1-3.7-3.6-3.7c-2.2,0-4,1.5-5,2.8v13
		c0,1.7-1.4,3.1-3.1,3.1c-1.8,0-3.2-1.4-3.2-3.1V40.5c0-1.7,1.4-3.2,3.1-3.2c1.8,0,3.2,1.4,3.2,3.2v0.2c1-1.4,4.2-3.6,7.8-3.6
		c3.5,0,5.8,1.6,6.7,4.3c1.4-2.1,4.6-4.3,8.2-4.3C370.7,37.2,373.4,39.4,373.4,44.2z"/>
</g>
<g>
	<g>
		<path class="st0" d="M47.5,59.4c0,0.2,0,0.3,0,0.5c0,5.5,0,11.1,0,16.6c0.1,5.9-3.3,9.5-7.7,11.3c-2.5,1-5.1,1.3-7.8,1.1
			c-2-0.1-3.8-0.5-5.6-1.4c-3-1.6-4.8-4.1-5.6-7.4c-0.2-1.1-0.3-2.2-0.3-3.3c0-21.6,0-43.1,0-64.7c0-1.9,0.3-3.7,1-5.5
			c1.3-3.1,3.7-5,6.8-6c2-0.6,4.1-0.8,6.2-0.6c2.4,0.2,4.6,0.7,6.7,1.8c3,1.6,5.1,3.9,5.9,7.3c0.2,1,0.3,2,0.3,2.9
			c0,5.9,0,11.7,0,17.6c0,0.1,0,0.3,0,0.5c7.3,0.3,14.5,0.7,21.8,1c0-0.2,0-0.3,0-0.4c0-4.6,0-9.2,0-13.8c0-2,0.3-3.9,1-5.7
			c1.1-2.7,3-4.4,5.8-5.2c2.8-0.8,5.7-0.8,8.5,0.1c3.5,1,5.7,3.5,6.6,7c0.4,1.4,0.5,2.8,0.5,4.2c0,19.2,0,38.3,0,57.5
			c0,1.9-0.3,3.8-1,5.6c-1.1,2.8-3.1,4.7-6,5.6c-2.8,0.9-5.7,0.9-8.5,0.1c-3.3-0.9-5.3-3.1-6.2-6.3c-0.5-1.5-0.7-3.1-0.7-4.7
			c0-5,0-10.1,0-15.1c0-0.4,0-0.4-0.4-0.4c-3.4,0-6.8-0.1-10.3-0.1c-3.6,0-7.1-0.1-10.7-0.1C47.8,59.4,47.7,59.4,47.5,59.4z"/>
		<path class="st0" d="M19.3,3.4c-0.1,0.1-0.1,0.2-0.2,0.3c-0.6,1-1.3,1.9-1.8,2.9c-1.2,2-1.7,4.3-1.8,6.6c0,0.5,0,0.9,0,1.4
			c0,21.3,0,42.5,0,63.8c0,1.2,0,2.5,0.3,3.7c0.3,1.4,1,2.7,1.8,3.9c0.5,0.7,1,1.5,1.5,2.2c0.1,0.1,0.1,0.2,0.2,0.3
			c-0.3-0.1-0.6-0.2-0.9-0.3c-2.1-0.7-4-1.7-5.6-3.1c-1.3-1.2-2.3-2.6-2.7-4.4C10,80.2,10,79.6,10,79.1c0-3.7,0-7.5,0-11.2
			c0-18.2,0-36.5,0-54.7c0-2.8,1-4.9,3.1-6.7C14.9,5,17,4,19.3,3.4C19.2,3.4,19.2,3.4,19.3,3.4z"/>
		<path class="st0" d="M8.7,7.1C8.1,8.1,7.5,9,6.9,9.9c-1.1,1.9-1.7,3.9-1.8,6.1c0,0.8,0,1.6,0,2.4c0,19.3,0,38.6,0,57.9
			c0,1.4,0,2.9,0.6,4.2c0.4,0.9,0.9,1.7,1.4,2.5c0.4,0.7,0.9,1.4,1.4,2c0.1,0.1,0.1,0.2,0.2,0.3c-1.2-0.4-2.4-0.8-3.5-1.4
			c-1.4-0.8-2.8-1.7-3.8-3C0.5,79.5,0,78.2,0,76.6C0,56.4,0,36.2,0,16c0-2.2,0.8-4,2.4-5.5C4,9,5.9,8.1,7.9,7.4
			C8.2,7.3,8.4,7.2,8.7,7.1z"/>
		<path class="st0" d="M69.2,82.9c-3.2-1.1-6.1-2.6-7.8-5.9c-0.5-1.1-0.8-2.2-0.8-3.4c0-3.5,0-7.1,0-10.6c0-0.3,0.1-0.3,0.3-0.3
			c1.4,0,2.8,0,4.2,0c0.3,0,0.3,0.1,0.3,0.4c0,2.8,0,5.5,0,8.3c-0.1,4.2,1.1,8,3.6,11.4C69.1,82.6,69.2,82.7,69.2,82.9
			C69.2,82.8,69.2,82.8,69.2,82.9z"/>
		<path class="st0" d="M65.1,27.5c-1.5-0.1-3-0.1-4.5-0.2c0-0.3,0-0.6,0-0.9c0-3.1,0-6.1,0-9.2c-0.1-3.3,1.3-5.8,3.8-7.7
			c1.3-1,3.5-2,4.8-2.3c-0.1,0.2-0.2,0.3-0.3,0.4c-1.3,1.8-2.4,3.8-3.1,5.9c-0.5,1.5-0.7,3-0.7,4.5c0,3,0,6,0,8.9
			C65.1,27.1,65.1,27.3,65.1,27.5z"/>
		<path class="st0" d="M60.3,10.3c-0.5,0.7-0.9,1.4-1.4,2.1c-0.9,1.4-1.6,2.9-1.8,4.6c-0.1,0.9-0.2,1.8-0.2,2.7c0,2.3,0,4.6,0,7
			c0,0.1,0,0.3,0,0.3c-0.7,0-1.4,0-2,0c-0.8,0-1.5-0.1-2.3-0.1c-0.2,0-0.3-0.1-0.3-0.3c0-2.7,0-5.3,0-8c0-2,0.9-3.7,2.3-5.1
			C56.1,11.9,58.1,10.9,60.3,10.3C60.2,10.2,60.2,10.3,60.3,10.3z"/>
		<path class="st0" d="M60.3,79.8c-2.7-0.9-5-2.1-6.7-4.4c-0.9-1.2-1.4-2.6-1.3-4.1c0-2.8,0-5.6,0-8.4c0-0.1,0-0.2,0-0.3
			c1.4,0,2.8,0,4.3,0c0,0.1,0,0.2,0,0.4c0,2.4,0,4.8,0,7.1c-0.1,2.8,0.7,5.2,2.3,7.5C59.3,78.3,59.8,79,60.3,79.8z"/>
	</g>
</g>
</svg>
