<?xml version="1.0" encoding="UTF-8"?>
<svg width="131px" height="31px" viewBox="0 0 131 31" version="1.1" xmlns="http://www.w3.org/2000/svg" xmlns:xlink="http://www.w3.org/1999/xlink">
    <!-- Generator: Sketch 46.2 (44496) - http://www.bohemiancoding.com/sketch -->
    <title>New Hcom Logo white</title>
    <desc>Created with Sketch.</desc>
    <defs>
        <polygon id="path-1" points="23.8787736 0.0058490566 0.19740566 0.0058490566 0.19740566 30.7074887 23.8787736 30.7074887 23.8787736 0.0058490566"></polygon>
    </defs>
    <g id="Symbols" stroke="none" stroke-width="1" fill="none" fill-rule="evenodd">
        <g id="New-Hcom-Logo-white">
            <g id="Page-1">
                <g id="Group-2" transform="translate(42.698113, 9.650943)" fill="#FFFFFF">
                    <path d="M5.53165755,10.9599915 L5.53165755,6.18599151 C5.53165755,4.76203868 4.78707264,4.34324623 3.68803491,4.34324623 C2.70656321,4.34324623 1.75960094,4.94628396 1.26857264,5.59962358 L1.26857264,10.9599915 C1.26857264,11.2942651 0.981383962,11.5791142 0.643308491,11.5791142 C0.287978302,11.5791142 -8.7735849e-05,11.2942651 -8.7735849e-05,10.9599915 L-8.7735849e-05,0.892595283 C-8.7735849e-05,0.556859434 0.287978302,0.271717925 0.643308491,0.271717925 C0.981383962,0.271717925 1.26857264,0.556859434 1.26857264,0.892595283 L1.26857264,4.59417075 C1.84382736,3.92445377 2.96070472,3.22081226 4.19573302,3.22081226 C5.90424245,3.22081226 6.80031792,4.04201981 6.80031792,5.79995377 L6.80031792,10.9599915 C6.80031792,11.2942651 6.51312925,11.5791142 6.15779906,11.5791142 C5.81943113,11.5791142 5.53165755,11.2942651 5.53165755,10.9599915" id="Fill-1"></path>
                    <path d="M7.72207075,7.45865849 C7.72207075,5.11406415 9.27850472,3.22072453 11.7655236,3.22072453 C14.25225,3.22072453 15.8080991,5.11406415 15.8080991,7.45865849 C15.8080991,9.80325283 14.25225,11.7129698 11.7655236,11.7129698 C9.27850472,11.7129698 7.72207075,9.80325283 7.72207075,7.45865849 M14.4718821,7.45865849 C14.4718821,5.81653585 13.5079575,4.34345094 11.7655236,4.34345094 C10.0230896,4.34345094 9.04161792,5.81653585 9.04161792,7.45865849 C9.04161792,9.11715849 10.0230896,10.5917057 11.7655236,10.5917057 C13.5079575,10.5917057 14.4718821,9.11715849 14.4718821,7.45865849" id="Fill-3"></path>
                    <path d="M28.8962113,7.24040094 C28.8962113,5.13035377 27.440966,3.22063679 24.9712019,3.22063679 C22.6374283,3.22063679 20.9452962,5.11397642 20.9452962,7.45857075 C20.9452962,8.02768396 21.0377113,8.5532217 21.2020698,9.03050472 C20.4188811,10.1067311 19.4339,10.3111557 19.4339,10.3111557 C18.8469472,10.5111934 18.5796453,10.1552783 18.5796453,9.55224057 L18.5796453,4.52731604 L19.747117,4.52731604 C20.0515604,4.52731604 20.3220792,4.2752217 20.3220792,3.97370283 C20.3220792,3.67218396 20.0515604,3.42125943 19.747117,3.42125943 L18.5796453,3.42125943 L18.5796453,1.76275943 C18.5796453,1.42848585 18.2918717,1.14334434 17.9537962,1.14334434 C17.598466,1.14334434 17.3112774,1.42848585 17.3112774,1.76275943 L17.3112774,3.42125943 L16.4482491,3.42125943 C16.1438057,3.42125943 15.8896642,3.67218396 15.8896642,3.97370283 C15.8896642,4.2752217 16.1438057,4.52731604 16.4482491,4.52731604 L17.3112774,4.52731604 L17.3112774,9.82100472 C17.3112774,11.0267877 17.9081736,11.7315991 19.099334,11.5792311 C20.7332679,11.3130991 21.6334377,10.3091085 21.7802491,10.1333443 C22.5195698,11.1232972 23.6964,11.7128821 25.1069,11.7128821 C26.2407396,11.7128821 27.2046642,11.3786085 28.0168057,10.7580236 C28.1516264,10.6585896 28.2364377,10.5070991 28.2364377,10.3392311 C28.2364377,10.0555519 27.9995509,9.83738208 27.7117774,9.83738208 C27.6102962,9.83738208 27.5091075,9.85375943 27.4245887,9.90435377 C26.7817774,10.4062028 26.0202302,10.674967 25.2253434,10.674967 C23.4656547,10.674967 22.3832868,9.40221226 22.2818057,7.87736321 L28.1516264,7.87736321 C28.6256925,7.87736321 28.8962113,7.64281604 28.8962113,7.24040094 L28.8962113,7.24040094 Z M22.2818057,6.9567217 C22.3493623,5.7167217 23.2123906,4.25884434 24.9548245,4.25884434 C26.8157019,4.25884434 27.6275509,5.74947642 27.6442208,6.9567217 L22.2818057,6.9567217 Z" id="Fill-5"></path>
                    <path d="M30.0875764,10.9599915 L30.0875764,0.892595283 C30.0875764,0.556859434 30.37535,0.271717925 30.7306802,0.271717925 C31.0690481,0.271717925 31.3562368,0.556859434 31.3562368,0.892595283 L31.3562368,10.9599915 C31.3562368,11.2942651 31.0690481,11.5791142 30.7306802,11.5791142 C30.37535,11.5791142 30.0875764,11.2942651 30.0875764,10.9599915" id="Fill-7"></path>
                    <path d="M32.4600708,10.3066519 C32.4600708,10.005133 32.7142123,9.75274623 33.0186557,9.75274623 C33.1370991,9.75274623 33.2555425,9.78696321 33.3567311,9.85393491 C33.9489481,10.3394066 34.7610896,10.6912274 35.6741274,10.6912274 C36.9264104,10.6912274 37.6025613,10.138784 37.6025613,9.3517934 C37.6025613,8.4639066 36.6047123,8.17876509 35.5047972,7.91146321 C34.1176934,7.59239717 32.5448821,7.22419906 32.5448821,5.54902925 C32.5448821,4.29294434 33.6439198,3.22081226 35.5896085,3.22081226 C36.7567877,3.22081226 37.6361934,3.58901038 38.2962594,4.10869906 C38.4147028,4.20842547 38.5158915,4.35962358 38.5158915,4.52749151 C38.5158915,4.81263302 38.2623349,5.06355755 37.9745613,5.06355755 C37.8733726,5.06355755 37.7549292,5.01296321 37.6701179,4.94628396 C37.1624198,4.50965189 36.4353821,4.24235 35.5896085,4.24235 C34.4730236,4.24235 33.7796179,4.74419906 33.7796179,5.46451038 C33.7796179,6.25296321 34.7099104,6.50388774 35.7756085,6.75481226 C37.1969292,7.07270849 38.8372972,7.47512358 38.8372972,9.26727453 C38.8372972,10.6245481 37.7382594,11.7130575 35.6232406,11.7130575 C34.4902783,11.7130575 33.5090991,11.4115387 32.6969575,10.7581991 C32.5448821,10.6584726 32.4600708,10.4908972 32.4600708,10.3066519" id="Fill-9"></path>
                    <path d="M40.4355519,9.83744057 C40.94325,9.83744057 41.3658443,10.256233 41.3658443,10.7580821 C41.3658443,11.2613934 40.94325,11.6801858 40.4355519,11.6801858 C39.9278538,11.6801858 39.504967,11.2613934 39.504967,10.7580821 C39.504967,10.256233 39.9278538,9.83744057 40.4355519,9.83744057" id="Fill-11"></path>
                    <path d="M53.1867877,3.22075377 C50.6997689,3.22075377 49.1433349,5.11380094 49.1433349,7.45868774 C49.1433349,7.97457453 49.2228821,8.46706509 49.3670613,8.92504623 C48.16625,10.4247443 46.4583255,10.6127915 45.7848066,10.5917349 C44.04325,10.5373387 42.9600047,9.25083868 42.9600047,7.45868774 C42.9600047,5.66624434 44.0423726,4.34318774 45.7848066,4.34318774 C46.4785047,4.34318774 47.053467,4.54381038 47.5784198,5.06349906 C47.6629387,5.14655566 47.7980519,5.21352736 47.9501274,5.21352736 C48.2718255,5.21352736 48.5250896,4.96260283 48.5250896,4.6447066 C48.5250896,4.47713113 48.4411557,4.32564057 48.3393821,4.22591415 C47.6968632,3.60532925 46.9013915,3.22075377 45.7175425,3.22075377 C43.2814104,3.22075377 41.6401651,5.06349906 41.6401651,7.45868774 C41.6401651,9.87025377 43.2822877,11.6457349 45.7175425,11.7129991 C48.0501462,11.7129991 49.0298632,10.9678292 49.9399764,10.1007066 C49.9405613,10.0998292 49.9408538,10.0986594 49.9414387,10.0977821 C50.637184,11.0798387 51.7569858,11.7129991 53.1867877,11.7129991 C55.6738066,11.7129991 57.2293632,9.80328208 57.2293632,7.45868774 C57.2293632,5.11380094 55.6738066,3.22075377 53.1867877,3.22075377 M53.1867877,10.5917349 C51.4443538,10.5917349 50.4628821,9.11718774 50.4628821,7.45868774 C50.4628821,5.81627264 51.4443538,4.34318774 53.1867877,4.34318774 C54.9292217,4.34318774 55.8934387,5.81627264 55.8934387,7.45868774 C55.8934387,9.11718774 54.9292217,10.5917349 53.1867877,10.5917349" id="Fill-13"></path>
                    <path d="M69.2820755,5.66639057 L69.2820755,10.9600792 C69.2820755,11.2940604 68.9776321,11.5792019 68.6395566,11.5792019 C68.3014811,11.5792019 68.0134151,11.2940604 68.0134151,10.9600792 L68.0134151,6.01821132 C68.0134151,4.99667358 67.5568962,4.34333396 66.5078679,4.34333396 C65.6623868,4.34333396 64.765434,4.94607925 64.3428396,5.5818717 L64.3428396,10.9600792 C64.3428396,11.2940604 64.0556509,11.5792019 63.7166981,11.5792019 C63.3786226,11.5792019 63.0741792,11.2940604 63.0741792,10.9600792 L63.0741792,6.01821132 C63.0741792,4.99667358 62.6340377,4.34333396 61.5686321,4.34333396 C60.7395283,4.34333396 59.8598302,4.94607925 59.4199811,5.59941887 L59.4199811,10.9600792 C59.4199811,11.2940604 59.1327925,11.5792019 58.7944245,11.5792019 C58.4390943,11.5792019 58.1513208,11.2940604 58.1513208,10.9600792 L58.1513208,3.97367358 C58.1513208,3.6394 58.4390943,3.35455094 58.7774623,3.35455094 C59.1327925,3.35455094 59.4199811,3.6394 59.4199811,3.97367358 L59.4199811,4.59425849 C59.7413868,4.09094717 60.8413019,3.2209 62.0590755,3.2209 C63.311066,3.2209 64.0211415,3.89061698 64.2580283,4.72790943 C64.7145472,3.99151321 65.8144623,3.2209 66.9983113,3.2209 C68.4871887,3.2209 69.2820755,4.04181509 69.2820755,5.66639057" id="Fill-15"></path>
                </g>
                <g id="Group-4">
                    <g id="Group-19" transform="translate(6.433962, 0.286604)">
                        <mask id="mask-2" fill="white">
                            <use xlink:href="#path-1"></use>
                        </mask>
                        <g id="Clip-18"></g>
                        <path d="M8.6025,26.5488094 C8.6025,29.3072245 6.89954717,30.7074887 4.35345283,30.7074887 C1.8079434,30.7074887 0.19740566,29.3072245 0.19740566,26.5488094 L0.19740566,4.16768679 C0.19740566,1.4092717 1.88456604,0.00579056604 4.43007547,0.00579056604 C6.97616981,0.00579056604 8.6025,1.4092717 8.6025,4.16768679 L8.6025,10.865734 L17.0274811,11.2064415 L17.0274811,6.06248868 C17.0274811,3.30378113 17.8059906,1.90059245 20.3520849,1.90059245 C22.8975943,1.90059245 23.8787736,3.30378113 23.8787736,6.06248868 L23.8787736,25.7469038 C23.8787736,28.5053189 22.8975943,29.9088 20.3520849,29.9088 C17.8059906,29.9088 17.0274811,28.5053189 17.0274811,25.7469038 L17.0274811,20.1326868 L8.6025,20.0624981 L8.6025,26.5488094 Z" id="Fill-17" fill="#FFFFFF" mask="url(#mask-2)"></path>
                    </g>
                    <path d="M0,5.69373491 C0,4.37740472 1.15138679,3.30702736 3.03185849,2.74288585 C2.09162264,4.05921604 1.77138679,4.75349906 1.77138679,6.25816887 L1.77138679,10.0191123 L1.77138679,18.8298387 L1.77138679,26.5640462 C1.77138679,28.0684236 2.09162264,28.3863198 3.03185849,29.7029425 C1.15138679,29.1388009 0,28.0684236 0,26.7520934 L0,5.69373491 Z" id="Fill-20" fill="#FFFFFF"></path>
                    <path d="M3.03194623,4.63131226 C3.03194623,3.19595377 4.23831415,2.04310472 6.2889934,1.42807642 C5.26365377,2.86343491 4.93961604,3.62059528 4.93961604,5.26096321 L4.93961604,9.36202925 L4.93961604,18.9693972 L4.93961604,27.4022745 C4.93961604,29.0429349 5.26365377,29.389784 6.2889934,30.8251425 C4.23831415,30.2098217 3.03194623,29.0286047 3.03194623,27.5932462 L3.03194623,4.63131226 Z" id="Fill-22" fill="#FFFFFF"></path>
                    <path d="M23.0001575,2.97061887 C21.1574123,3.52364717 19.8984028,4.72211887 19.9946198,6.43443019 C19.9946198,7.90839245 20.0045632,8.40263774 19.9963745,9.92222264 L21.5542708,10.0014774 L21.5542708,6.85000566 C21.5542708,5.37575094 22.0789311,4.2606283 23.0001575,2.97061887" id="Fill-24" fill="#FFFFFF"></path>
                    <path d="M19.9100425,4.03225189 C18.1655613,4.55545 17.1033726,5.68548774 17.1033726,6.9064783 C17.1033726,8.30206321 17.1112689,8.34622358 17.1033726,9.78479906 L18.7212217,9.86785566 L18.7212217,7.29280849 C18.7212217,5.89722358 19.0379481,5.25324245 19.9100425,4.03225189" id="Fill-26" fill="#FFFFFF"></path>
                    <path d="M22.9997189,29.1186509 C21.1569736,28.5656226 19.8976717,27.3671509 19.9941811,25.6548396 C19.9941811,24.1808774 19.9976906,23.6073774 19.988917,22.0877925 L21.6909925,22.0877925 L21.6909925,25.2392642 C21.6909925,26.7135189 22.0784925,27.8286415 22.9997189,29.1186509" id="Fill-28" fill="#FFFFFF"></path>
                    <path d="M19.9255717,28.0655868 C18.1810906,27.5423887 17.1186094,26.4123509 17.1186094,25.1913604 C17.1186094,23.7960679 17.1267981,23.5349075 17.1186094,22.0963321 L18.6007604,22.0963321 L18.5995906,24.8050302 C18.5995906,26.2006151 19.0534774,26.8445962 19.9255717,28.0655868" id="Fill-30" fill="#FFFFFF"></path>
                </g>
            </g>
        </g>
    </g>
</svg>