<?xml version="1.0" encoding="utf-8"?>
<!-- Generator: Adobe Illustrator 21.1.0, SVG Export Plug-In . SVG Version: 6.00 Build 0)  -->
<svg version="1.1" id="Layer_1" xmlns="http://www.w3.org/2000/svg" xmlns:xlink="http://www.w3.org/1999/xlink" x="0px" y="0px"
	 viewBox="0 0 16 16" style="enable-background:new 0 0 16 16;" xml:space="preserve">
<style type="text/css">
	.st0{fill:#D42E2E;}
</style>
<g>
	<g>
		<path class="st0" d="M7.9,13.8C7.9,15.3,7,16,5.7,16s-2.2-0.7-2.2-2.2V2.2C3.5,0.7,4.4,0,5.7,0C7,0,7.9,0.7,7.9,2.2v3.5l4.4,0.2
			V3.2C12.3,1.7,12.7,1,14,1s1.8,0.7,1.8,2.2v10.3c0,1.4-0.5,2.2-1.8,2.2c-1.3,0-1.7-0.7-1.7-2.2v-2.9l-4.4,0L7.9,13.8L7.9,13.8
			L7.9,13.8z"/>
	</g>
	<path class="st0" d="M10.6,2.7c0-0.7,0.1-0.9,1.1-1.2c-0.2,0.5-0.2,0.7-0.2,1.4v1.9l-0.9,0V2.7z"/>
	<path class="st0" d="M8.9,3.3c0-0.7,0.1-0.9,1.1-1.2C9.7,2.7,9.7,2.9,9.7,3.6v1.2l-0.9,0V3.3z"/>
	<path class="st0" d="M10.5,11.4l0.9,0v1.9c0,0.7,0,0.9,0.2,1.4c-0.9-0.3-1.1-0.5-1.1-1.2V11.4z"/>
	<path class="st0" d="M1.9,1.9C1.9,1.3,2,1,2.9,0.7C2.7,1.3,2.7,1.4,2.7,2.2l0,11.7c0,0.7,0,0.9,0.2,1.4c-0.9-0.3-1.1-0.5-1.1-1.2
		L1.9,1.9z"/>
	<path class="st0" d="M0.2,3c0-0.7,0.1-0.9,1.1-1.2C1,2.3,1,2.5,1,3.2l0,9.9c0,0.7,0,0.9,0.2,1.4c-0.9-0.3-1.1-0.5-1.1-1.2L0.2,3z"
		/>
	<path class="st0" d="M8.9,11.4l0.9,0v1.3c0,0.7,0,0.9,0.2,1.4c-0.9-0.3-1.1-0.5-1.1-1.2V11.4z"/>
</g>
</svg>
