<?xml version="1.0" encoding="utf-8"?>
<!-- Generator: Adobe Illustrator 21.1.0, SVG Export Plug-In . SVG Version: 6.00 Build 0)  -->
<svg version="1.1" id="Layer_1" xmlns="http://www.w3.org/2000/svg" xmlns:xlink="http://www.w3.org/1999/xlink" x="0px" y="0px"
	 viewBox="0 0 1024 1024" style="enable-background:new 0 0 1024 1024;" xml:space="preserve">
<style type="text/css">
	.st0{fill:#D42E2E;}
</style>
<g>
	<circle class="st0" cx="580.9" cy="782.6" r="14.1"/>
	<path class="st0" d="M156,690.2c-12.4,0-23.5,5.4-30.9,11.8v-36c0-5.7-5-10.8-10.8-10.8c-6.1,0-10.8,4.7-10.8,10.8v119
		c0,6.1,5,10.8,10.8,10.8c5.7,0,10.8-5,10.8-10.8v-62.2c5-6.4,14.8-12.8,24.9-12.8c13.1,0,18.2,5.4,18.2,18.5V785
		c0,5.7,5,10.8,10.8,10.8c6.1,0,10.8-4.7,10.8-10.8v-61.2C189.9,701.9,178.2,690.2,156,690.2z"/>
	<path class="st0" d="M244.7,690.2c-29.2,0-50.8,22.5-50.8,53.5c0,31.3,21.2,53.8,50.8,53.8c29.2,0,50.8-22.5,50.8-53.8
		C295.5,712.7,274.3,690.2,244.7,690.2z M244.7,710.3c19.5,0,28.2,17.5,28.2,33.6s-8.7,33.6-28.2,33.6s-28.6-17.5-28.6-33.6
		C216.2,727.5,225.2,710.3,244.7,710.3z"/>
	<path class="st0" d="M399.7,690.2c-28.9,0-50.4,22.9-50.4,53.5c0,6.4,1,12.4,2.7,17.8c-8.1,10.4-17.5,12.4-17.8,12.4h-0.3
		c-1.3,0.3-3,0.7-3.7,0c-1-0.7-1.7-3-1.7-6.1v-56.1h10.4c5.4,0,10.1-4.7,10.1-9.7c0-5.4-4.7-9.7-10.1-9.7h-10.4v-15.8
		c0-5.7-5-10.8-10.8-10.8c-6.1,0-10.8,4.7-10.8,10.8v16.1h-6.7c-5.4,0-9.7,4.4-9.7,9.7c0,5.4,4.4,9.7,9.7,9.7h6.7v59.2
		c0,8.7,2.4,15.5,7.4,19.8c4.4,3.7,10.1,5.4,17.5,4.4c15.8-2.7,25.9-10.8,30.6-15.5c9.4,11.1,23.2,16.8,39.3,16.8
		c13.8,0,25.9-4,36-12.1c2.4-2,4-4.7,4-7.7c0-5-4.4-9.4-9.4-9.4c-2,0-3.7,0.3-5,1.3l-0.3,0.3c-7.1,5.4-15.1,8.4-23.5,8.4
		c-18.5,0-28.6-12.8-30.6-26.2h64.9c7.4,0,12.1-4.4,12.1-10.8C448.8,707.7,424.3,690.2,399.7,690.2z M371.8,734.5
		c2-11.1,10.1-25.2,27.6-25.2c19.5,0,26.6,15.1,27.9,25.2H371.8z"/>
	<path class="st0" d="M467,655.2c-6.1,0-10.8,4.7-10.8,10.8v119c0,6.1,5,10.8,10.8,10.8c5.7,0,10.8-5,10.8-10.8V666
		C477.7,660.2,473,655.2,467,655.2z"/>
	<path class="st0" d="M527.2,732.2c-12.1-3-20.8-5.4-20.8-12.1s7.1-11.1,17.8-11.1c8.7,0,16.5,2.7,22.2,7.7c1.7,1.3,3.7,2,5.7,2
		c5.4,0,9.7-4.4,9.7-9.7c0-2.7-1.3-5.4-3.7-7.7c-9.4-7.4-20.8-11.1-34-11.1c-26.9,0-39,16.1-39,30.9c0,22.5,20.8,27.2,37.3,31.3
		c12.4,3,22.2,6.1,22.2,13.8s-7.1,12.4-19.2,12.4c-9.1,0-17.8-3.4-24.9-9.1l-0.3-0.3c-1.7-1-3.7-1.7-5.7-1.7
		c-5.4,0-9.7,4.4-9.7,10.1c0,3.4,1.7,6.4,4,8.1c9.7,8.1,22.2,12.1,36.3,12.1c24.9,0,41-12.8,41-32.3
		C565.5,740.9,542.3,735.6,527.2,732.2z"/>
	<path class="st0" d="M730.2,690.2c-29.2,0-50.8,22.5-50.8,53.5c0,5.7,0.7,11.1,2.4,16.5c-14.5,16.8-34.3,17.1-38,17.1
		c-18.2-0.7-29.9-13.8-29.9-33.6c0-20.2,12.1-33.6,29.6-33.6c7.7,0,13.4,2.4,18.5,7.4c1.7,1.7,4.4,2.7,6.7,2.7
		c5.7,0,10.1-4.4,10.1-10.1c0-2.7-1-5.4-3.4-7.4c-9.1-8.7-19.5-12.8-32.9-12.8c-29.6,0-51.1,22.5-51.1,53.5s20.8,52.8,51.1,53.8
		c26.2,0,38.7-8.1,49.1-17.5c9.4,11.4,22.9,17.5,38.3,17.5c29.2,0,50.8-22.5,50.8-53.8C781,712.7,759.8,690.2,730.2,690.2z
		 M758.8,743.6c0,16.1-8.7,33.6-28.2,33.6S702,759.7,702,743.6s9.1-33.6,28.6-33.6C749.7,710.3,758.8,727.5,758.8,743.6z"/>
	<path class="st0" d="M892.3,690.2c-12.4,0-24.2,6.7-31.3,14.5c-5-9.1-14.5-14.5-26.6-14.5c-10.8,0-21.2,5.4-27.6,11.1
		c-0.7-5.4-5.4-9.4-10.8-9.4c-5.7,0-10.8,5-10.8,10.8v82.7c0,6.1,5,10.8,10.8,10.8s10.8-5,10.8-10.8v-62.5
		c4.4-6.4,13.4-12.4,21.9-12.4c6.1,0,14.1,1.7,14.1,16.5v58.5c0,5.7,5,10.8,10.8,10.8c5.7,0,10.8-5,10.8-10.8V723
		c4.4-6.1,13.4-12.4,21.9-12.4c9.7,0,14.1,5.4,14.1,16.5v58.5c0,5.7,5,10.8,10.8,10.8c6.1,0,10.8-5,10.8-10.8v-62.5
		C922.2,701.6,911.8,690.2,892.3,690.2z"/>
</g>
<g>
	<g>
		<path class="st0" d="M516.4,537.2c0,32.3-19.8,48.7-49.8,48.7s-48.7-16.5-48.7-48.7V275.3c0-32.3,19.8-48.7,49.4-48.7
			c29.9,0,48.7,16.5,48.7,48.7v78.3l98.5,4v-60.2c0-32.3,9.1-48.7,39-48.7s41.4,16.5,41.4,48.7v230.3c0,32.3-11.4,48.7-41.4,48.7
			c-29.9,0-39-16.5-39-48.7v-65.6l-98.5-0.7l0.4,75.6l0,0V537.2z"/>
	</g>
	<path class="st0" d="M576.2,287.7c0-14.8,2.9-20,23.8-26.4c-4.6,12.3-4.3,16-4.3,32.5v42.9l-19.5-0.8V287.7z"/>
	<path class="st0" d="M538.2,301.4c0-14.8,2.9-20,23.8-26.4c-4.6,12.3-4.3,16-4.3,32.5v27.7l-19.5-0.8V301.4z"/>
	<path class="st0" d="M575.7,482.1l19.5,0.1V525c0,16.5-0.3,20.1,4.3,32.5c-20.8-6.4-23.8-11.6-23.8-26.4V482.1z"/>
	<path class="st0" d="M380.5,269.5c0-14.8,2.9-20,23.8-26.4c-4.6,12.3-4.3,16-4.3,32.5l-0.2,263.2c0,16.5-0.3,20.1,4.3,32.5
		c-20.8-6.4-23.8-11.6-23.8-26.4L380.5,269.5z"/>
	<path class="st0" d="M342.4,293.1c0-14.8,2.9-20,23.8-26.4c-4.6,12.3-4.3,16-4.3,32.5l-0.1,221.9c0,16.5-0.3,20.1,4.3,32.5
		c-20.8-6.4-23.8-11.6-23.8-26.4L342.4,293.1z"/>
	<path class="st0" d="M538.2,481.9l19.5,0.1v29.3c0,16.5-0.3,20.1,4.3,32.5c-20.8-6.4-23.8-11.6-23.8-26.4V481.9z"/>
</g>
</svg>
