<?xml version="1.0" encoding="utf-8"?>
<!-- Generator: Adobe Illustrator 21.1.0, SVG Export Plug-In . SVG Version: 6.00 Build 0)  -->
<svg version="1.1" id="Layer_1" xmlns="http://www.w3.org/2000/svg" xmlns:xlink="http://www.w3.org/1999/xlink" x="0px" y="0px"
	 viewBox="0 0 316.9 68.1" style="enable-background:new 0 0 316.9 68.1;" xml:space="preserve">
<style type="text/css">
	.st0{clip-path:url(#SVGID_2_);fill:#D32F2F;}
	.st1{clip-path:url(#SVGID_2_);fill:#D42E2E;}
</style>
<title>Horizontal_H_White</title>
<g>
	<defs>
		<rect id="SVGID_1_" x="-1" y="-0.1" width="316.9" height="68.1"/>
	</defs>
	<clipPath id="SVGID_2_">
		<use xlink:href="#SVGID_1_"  style="overflow:visible;"/>
	</clipPath>
	<path class="st0" d="M32.3,58.8c0,6.1-3.8,9.2-9.4,9.2c-5.6,0-9.2-3.1-9.2-9.2V9.2c0-6.1,3.7-9.2,9.4-9.2s9.2,3.1,9.2,9.2V24
		L51,24.8V13.4c0-6.1,1.7-9.2,7.4-9.2c5.6,0,7.8,3.1,7.8,9.2V57c0,6.1-2.2,9.2-7.8,9.2c-5.6,0-7.4-3.1-7.4-9.2V44.6l-18.7-0.2V58.8z
		"/>
	<path class="st0" d="M-1,11.9C-1,9,1.6,6.6,5.7,5.4c-2.1,2.9-2.8,4.5-2.8,7.8v8.3V41v17.1c0,3.3,0.7,4,2.8,7
		C1.6,63.9-1,61.5-1,58.6V11.9z"/>
	<path class="st0" d="M5.7,9.6c0-3.2,2.7-5.7,7.2-7.1c-2.3,3.2-3,4.9-3,8.5v9.1v21.3V60c0,3.6,0.7,4.4,3,7.6c-4.5-1.4-7.2-4-7.2-7.2
		V9.6z"/>
	<path class="st0" d="M50,5.9c-4.1,1.2-6.9,3.9-6.7,7.7c0,3.3,0,4.4,0,7.7l3.5,0.2v-7C46.8,11.2,47.9,8.7,50,5.9"/>
	<path class="st0" d="M43.1,8.2c-3.9,1.2-6.2,3.7-6.2,6.4c0,3.1,0,3.2,0,6.4l3.6,0.2v-5.7C40.5,12.4,41.2,10.9,43.1,8.2"/>
	<path class="st0" d="M50,63.8c-4.1-1.2-6.9-3.9-6.7-7.7c0-3.3,0-4.5,0-7.9h3.8v7C47.1,58.5,47.9,61,50,63.8"/>
	<path class="st0" d="M43.2,61.5c-3.9-1.2-6.2-3.7-6.2-6.4c0-3.1,0-3.7,0-6.9h3.3l0,6C40.2,57.4,41.2,58.8,43.2,61.5"/>
	<path class="st1" d="M124.2,38.6c0-7.3,4.8-13.3,12.6-13.3c7.7,0,12.5,5.9,12.5,13.3s-4.8,13.3-12.5,13.3
		C129,51.9,124.2,45.9,124.2,38.6 M145.1,38.6c0-5.1-3-9.8-8.4-9.8c-5.4,0-8.5,4.6-8.5,9.8c0,5.2,3,9.8,8.5,9.8
		C142.1,48.4,145.1,43.8,145.1,38.6"/>
	<path class="st1" d="M136.7,29.7c-5.2,0-7.6,4.6-7.6,8.9c0,4.3,2.4,8.9,7.6,8.9c5.2,0,7.5-4.6,7.5-8.9
		C144.2,34.3,141.9,29.7,136.7,29.7 M136.7,49.3c-6.1,0-9.3-5.4-9.3-10.7c0-5.3,3.2-10.7,9.3-10.7c5.5,0,9.3,4.4,9.3,10.7
		C146,44.9,142.2,49.3,136.7,49.3 M136.7,26.2c-6.9,0-11.7,5.1-11.7,12.4c0,7.3,4.8,12.4,11.7,12.4c6.9,0,11.7-5.1,11.7-12.4
		C148.4,31.3,143.6,26.2,136.7,26.2 M136.7,52.8c-7.8,0-13.4-6-13.4-14.2c0-8.2,5.7-14.2,13.4-14.2c7.8,0,13.4,6,13.4,14.2
		C150.2,46.8,144.5,52.8,136.7,52.8"/>
	<path class="st1" d="M159.2,51.5c-3.7,0.5-5.6-1.7-5.6-5.5V29.4H151c-0.9,0-1.7-0.8-1.7-1.7c0-0.9,0.8-1.7,1.7-1.7h2.7v-5.2
		c0-1,0.9-1.9,2-1.9c1.1,0,1.9,0.9,1.9,1.9v5.2h3.6c0.9,0,1.8,0.8,1.8,1.7c0,0.9-0.8,1.7-1.8,1.7h-3.6v15.8c0,1.9,0.8,3,2.7,2.4
		c0,0,3.2-0.7,5.7-4.3l1.7,3.6C167.6,46.9,164.8,50.6,159.2,51.5"/>
	<path class="st1" d="M151,26.8c-0.5,0-0.8,0.4-0.8,0.8c0,0.5,0.4,0.8,0.8,0.8h3.6V46c0,1.8,0.5,3.1,1.3,3.9
		c0.7,0.7,1.8,0.9,3.2,0.7c4.1-0.7,6.6-3,7.5-3.9l-0.8-1.8c-2.3,2.6-4.8,3.3-5.2,3.4c-1.3,0.4-2.1,0.1-2.6-0.2
		c-0.5-0.4-1.2-1.2-1.2-3V28.5h4.5c0.5,0,0.9-0.4,0.9-0.8c0-0.4-0.4-0.8-0.9-0.8h-4.5v-6.1c0-0.6-0.5-1.1-1.1-1.1
		c-0.6,0-1.1,0.5-1.1,1.1v6.1H151z M158.3,52.4c-1.4,0-2.6-0.4-3.5-1.2c-1.3-1.1-1.9-2.9-1.9-5.2V30.3H151c-1.4,0-2.6-1.2-2.6-2.6
		c0-1.4,1.2-2.6,2.6-2.6h1.8v-4.3c0-1.6,1.3-2.8,2.9-2.8c1.5,0,2.8,1.3,2.8,2.8V25h2.7c1.5,0,2.7,1.2,2.7,2.6c0,1.4-1.2,2.6-2.7,2.6
		h-2.7v14.9c0,0.8,0.2,1.4,0.4,1.6c0.3,0.2,0.7,0.1,1,0l0.1,0c0,0,2.9-0.7,5.1-3.9l0.9-1.3l2.6,5.6l-0.3,0.4c-0.1,0.2-3.1,4-9,5l0,0
		C159,52.4,158.6,52.4,158.3,52.4"/>
	<path class="st1" d="M177.5,25.3c7.7,0,12.2,6,12.2,12.6c0,1.3-0.8,2-2.3,2h-18.2c0.3,4.8,3.7,8.8,9.1,8.8c2.5,0,4.8-0.8,6.8-2.4
		c0.3-0.2,0.6-0.2,0.9-0.2c0.9,0,1.6,0.7,1.6,1.6c0,0.5-0.3,1-0.7,1.3c-2.5,1.9-5.5,3-9,3c-7.5,0-12.9-5.4-12.9-13.3
		C165,31.2,170.2,25.3,177.5,25.3 M169.1,37h16.6c-0.1-3.8-2.6-8.5-8.3-8.5C172,28.5,169.3,33.1,169.1,37"/>
	<path class="st1" d="M170.1,36.1h14.7c-0.4-2.7-2.2-6.7-7.4-6.7C172.8,29.4,170.6,33.1,170.1,36.1 M186.7,37.9h-18.5l0-0.9
		c0.2-4.6,3.5-9.3,9.2-9.3c6,0,9.2,4.7,9.2,9.3L186.7,37.9z M177.5,26.2c-6.6,0-11.6,5.3-11.6,12.4c0,7.3,4.9,12.4,12,12.4
		c3.2,0,6.1-0.9,8.5-2.8c0.2-0.2,0.3-0.4,0.3-0.6c0-0.4-0.3-0.7-0.7-0.7c-0.2,0-0.3,0-0.4,0.1c-2.1,1.7-4.7,2.6-7.3,2.6
		c-5.5,0-9.7-3.9-10-9.6l-0.1-0.9h19.2c1.4,0,1.4-0.8,1.4-1.1C188.8,32.1,184.9,26.2,177.5,26.2 M177.9,52.8
		c-8.1,0-13.8-5.8-13.8-14.2c0-8.1,5.8-14.2,13.4-14.2c6.5,0,13.1,4.6,13.1,13.5c0,1.8-1.3,2.9-3.2,2.9h-17.2c0.6,3.6,3.2,7,8.1,7
		c2.3,0,4.4-0.8,6.3-2.2l0.1-0.1c0.4-0.2,0.8-0.3,1.4-0.3c1.4,0,2.5,1.1,2.5,2.5c0,0.8-0.4,1.5-1,2
		C184.7,51.7,181.5,52.8,177.9,52.8"/>
	<path class="st1" d="M193.4,49.5V18c0-1.1,0.9-1.9,2-1.9c1.1,0,1.9,0.9,1.9,1.9v31.6c0,1-0.9,1.9-1.9,1.9
		C194.2,51.5,193.4,50.6,193.4,49.5"/>
	<path class="st1" d="M195.4,16.9c-0.6,0-1.1,0.5-1.1,1.1v31.6c0,0.6,0.5,1.1,1.1,1.1c0.6,0,1.1-0.5,1.1-1.1V18
		C196.4,17.4,195.9,16.9,195.4,16.9 M195.4,52.4c-1.6,0-2.9-1.3-2.9-2.8V18c0-1.6,1.3-2.8,2.9-2.8c1.5,0,2.8,1.3,2.8,2.8v31.6
		C198.2,51.1,196.9,52.4,195.4,52.4"/>
	<path class="st1" d="M200.7,47.5c0-0.9,0.8-1.7,1.7-1.7c0.4,0,0.7,0.1,1,0.3c1.8,1.5,4.4,2.6,7.2,2.6c3.9,0,6-1.7,6-4.2
		c0-2.8-3.1-3.7-6.5-4.5c-4.3-1-9.2-2.2-9.2-7.4c0-3.9,3.4-7.3,9.5-7.3c3.6,0,6.4,1.2,8.4,2.8c0.4,0.3,0.7,0.8,0.7,1.3
		c0,0.9-0.8,1.7-1.7,1.7c-0.3,0-0.7-0.2-0.9-0.4c-1.6-1.4-3.8-2.2-6.5-2.2c-3.5,0-5.6,1.6-5.6,3.8c0,2.5,2.9,3.3,6.2,4
		c4.4,1,9.5,2.3,9.5,7.9c0,4.3-3.4,7.7-10,7.7c-3.5,0-6.6-0.9-9.1-3C201,48.6,200.7,48.1,200.7,47.5"/>
	<path class="st1" d="M202.5,46.7c-0.5,0-0.8,0.4-0.8,0.8c0,0.3,0.1,0.5,0.3,0.7c2.4,1.9,5.2,2.8,8.6,2.8c5.5,0,9.1-2.7,9.1-6.8
		c0-4.6-3.8-5.9-8.8-7c-3.1-0.7-6.9-1.6-6.9-4.9c0-2.8,2.6-4.7,6.5-4.7c2.7,0,5.2,0.9,7,2.4c0.1,0.1,0.3,0.1,0.4,0.1
		c0.4,0,0.8-0.4,0.8-0.8c0-0.2-0.1-0.4-0.4-0.6c-2.1-1.7-4.8-2.6-7.8-2.6c-5,0-8.6,2.6-8.6,6.4c0,4.2,3.5,5.4,8.5,6.5
		c3.2,0.8,7.2,1.8,7.2,5.4c0,2.5-1.8,5.1-6.9,5.1c-2.8,0-5.5-1-7.7-2.8C202.8,46.7,202.6,46.7,202.5,46.7 M210.5,52.8
		c-3.8,0-7-1.1-9.6-3.2c-0.6-0.4-1.1-1.2-1.1-2.1c0-1.4,1.2-2.6,2.6-2.6c0.6,0,1.1,0.2,1.5,0.5l0.1,0.1c1.9,1.6,4.2,2.4,6.6,2.4
		c3.2,0,5.1-1.2,5.1-3.3c0-2.1-2.5-2.8-5.8-3.7c-4.4-1-9.9-2.3-9.9-8.3c0-3.9,3.2-8.2,10.3-8.2c3.5,0,6.5,1,9,3c0.7,0.6,1,1.3,1,2
		c0,1.4-1.2,2.6-2.6,2.6c-0.5,0-1.1-0.2-1.5-0.6c-1.5-1.3-3.6-2-5.9-2c-2.9,0-4.7,1.2-4.7,2.9c0,1.7,2.3,2.4,5.5,3.2
		c4.1,0.9,10.2,2.3,10.2,8.7C221.4,49.4,217.1,52.8,210.5,52.8"/>
	<path class="st1" d="M225.5,46c1.6,0,2.9,1.3,2.9,2.9c0,1.6-1.3,2.9-2.9,2.9c-1.6,0-2.9-1.3-2.9-2.9C222.6,47.3,223.9,46,225.5,46"
		/>
	<path class="st1" d="M225.5,46.9c-1.1,0-2,0.9-2,2c0,1.1,0.9,2,2,2c1.1,0,2-0.9,2-2C227.5,47.8,226.6,46.9,225.5,46.9 M225.5,52.7
		c-2.1,0-3.8-1.7-3.8-3.8c0-2.1,1.7-3.8,3.8-3.8c2.1,0,3.8,1.7,3.8,3.8C229.3,51,227.6,52.7,225.5,52.7"/>
	<path class="st1" d="M241.9,51.9c-7.6-0.2-12.7-5.8-12.7-13.3c0-7.5,5.1-13.3,12.7-13.3c3.7,0,6.1,1.2,8.1,3.2
		c0.3,0.3,0.6,0.8,0.6,1.3c0,1-0.8,1.8-1.8,1.8c-0.5,0-0.9-0.2-1.2-0.5c-1.6-1.6-3.4-2.3-5.6-2.3c-5.4,0-8.8,4.1-8.8,9.8
		c0,5.6,3.4,9.7,8.8,9.8c2.1,0.1,7.5-0.5,11.2-5.3c3.6-4.7,2.6,2.3,1.7,3.8C252.1,49.6,249.1,51.9,241.9,51.9"/>
	<path class="st1" d="M241.9,26.2c-6.8,0-11.8,5.2-11.8,12.4c0,7.1,4.8,12.2,11.8,12.4c6.8,0,9.7-2.1,12.4-4.7
		c0.4-0.8,0.8-2.8,0.7-3.7c-0.2,0.2-0.5,0.5-1,1.1c-4.4,5.6-10.7,5.7-11.9,5.7c-5.8-0.2-9.6-4.5-9.6-10.7c0-6.3,4-10.7,9.7-10.7
		c2.5,0,4.5,0.8,6.2,2.5c0.1,0.1,0.3,0.2,0.5,0.2c0.5,0,0.9-0.4,0.9-0.9c0-0.3-0.2-0.5-0.3-0.7C247.3,27.1,245,26.2,241.9,26.2
		 M241.9,52.8L241.9,52.8c-8-0.2-13.5-6.1-13.5-14.2c0-8.2,5.7-14.2,13.5-14.2c3.6,0,6.4,1.1,8.8,3.4c0.5,0.5,0.8,1.2,0.8,1.9
		c0,1.5-1.2,2.7-2.7,2.7c-0.7,0-1.3-0.3-1.8-0.7c-1.4-1.4-2.9-2-4.9-2c-4.7,0-7.9,3.6-7.9,8.9c0,5.3,3.1,8.8,7.9,8.9
		c1.1,0,6.6,0,10.5-5c0.6-0.7,2-2.6,3.4-1.7c1.5,1.1,0.5,5.4-0.2,6.5l-0.1,0.2C252.7,50.3,249.5,52.8,241.9,52.8"/>
	<path class="st1" d="M252.5,38.6c0-7.3,4.8-13.3,12.6-13.3c7.7,0,12.5,5.9,12.5,13.3s-4.8,13.3-12.5,13.3
		C257.3,51.9,252.5,45.9,252.5,38.6 M273.5,38.6c0-5.1-3-9.8-8.4-9.8c-5.4,0-8.5,4.6-8.5,9.8c0,5.2,3,9.8,8.5,9.8
		C270.5,48.4,273.5,43.8,273.5,38.6"/>
	<path class="st1" d="M265.1,29.7c-5.2,0-7.6,4.6-7.6,8.9c0,4.3,2.4,8.9,7.6,8.9c5.2,0,7.5-4.6,7.5-8.9
		C272.6,34.3,270.2,29.7,265.1,29.7 M265.1,49.3c-6.1,0-9.3-5.4-9.3-10.7c0-5.3,3.2-10.7,9.3-10.7c5.5,0,9.3,4.4,9.3,10.7
		C274.3,44.9,270.5,49.3,265.1,49.3 M265.1,26.2c-6.9,0-11.7,5.1-11.7,12.4c0,7.3,4.8,12.4,11.7,12.4c6.9,0,11.7-5.1,11.7-12.4
		C276.7,31.3,271.9,26.2,265.1,26.2 M265.1,52.8c-7.8,0-13.4-6-13.4-14.2c0-8.2,5.7-14.2,13.4-14.2c7.8,0,13.4,6,13.4,14.2
		C278.5,46.8,272.8,52.8,265.1,52.8"/>
	<path class="st1" d="M315,33v16.6c0,1-0.9,1.9-2,1.9c-1,0-1.9-0.9-1.9-1.9V34.1c0-3.2-1.4-5.2-4.7-5.2c-2.6,0-5.4,1.9-6.7,3.9v16.9
		c0,1-0.9,1.9-1.9,1.9c-1,0-2-0.9-2-1.9V34.1c0-3.2-1.4-5.2-4.7-5.2c-2.6,0-5.3,1.9-6.7,3.9v16.8c0,1-0.9,1.9-1.9,1.9
		c-1.1,0-2-0.9-2-1.9V27.6c0-1,0.9-1.9,1.9-1.9c1.1,0,2,0.9,2,1.9v1.9c1-1.6,4.4-4.3,8.2-4.3c3.9,0,6.1,2.1,6.8,4.7
		c1.4-2.3,4.8-4.7,8.5-4.7C312.5,25.3,315,27.9,315,33"/>
	<path class="st1" d="M282.4,26.6c-0.6,0-1.1,0.5-1.1,1.1v21.9c0,0.6,0.5,1.1,1.1,1.1c0.6,0,1.1-0.5,1.1-1.1V27.6
		C283.5,27.1,283,26.6,282.4,26.6 M291.1,27.9c3.6,0,5.6,2.2,5.6,6.1v15.5c0,0.5,0.5,1.1,1.1,1.1c0.6,0,1.1-0.5,1.1-1.1V32.4
		l0.1-0.2c0-0.1,0.1-0.1,0.1-0.2l-0.5-1.8c-0.7-2.6-2.9-4.1-6-4.1c-3.5,0-6.6,2.6-7.4,3.9l-0.8,1.3
		C285.9,29.6,288.4,27.9,291.1,27.9 M306.4,27.9c3.5,0,5.6,2.2,5.6,6.1v15.5c0,0.6,0.5,1.1,1.1,1.1c0.6,0,1.1-0.5,1.1-1.1V33
		c0-4.6-2-6.8-6.2-6.8c-3.3,0-6.5,2.2-7.7,4.3l-0.4,0.7C301.4,29.4,303.9,27.9,306.4,27.9 M313,52.4c-1.5,0-2.8-1.3-2.8-2.8V34.1
		c0-2.9-1.2-4.4-3.8-4.4c-2.3,0-4.7,1.6-5.8,3.3v16.6c0,1.5-1.3,2.8-2.8,2.8c-1.6,0-2.9-1.3-2.9-2.8V34.1c0-3.9-2.2-4.4-3.8-4.4
		c-2.2,0-4.6,1.7-5.8,3.3v16.5c0,1.5-1.3,2.8-2.8,2.8c-1.6,0-2.9-1.3-2.9-2.8V27.6c0-1.5,1.3-2.8,2.8-2.8c1.5,0,2.7,1.1,2.9,2.5
		c1.7-1.5,4.4-2.9,7.3-2.9c3.2,0,5.8,1.4,7.1,3.8c1.9-2.1,5-3.8,8.3-3.8c5.1,0,8,3,8,8.6v16.6C315.9,51.1,314.6,52.4,313,52.4"/>
	<path class="st1" d="M116.6,49V36.4H98.4V49c0,1-0.9,1.9-1.9,1.9c-1.1,0-2-0.9-2-1.9V21.3c0-1,0.8-1.9,1.9-1.9c1.1,0,2,0.9,2,1.9
		v11.7h18.2V21.3c0-1,0.8-1.9,2-1.9c1.1,0,1.9,0.9,1.9,1.9V49c0,1-0.8,1.9-2,1.9C117.5,50.9,116.6,50,116.6,49"/>
	<path class="st1" d="M97.5,35.5h20V49c0,0.6,0.5,1,1,1c0.6,0,1.1-0.5,1.1-1V21.3c0-0.6-0.5-1-1-1c-0.6,0-1.1,0.5-1.1,1v12.6h-20
		V21.3c0-0.5-0.5-1-1.1-1c-0.6,0-1,0.5-1,1V49c0,0.6,0.5,1,1.1,1c0.5,0,1-0.5,1-1V35.5z M118.6,51.8c-1.5,0-2.8-1.3-2.8-2.8V37.3
		H99.3V49c0,1.5-1.3,2.8-2.8,2.8c-1.6,0-2.9-1.3-2.9-2.8V21.3c0-1.5,1.3-2.8,2.8-2.8c1.5,0,2.9,1.3,2.9,2.8v10.8h16.4V21.3
		c0-1.5,1.3-2.8,2.9-2.8c1.5,0,2.8,1.3,2.8,2.8V49C121.4,50.5,120.1,51.8,118.6,51.8"/>
</g>
</svg>
