<?xml version="1.0" encoding="UTF-8" standalone="no"?>
<svg width="312px" height="69px" viewBox="0 0 312 69" version="1.1" xmlns="http://www.w3.org/2000/svg" xmlns:xlink="http://www.w3.org/1999/xlink">
    <!-- Generator: Sketch 46.2 (44496) - http://www.bohemiancoding.com/sketch -->
    <title>Hotels_Horizontal_Bold</title>
    <desc>Created with Sketch.</desc>
    <defs></defs>
    <g id="Page-1" stroke="none" stroke-width="1" fill="none" fill-rule="evenodd">
        <g id="Hotels_Horizontal_Bold">
            <path d="M33.33,58.83 C33.33,64.94 29.56,68.05 23.91,68.05 C18.26,68.05 14.7,64.95 14.7,58.83 L14.7,9.23 C14.7,3.12 18.44,0.01 24.08,0.01 C29.72,0.01 33.33,3.12 33.33,9.23 L33.33,24.07 L52,24.83 L52,13.45 C52,7.34 53.72,4.23 59.37,4.23 C65.02,4.23 67.19,7.34 67.19,13.45 L67.19,57.06 C67.19,63.17 65.01,66.28 59.37,66.28 C53.73,66.28 52,63.17 52,57.06 L52,44.61 L33.33,44.45 L33.33,58.83 Z" id="Shape" fill="#FFFFFF" fill-rule="nonzero"></path>
            <path d="M0,11.97 C0,9.05 2.55,6.68 6.72,5.43 C4.64,8.35 3.93,9.89 3.93,13.22 L3.93,58.22 C3.93,61.55 4.64,62.22 6.72,65.22 C2.55,63.97 7.10542736e-15,61.6 7.10542736e-15,58.68 L0,11.97 Z" id="Shape" fill="#FFFFFF" fill-rule="nonzero"></path>
            <path d="M6.72,9.62 C6.72,6.44 9.39,3.88 13.94,2.52 C11.67,5.7 10.94,7.38 10.94,11.02 L10.94,60.09 C10.94,63.73 11.66,64.49 13.94,67.68 C9.39,66.32 6.72,63.68 6.72,60.52 L6.72,9.62 Z" id="Shape" fill="#FFFFFF" fill-rule="nonzero"></path>
            <path d="M50.98,5.94 C46.89,7.17 44.11,9.82 44.32,13.62 C44.32,16.89 44.32,17.98 44.32,21.35 L47.77,21.53 L47.77,14.53 C47.77,11.26 48.93,8.79 50.98,5.93" id="Shape" fill="#FFFFFF" fill-rule="nonzero"></path>
            <path d="M44.12,8.29 C40.25,9.45 37.9,11.95 37.9,14.66 C37.9,17.75 37.9,17.85 37.9,21.04 L41.49,21.23 L41.49,15.52 C41.49,12.43 42.19,11 44.13,8.29" id="Shape" fill="#FFFFFF" fill-rule="nonzero"></path>
            <path d="M50.98,63.89 C46.89,62.67 44.11,60.01 44.32,56.21 C44.32,52.94 44.32,51.67 44.32,48.3 L48.12,48.3 L48.12,55.3 C48.0790705,58.4132742 49.1021532,61.4472434 51.02,63.9" id="Shape" fill="#FFFFFF" fill-rule="nonzero"></path>
            <path d="M44.12,61.56 C40.25,60.4 37.9,57.9 37.9,55.19 C37.9,52.1 37.9,51.52 37.9,48.33 L41.18,48.33 L41.18,54.33 C41.18,57.42 42.18,58.85 44.12,61.56" id="Shape" fill="#FFFFFF" fill-rule="nonzero"></path>
            <path d="M221.48,45.86 C223.197606,45.86 224.59,47.2523944 224.59,48.97 C224.59,50.6876056 223.197606,52.08 221.48,52.08 C219.762394,52.08 218.37,50.6876056 218.37,48.97 C218.380912,47.2569345 219.766935,45.8709116 221.48,45.86" id="Shape" fill="#FFFFFF" fill-rule="nonzero"></path>
            <path d="M221.48,45.86 C223.197606,45.86 224.59,47.2523944 224.59,48.97 C224.59,50.6876056 223.197606,52.08 221.48,52.08 C219.762394,52.08 218.37,50.6876056 218.37,48.97 C218.380912,47.2569345 219.766935,45.8709116 221.48,45.86" id="Shape" stroke="#FFFFFF" stroke-width="1.34"></path>
            <path d="M113.28,49.79 L113.28,34.64 C113.28,30.12 110.92,28.79 107.44,28.79 C104.416545,28.919513 101.606699,30.3848828 99.77,32.79 L99.77,49.79 C99.77,50.8945695 98.8745695,51.79 97.77,51.79 C96.6654305,51.79 95.77,50.8945695 95.77,49.79 L95.77,17.85 C95.77,16.7454305 96.6654305,15.85 97.77,15.85 C98.8745695,15.85 99.77,16.7454305 99.77,17.85 L99.77,29.59 C102.12648,26.9204319 105.480943,25.3427128 109.04,25.23 C114.45,25.23 117.29,27.84 117.29,33.42 L117.29,49.79 C117.29,50.8945695 116.394569,51.79 115.29,51.79 C114.185431,51.79 113.29,50.8945695 113.29,49.79" id="Shape" fill="#D42E2E" fill-rule="nonzero"></path>
            <path d="M113.28,49.79 L113.28,34.64 C113.28,30.12 110.92,28.79 107.44,28.79 C104.416545,28.919513 101.606699,30.3848828 99.77,32.79 L99.77,49.79 C99.77,50.8945695 98.8745695,51.79 97.77,51.79 C96.6654305,51.79 95.77,50.8945695 95.77,49.79 L95.77,17.85 C95.77,16.7454305 96.6654305,15.85 97.77,15.85 C98.8745695,15.85 99.77,16.7454305 99.77,17.85 L99.77,29.59 C102.12648,26.9204319 105.480943,25.3427128 109.04,25.23 C114.45,25.23 117.29,27.84 117.29,33.42 L117.29,49.79 C117.29,50.8945695 116.394569,51.79 115.29,51.79 C114.185431,51.79 113.29,50.8945695 113.29,49.79" id="Shape" stroke="#FFFFFF" stroke-width="1.34" fill="#FFFFFF"></path>
            <path d="M119.72,38.62 C119.72,31.15 124.64,25.12 132.49,25.12 C140.34,25.12 145.26,31.12 145.26,38.62 C145.26,46.12 140.35,52.17 132.49,52.17 C124.63,52.17 119.72,46.09 119.72,38.62 M141.04,38.62 C141.04,33.39 138.04,28.7 132.49,28.7 C126.94,28.7 123.89,33.39 123.89,38.62 C123.89,43.85 126.99,48.62 132.49,48.62 C137.99,48.62 141.04,43.92 141.04,38.62" id="Shape" fill="#D42E2E" fill-rule="nonzero"></path>
            <path d="M119.72,38.62 C119.72,31.15 124.64,25.12 132.49,25.12 C140.34,25.12 145.26,31.12 145.26,38.62 C145.26,46.12 140.35,52.17 132.49,52.17 C124.63,52.17 119.72,46.09 119.72,38.62 M141.04,38.62 C141.04,33.39 138.04,28.7 132.49,28.7 C126.94,28.7 123.89,33.39 123.89,38.62 C123.89,43.85 126.99,48.62 132.49,48.62 C137.99,48.62 141.04,43.92 141.04,38.62" id="Shape" stroke="#FFFFFF" stroke-width="1.34" fill="#FFFFFF"></path>
            <path d="M185.88,37.97 C185.88,31.27 181.31,25.2 173.57,25.2 C166.25,25.2 160.94,31.2 160.94,38.66 C160.932548,40.359921 161.20624,42.0493753 161.75,43.66 C160.430449,45.6216198 158.467537,47.0610884 156.2,47.73 C154.36,48.36 153.52,47.23 153.52,45.32 L153.52,29.32 L157.18,29.32 C157.838625,29.3697518 158.46966,29.0465554 158.81418,28.4830242 C159.158701,27.9194931 159.158701,27.2105069 158.81418,26.6469758 C158.46966,26.0834446 157.838625,25.7602482 157.18,25.81 L153.52,25.81 L153.52,20.57 C153.52,19.4654305 152.624569,18.57 151.52,18.57 C150.415431,18.57 149.52,19.4654305 149.52,20.57 L149.52,25.84 L146.81,25.84 C145.89202,25.9093432 145.182571,26.6744046 145.182571,27.595 C145.182571,28.5155954 145.89202,29.2806568 146.81,29.35 L149.52,29.35 L149.52,46.17 C149.52,50 151.39,52.24 155.13,51.75 C158.380157,51.2396967 161.352544,49.6174309 163.54,47.16 C166.005356,50.4184959 169.895767,52.2817198 173.98,52.16 C177.275874,52.22692 180.496172,51.1687717 183.11,49.16 C183.538377,48.8515855 183.79454,48.3578222 183.8,47.83 C183.800416,47.3905918 183.621216,46.9701055 183.303968,46.6660765 C182.986721,46.3620475 182.558993,46.2008951 182.12,46.22 C181.806507,46.2070915 181.495406,46.2796818 181.22,46.43 C179.264881,48.0063967 176.831459,48.8704379 174.32,48.88 C168.8,48.88 165.4,44.88 165.09,40 L183.51,40 C185,40 185.85,39.25 185.85,38 L185.88,37.97 Z M165.12,37.07 C165.33,33.13 168.04,28.5 173.5,28.5 C179.34,28.5 181.89,33.24 181.94,37.07 L165.12,37.07 Z" id="Shape" fill="#D42E2E" fill-rule="nonzero"></path>
            <path d="M185.88,37.97 C185.88,31.27 181.31,25.2 173.57,25.2 C166.25,25.2 160.94,31.2 160.94,38.66 C160.932548,40.359921 161.20624,42.0493753 161.75,43.66 C160.430449,45.6216198 158.467537,47.0610884 156.2,47.73 C154.36,48.36 153.52,47.23 153.52,45.32 L153.52,29.32 L157.18,29.32 C157.838625,29.3697518 158.46966,29.0465554 158.81418,28.4830242 C159.158701,27.9194931 159.158701,27.2105069 158.81418,26.6469758 C158.46966,26.0834446 157.838625,25.7602482 157.18,25.81 L153.52,25.81 L153.52,20.57 C153.52,19.4654305 152.624569,18.57 151.52,18.57 C150.415431,18.57 149.52,19.4654305 149.52,20.57 L149.52,25.84 L146.81,25.84 C145.89202,25.9093432 145.182571,26.6744046 145.182571,27.595 C145.182571,28.5155954 145.89202,29.2806568 146.81,29.35 L149.52,29.35 L149.52,46.17 C149.52,50 151.39,52.24 155.13,51.75 C158.380157,51.2396967 161.352544,49.6174309 163.54,47.16 C166.005356,50.4184959 169.895767,52.2817198 173.98,52.16 C177.275874,52.22692 180.496172,51.1687717 183.11,49.16 C183.538377,48.8515855 183.79454,48.3578222 183.8,47.83 C183.800416,47.3905918 183.621216,46.9701055 183.303968,46.6660765 C182.986721,46.3620475 182.558993,46.2008951 182.12,46.22 C181.806507,46.2070915 181.495406,46.2796818 181.22,46.43 C179.264881,48.0063967 176.831459,48.8704379 174.32,48.88 C168.8,48.88 165.4,44.88 165.09,40 L183.51,40 C185,40 185.85,39.25 185.85,38 L185.88,37.97 Z M165.12,37.07 C165.33,33.13 168.04,28.5 173.5,28.5 C179.34,28.5 181.89,33.24 181.94,37.07 L165.12,37.07 Z" id="Shape" stroke="#FFFFFF" stroke-width="1.34" fill="#FFFFFF"></path>
            <path d="M189.12,49.79 L189.12,17.85 C189.227987,16.7212893 190.176135,15.8595233 191.31,15.8595233 C192.443865,15.8595233 193.392013,16.7212893 193.5,17.85 L193.5,49.79 C193.392013,50.9187107 192.443865,51.7804767 191.31,51.7804767 C190.176135,51.7804767 189.227987,50.9187107 189.12,49.79" id="Shape" fill="#D42E2E" fill-rule="nonzero"></path>
            <path d="M189.12,49.79 L189.12,17.85 C189.227987,16.7212893 190.176135,15.8595233 191.31,15.8595233 C192.443865,15.8595233 193.392013,16.7212893 193.5,17.85 L193.5,49.79 C193.392013,50.9187107 192.443865,51.7804767 191.31,51.7804767 C190.176135,51.7804767 189.227987,50.9187107 189.12,49.79" id="Shape" stroke="#FFFFFF" stroke-width="1.34" fill="#FFFFFF"></path>
            <path d="M196.5,47.7 C196.516186,46.7308771 197.300801,45.9506945 198.27,45.94 C198.650323,45.9394777 199.022411,46.0507563 199.34,46.26 C201.408788,47.9709688 204.005405,48.9142298 206.69,48.93 C210.69,48.93 212.81,47.17 212.81,44.66 C212.81,41.83 209.64,40.92 206.16,40.07 C201.76,39.07 196.77,37.88 196.77,32.54 C196.77,28.54 200.26,25.12 206.43,25.12 C209.534407,25.041839 212.569968,26.0419135 215.02,27.95 C215.434039,28.271789 215.689163,28.7565257 215.72,29.28 C215.6936,30.217121 214.937259,30.9690651 214,30.99 C213.635474,30.9778063 213.284674,30.8480104 213,30.62 C211.139811,29.106012 208.797437,28.3110246 206.4,28.38 C202.86,28.38 200.66,29.98 200.66,32.27 C200.66,34.78 203.66,35.58 206.99,36.38 C211.5,37.38 216.7,38.68 216.7,44.38 C216.7,48.7 213.21,52.17 206.5,52.17 C203.150454,52.2900548 199.865408,51.2280785 197.22,49.17 C196.740701,48.8493883 196.457957,48.3065192 196.47,47.73" id="Shape" fill="#D42E2E" fill-rule="nonzero"></path>
            <path d="M196.5,47.7 C196.516186,46.7308771 197.300801,45.9506945 198.27,45.94 C198.650323,45.9394777 199.022411,46.0507563 199.34,46.26 C201.408788,47.9709688 204.005405,48.9142298 206.69,48.93 C210.69,48.93 212.81,47.17 212.81,44.66 C212.81,41.83 209.64,40.92 206.16,40.07 C201.76,39.07 196.77,37.88 196.77,32.54 C196.77,28.54 200.26,25.12 206.43,25.12 C209.534407,25.041839 212.569968,26.0419135 215.02,27.95 C215.434039,28.271789 215.689163,28.7565257 215.72,29.28 C215.6936,30.217121 214.937259,30.9690651 214,30.99 C213.635474,30.9778063 213.284674,30.8480104 213,30.62 C211.139811,29.106012 208.797437,28.3110246 206.4,28.38 C202.86,28.38 200.66,29.98 200.66,32.27 C200.66,34.78 203.66,35.58 206.99,36.38 C211.5,37.38 216.7,38.68 216.7,44.38 C216.7,48.7 213.21,52.17 206.5,52.17 C203.150454,52.2900548 199.865408,51.2280785 197.22,49.17 C196.740701,48.8493883 196.457957,48.3065192 196.47,47.73" id="Shape" stroke="#FFFFFF" stroke-width="1.34" fill="#FFFFFF"></path>
            <path d="M261.12,25.12 C253.33,25.12 248.46,31.12 248.46,38.62 C248.458081,40.202943 248.694049,41.7771875 249.16,43.29 C246.444143,46.7020616 242.300512,48.6630849 237.94,48.6 C232.49,48.43 229.09,44.33 229.09,38.6 C229.09,32.87 232.48,28.67 237.94,28.67 C240.054346,28.5960454 242.099475,29.4293812 243.56,30.96 C243.872594,31.2662836 244.292367,31.4384982 244.73,31.44 C245.209954,31.4427114 245.670892,31.2525619 246.009334,30.9122387 C246.347777,30.5719155 246.53537,30.1099319 246.53,29.63 C246.517017,29.1281024 246.308966,28.6510178 245.95,28.3 C243.782888,26.1296461 240.804239,24.9686626 237.74,25.1 C230.11,25.1 224.97,30.97 224.97,38.6 C224.97,46.23 230.12,51.96 237.77,52.18 C245.08,52.18 248.15,49.81 251,47.04 L251,47.04 C253.298586,50.3412541 257.098376,52.2711872 261.12,52.18 C268.91,52.18 273.78,46.1 273.78,38.63 C273.78,31.16 268.91,25.13 261.12,25.13 M261.12,48.61 C255.66,48.61 252.59,43.91 252.59,38.61 C252.59,33.31 255.66,28.68 261.12,28.68 C266.58,28.68 269.6,33.37 269.6,38.61 C269.6,43.85 266.6,48.61 261.12,48.61" id="Shape" fill="#D42E2E" fill-rule="nonzero"></path>
            <path d="M261.12,25.12 C253.33,25.12 248.46,31.12 248.46,38.62 C248.458081,40.202943 248.694049,41.7771875 249.16,43.29 C246.444143,46.7020616 242.300512,48.6630849 237.94,48.6 C232.49,48.43 229.09,44.33 229.09,38.6 C229.09,32.87 232.48,28.67 237.94,28.67 C240.054346,28.5960454 242.099475,29.4293812 243.56,30.96 C243.872594,31.2662836 244.292367,31.4384982 244.73,31.44 C245.209954,31.4427114 245.670892,31.2525619 246.009334,30.9122387 C246.347777,30.5719155 246.53537,30.1099319 246.53,29.63 C246.517017,29.1281024 246.308966,28.6510178 245.95,28.3 C243.782888,26.1296461 240.804239,24.9686626 237.74,25.1 C230.11,25.1 224.97,30.97 224.97,38.6 C224.97,46.23 230.12,51.96 237.77,52.18 C245.08,52.18 248.15,49.81 251,47.04 L251,47.04 C253.298586,50.3412541 257.098376,52.2711872 261.12,52.18 C268.91,52.18 273.78,46.1 273.78,38.63 C273.78,31.16 268.91,25.13 261.12,25.13 M261.12,48.61 C255.66,48.61 252.59,43.91 252.59,38.61 C252.59,33.31 255.66,28.68 261.12,28.68 C266.58,28.68 269.6,33.37 269.6,38.61 C269.6,43.85 266.6,48.61 261.12,48.61" id="Shape" stroke="#FFFFFF" stroke-width="1.34" fill="#FFFFFF"></path>
            <path d="M311.23,32.91 L311.23,49.78 C311.23,50.8845695 310.334569,51.78 309.23,51.78 C308.125431,51.78 307.23,50.8845695 307.23,49.78 L307.23,34.03 C307.23,30.77 305.79,28.69 302.5,28.69 C299.743969,28.8913667 297.233215,30.3476778 295.69,32.64 L295.69,49.78 C295.69,50.8845695 294.794569,51.78 293.69,51.78 C292.585431,51.78 291.69,50.8845695 291.69,49.78 L291.69,34.03 C291.69,30.77 290.31,28.69 286.96,28.69 C284.35,28.69 281.59,30.61 280.21,32.69 L280.21,49.78 C280.21,50.8845695 279.314569,51.78 278.21,51.78 C277.105431,51.78 276.21,50.8845695 276.21,49.78 L276.21,27.52 C276.21,26.4154305 277.105431,25.52 278.21,25.52 C279.314569,25.52 280.21,26.4154305 280.21,27.52 L280.21,29.52 C282.188453,26.8992942 285.229972,25.2942516 288.51,25.14 C292.44,25.14 294.68,27.27 295.42,29.94 C297.34985,27.0471434 300.554599,25.2605239 304.03,25.14 C308.71,25.14 311.21,27.76 311.21,32.93" id="Shape" fill="#D42E2E" fill-rule="nonzero"></path>
            <path d="M311.23,32.91 L311.23,49.78 C311.23,50.8845695 310.334569,51.78 309.23,51.78 C308.125431,51.78 307.23,50.8845695 307.23,49.78 L307.23,34.03 C307.23,30.77 305.79,28.69 302.5,28.69 C299.743969,28.8913667 297.233215,30.3476778 295.69,32.64 L295.69,49.78 C295.69,50.8845695 294.794569,51.78 293.69,51.78 C292.585431,51.78 291.69,50.8845695 291.69,49.78 L291.69,34.03 C291.69,30.77 290.31,28.69 286.96,28.69 C284.35,28.69 281.59,30.61 280.21,32.69 L280.21,49.78 C280.21,50.8845695 279.314569,51.78 278.21,51.78 C277.105431,51.78 276.21,50.8845695 276.21,49.78 L276.21,27.52 C276.21,26.4154305 277.105431,25.52 278.21,25.52 C279.314569,25.52 280.21,26.4154305 280.21,27.52 L280.21,29.52 C282.188453,26.8992942 285.229972,25.2942516 288.51,25.14 C292.44,25.14 294.68,27.27 295.42,29.94 C297.34985,27.0471434 300.554599,25.2605239 304.03,25.14 C308.71,25.14 311.21,27.76 311.21,32.93" id="Shape" stroke="#FFFFFF" stroke-width="1.34" fill="#FFFFFF"></path>
        </g>
    </g>
</svg>