<svg id="Layer_1" data-name="Layer 1" xmlns="http://www.w3.org/2000/svg" xmlns:xlink="http://www.w3.org/1999/xlink" viewBox="0 0 311.48 68.05"><defs><style>.cls-1{fill:none;}.cls-2{clip-path:url(#clip-path);}.cls-3{fill:#d42f2f;}.cls-4{fill:#d42e2e;}</style><clipPath id="clip-path" transform="translate(-58.09 -24.54)"><rect class="cls-1" x="58.09" y="24.54" width="311.48" height="68.05"/></clipPath></defs><title>Hotels_Horizontal_Reg</title><g class="cls-2"><path class="cls-3" d="M170.1,74.1V59.17c0-4.46-2.33-5.77-5.77-5.77a10.08,10.08,0,0,0-7.57,3.93V74.1a2,2,0,0,1-4,0V42.6a2,2,0,0,1,4,0V54.19a12.76,12.76,0,0,1,9.16-4.3c5.35,0,8.15,2.57,8.15,8.07V74.1a2,2,0,0,1-4,0" transform="translate(-58.09 -24.54)"/><path class="cls-3" d="M198.08,63.15c0-5.14-3-9.75-8.47-9.75s-8.52,4.61-8.52,9.75,3.07,9.8,8.52,9.8,8.47-4.61,8.47-9.8m-21.12,0c0-7.34,4.87-13.26,12.65-13.26s12.65,5.92,12.65,13.26-4.87,13.31-12.65,13.31S177,70.49,177,63.15" transform="translate(-58.09 -24.54)"/><path class="cls-3" d="M222.51,61.58c.21-3.88,2.91-8.44,8.36-8.44,5.82,0,8.36,4.66,8.41,8.44Zm20.7.89c0-6.6-4.55-12.58-12.28-12.58-7.3,0-12.6,5.92-12.6,13.26a15,15,0,0,0,.8,4.92,10.13,10.13,0,0,1-5.53,4c-1.84.63-2.67-.49-2.67-2.37V54h3.65a1.73,1.73,0,1,0,0-3.46h-3.65V45.33a2,2,0,0,0-4,0v5.19h-2.7a1.73,1.73,0,1,0,0,3.46H207V70.54c0,3.77,1.87,6,5.6,5.5a14.2,14.2,0,0,0,8.39-4.52,12.64,12.64,0,0,0,10.41,4.94,14.57,14.57,0,0,0,9.1-3,1.63,1.63,0,0,0,.69-1.31,1.6,1.6,0,0,0-1.64-1.57,1.74,1.74,0,0,0-.9.21,11.11,11.11,0,0,1-6.88,2.41c-5.51,0-8.89-4-9.21-8.75h18.37c1.48,0,2.33-.73,2.33-2" transform="translate(-58.09 -24.54)"/><path class="cls-3" d="M246.94,74.1V42.6a2,2,0,0,1,4,0V74.1a2,2,0,0,1-4,0" transform="translate(-58.09 -24.54)"/><path class="cls-3" d="M254.36,72.06a1.76,1.76,0,0,1,1.75-1.73,1.93,1.93,0,0,1,1.06.32,11.51,11.51,0,0,0,7.25,2.62c3.92,0,6-1.73,6-4.19,0-2.78-3.12-3.67-6.56-4.51-4.34-1-9.26-2.15-9.26-7.39,0-3.93,3.44-7.28,9.53-7.28a13.28,13.28,0,0,1,8.47,2.78,1.79,1.79,0,0,1,.69,1.31,1.73,1.73,0,0,1-1.69,1.68,1.67,1.67,0,0,1-1-.37,9.92,9.92,0,0,0-6.51-2.2c-3.49,0-5.66,1.57-5.66,3.82,0,2.47,2.91,3.25,6.24,4,4.45,1,9.58,2.25,9.58,7.86,0,4.25-3.44,7.65-10.06,7.65a14.13,14.13,0,0,1-9.16-3,1.66,1.66,0,0,1-.74-1.41" transform="translate(-58.09 -24.54)"/><path class="cls-3" d="M279.32,70.59a2.88,2.88,0,1,1-2.91,2.88,2.92,2.92,0,0,1,2.91-2.88" transform="translate(-58.09 -24.54)"/><path class="cls-3" d="M319.21,73c-5.45,0-8.52-4.61-8.52-9.8s3.07-9.75,8.52-9.75,8.47,4.61,8.47,9.75-3,9.8-8.47,9.8m0-23.06c-7.78,0-12.65,5.92-12.65,13.26a15.27,15.27,0,0,0,.7,4.59A14.18,14.18,0,0,1,296.05,73c-5.45-.17-8.84-4.19-8.84-9.8s3.39-9.75,8.84-9.75a7.46,7.46,0,0,1,5.61,2.25,1.7,1.7,0,0,0,1.16.47,1.77,1.77,0,0,0,1.8-1.78A1.88,1.88,0,0,0,304,53a11,11,0,0,0-8.2-3.15c-7.62,0-12.76,5.77-12.76,13.26s5.14,13.1,12.76,13.31c7.3,0,10.36-2.33,13.21-5h0a12,12,0,0,0,10.15,5.05c7.78,0,12.65-6,12.65-13.31S327,49.89,319.21,49.89" transform="translate(-58.09 -24.54)"/><path class="cls-3" d="M369.58,57.54V74.11a2,2,0,0,1-2,1.94,2,2,0,0,1-2-1.94V58.64c0-3.2-1.43-5.24-4.71-5.24a9,9,0,0,0-6.77,3.88V74.11a2,2,0,0,1-2,1.94,2,2,0,0,1-2-1.94V58.64c0-3.2-1.38-5.24-4.71-5.24a8.94,8.94,0,0,0-6.72,3.93V74.11a2,2,0,0,1-4,0V52.25a2,2,0,0,1,4,0v1.94a11,11,0,0,1,8.26-4.3c3.92,0,6.14,2.09,6.88,4.72a10.79,10.79,0,0,1,8.57-4.72c4.66,0,7.15,2.57,7.15,7.65" transform="translate(-58.09 -24.54)"/><path class="cls-4" d="M91.27,83.23c0,6.38-3.83,9.36-9.36,9.36s-9.36-3-9.36-9.36V33.89c0-6.38,3.83-9.36,9.36-9.36s9.36,3,9.36,9.36V48.78l18.71.85V38.15c0-6.38,1.7-9.36,7.23-9.36s7.66,3,7.66,9.36V82c0,6-2.13,9.36-7.66,9.36S110,88.33,110,82V69.62H91.27Z" transform="translate(-58.09 -24.54)"/><path class="cls-4" d="M102.75,36c0-3,.42-3.83,4.68-5.1-.85,2.13-.85,3-.85,6V45h-3.83Z" transform="translate(-58.09 -24.54)"/><path class="cls-4" d="M102.75,73h3.83V81.1c0,3,0,3.83.85,6-3.83-1.28-4.68-2.13-4.68-5.1Z" transform="translate(-58.09 -24.54)"/><path class="cls-4" d="M65.75,32.62c0-2.55.42-3.83,4.25-5.1-.85,2.55-.85,3-.85,6.38V83.65c0,3,0,3.83.85,6-3.83-1.28-4.68-2.13-4.68-5.1Z" transform="translate(-58.09 -24.54)"/><path class="cls-4" d="M58.52,36.66c0-3,.42-3.83,4.68-5.1-1.28,2.13-1.28,3-1.28,6V79.61c0,3,0,3.83.85,6-3.83-1.28-4.68-2.13-4.68-5.1Z" transform="translate(-58.09 -24.54)"/><path class="cls-4" d="M95.52,73h3.83v5.53c0,3,0,3.83.85,6-3.83-1.28-4.68-2.13-4.68-5.1Z" transform="translate(-58.09 -24.54)"/><path class="cls-4" d="M95.52,38.57c0-3,.85-3.83,4.68-5.1-.85,2.13-.85,3-.85,6V45H95.52Z" transform="translate(-58.09 -24.54)"/></g></svg>