<?xml version="1.0" encoding="UTF-8" standalone="no"?>
<svg width="312px" height="69px" viewBox="0 0 312 69" version="1.1" xmlns="http://www.w3.org/2000/svg" xmlns:xlink="http://www.w3.org/1999/xlink">
    <!-- Generator: Sketch 46.2 (44496) - http://www.bohemiancoding.com/sketch -->
    <title>Hotels_Horizontal_Reg</title>
    <desc>Created with Sketch.</desc>
    <defs></defs>
    <g id="Page-1" stroke="none" stroke-width="1" fill="none" fill-rule="evenodd">
        <g id="Hotels_Horizontal_Reg" transform="translate(0.000000, -1.000000)" fill-rule="nonzero" fill="#FFFFFF">
            <path d="M112.01,50.56 L112.01,35.63 C112.01,31.17 109.68,29.86 106.24,29.86 C103.259441,29.9852829 100.48747,31.4243646 98.67,33.79 L98.67,50.56 C98.67,51.6645695 97.7745695,52.56 96.67,52.56 C95.5654305,52.56 94.67,51.6645695 94.67,50.56 L94.67,19.06 C94.67,17.9554305 95.5654305,17.06 96.67,17.06 C97.7745695,17.06 98.67,17.9554305 98.67,19.06 L98.67,30.65 C101.000213,28.0154883 104.314531,26.4596405 107.83,26.35 C113.18,26.35 115.98,28.92 115.98,34.42 L115.98,50.56 C115.98,51.6645695 115.084569,52.56 113.98,52.56 C112.875431,52.56 111.98,51.6645695 111.98,50.56" id="Shape"></path>
            <path d="M139.99,39.61 C139.99,34.47 136.99,29.86 131.52,29.86 C126.05,29.86 123,34.47 123,39.61 C123,44.75 126.07,49.41 131.52,49.41 C136.97,49.41 139.99,44.8 139.99,39.61 M118.87,39.61 C118.87,32.27 123.74,26.35 131.52,26.35 C139.3,26.35 144.17,32.27 144.17,39.61 C144.17,46.95 139.3,52.92 131.52,52.92 C123.74,52.92 118.91,46.95 118.91,39.61" id="Shape"></path>
            <path d="M164.42,38.04 C164.63,34.16 167.33,29.6 172.78,29.6 C178.6,29.6 181.14,34.26 181.19,38.04 L164.42,38.04 Z M185.12,38.93 C185.12,32.33 180.57,26.35 172.84,26.35 C165.54,26.35 160.24,32.27 160.24,39.61 C160.230401,41.2831399 160.5008,42.9460957 161.04,44.53 C159.714843,46.4628547 157.760525,47.8764667 155.51,48.53 C153.67,49.16 152.84,48.04 152.84,46.16 L152.84,30.46 L156.49,30.46 C157.445453,30.46 158.22,29.6854526 158.22,28.73 C158.22,27.7745474 157.445453,27 156.49,27 L152.84,27 L152.84,21.79 C152.84,20.6854305 151.944569,19.79 150.84,19.79 C149.735431,19.79 148.84,20.6854305 148.84,21.79 L148.84,26.98 L146.14,26.98 C145.184547,26.98 144.41,27.7545474 144.41,28.71 C144.41,29.6654526 145.184547,30.44 146.14,30.44 L148.91,30.44 L148.91,47 C148.91,50.77 150.78,53 154.51,52.5 C157.743848,52.0048057 160.707516,50.4081689 162.9,47.98 C165.373999,51.2045155 169.247598,53.0427074 173.31,52.92 C176.594806,52.9745373 179.801637,51.9173403 182.41,49.92 C182.836495,49.6190111 183.093033,49.1319617 183.1,48.61 C183.092144,48.1838577 182.914586,47.7784625 182.606708,47.4837254 C182.29883,47.1889883 181.88608,47.0292722 181.46,47.04 C181.146555,47.0275934 180.835586,47.1001529 180.56,47.25 C178.602998,48.8042753 176.179117,49.6533382 173.68,49.66 C168.17,49.66 164.79,45.66 164.47,40.91 L182.84,40.91 C184.32,40.91 185.17,40.18 185.17,38.91 L185.12,38.93 Z" id="Shape"></path>
            <path d="M188.85,50.56 L188.85,19.06 C188.85,17.9554305 189.745431,17.06 190.85,17.06 C191.954569,17.06 192.85,17.9554305 192.85,19.06 L192.85,50.56 C192.85,51.6645695 191.954569,52.56 190.85,52.56 C189.745431,52.56 188.85,51.6645695 188.85,50.56" id="Shape"></path>
            <path d="M196.27,48.52 C196.28629,47.5635929 197.063469,46.7952962 198.02,46.79 C198.397004,46.7908474 198.765505,46.902093 199.08,47.11 C201.123672,48.7907172 203.684021,49.7159744 206.33,49.73 C210.25,49.73 212.33,48 212.33,45.54 C212.33,42.76 209.21,41.87 205.77,41.03 C201.43,40.03 196.51,38.88 196.51,33.64 C196.51,29.71 199.95,26.36 206.04,26.36 C209.099313,26.283061 212.091318,27.2650884 214.51,29.14 C214.91828,29.4566223 215.169837,29.9342164 215.2,30.45 C215.173621,31.3705568 214.430697,32.1090846 213.51,32.13 C213.145191,32.1192516 212.793948,31.9892914 212.51,31.76 C210.671408,30.2744927 208.362803,29.4943189 206,29.56 C202.51,29.56 200.34,31.13 200.34,33.38 C200.34,35.85 203.25,36.63 206.58,37.38 C211.03,38.38 216.16,39.63 216.16,45.24 C216.16,49.49 212.72,52.89 206.1,52.89 C202.789424,52.99451 199.547343,51.932693 196.94,49.89 C196.469291,49.5767057 196.190427,49.0453571 196.2,48.48" id="Shape"></path>
            <path d="M221.23,47.05 C222.81657,47.0665277 224.090921,48.3631741 224.079931,49.9497919 C224.068941,51.5364096 222.77675,52.8152787 221.190104,52.8098267 C219.603458,52.8043748 218.320086,51.5166558 218.32,49.93 C218.341817,48.3368573 219.636717,47.0553071 221.23,47.05" id="Shape"></path>
            <path d="M261.12,49.46 C255.67,49.46 252.6,44.85 252.6,39.66 C252.6,34.47 255.67,29.91 261.12,29.91 C266.57,29.91 269.59,34.52 269.59,39.66 C269.59,44.8 266.59,49.46 261.12,49.46 M261.12,26.4 C253.34,26.4 248.47,32.32 248.47,39.66 C248.468,41.2167369 248.704061,42.7646263 249.17,44.25 C246.426808,47.6097254 242.296827,49.52919 237.96,49.46 C232.51,49.29 229.12,45.27 229.12,39.66 C229.12,34.05 232.51,29.91 237.96,29.91 C240.063694,29.8349047 242.101202,30.652087 243.57,32.16 C243.882826,32.458484 244.297633,32.6265522 244.73,32.63 C245.206349,32.6380829 245.665843,32.4537968 246.004597,32.1188062 C246.343352,31.7838156 246.53276,31.3264091 246.53,30.85 C246.52851,30.319985 246.303364,29.8152221 245.91,29.46 C243.732706,27.3168322 240.762171,26.1757121 237.71,26.31 C230.09,26.31 224.95,32.08 224.95,39.57 C224.95,47.06 230.09,52.67 237.71,52.88 C245.01,52.88 248.07,50.55 250.92,47.88 L250.92,47.88 C253.244773,51.1561519 257.054664,53.0517134 261.07,52.93 C268.85,52.93 273.72,46.93 273.72,39.62 C273.72,32.31 268.91,26.35 261.12,26.35" id="Shape"></path>
            <path d="M311.49,34 L311.49,50.57 C311.457553,51.6510694 310.571556,52.5104868 309.49,52.51 C308.408444,52.5104868 307.522447,51.6510694 307.49,50.57 L307.49,35.1 C307.49,31.9 306.06,29.86 302.78,29.86 C300.050852,30.0569562 297.559522,31.484779 296.01,33.74 L296.01,50.57 C295.977553,51.6510694 295.091556,52.5104868 294.01,52.51 C292.928444,52.5104868 292.042447,51.6510694 292.01,50.57 L292.01,35.1 C292.01,31.9 290.63,29.86 287.3,29.86 C284.577289,30.0747486 282.102097,31.5222938 280.58,33.79 L280.58,50.57 C280.58,51.6745695 279.684569,52.57 278.58,52.57 C277.475431,52.57 276.58,51.6745695 276.58,50.57 L276.58,28.71 C276.58,27.6054305 277.475431,26.71 278.58,26.71 C279.684569,26.71 280.58,27.6054305 280.58,28.71 L280.58,30.65 C282.560913,28.0644395 285.585831,26.4897241 288.84,26.35 C292.76,26.35 294.98,28.44 295.72,31.07 C297.658217,28.2175116 300.843186,26.4633628 304.29,26.35 C308.95,26.35 311.44,28.92 311.44,34" id="Shape"></path>
            <path d="M33.18,59.69 C33.18,66.07 29.35,69.05 23.82,69.05 C18.29,69.05 14.46,66.05 14.46,59.69 L14.46,10.35 C14.46,3.97 18.29,0.99 23.82,0.99 C29.35,0.99 33.18,3.99 33.18,10.35 L33.18,25.24 L51.89,26.09 L51.89,14.61 C51.89,8.23 53.59,5.25 59.12,5.25 C64.65,5.25 66.78,8.25 66.78,14.61 L66.78,58.46 C66.78,64.46 64.65,67.82 59.12,67.82 C53.59,67.82 51.91,64.79 51.91,58.46 L51.91,46.08 L33.18,46.08 L33.18,59.69 Z" id="Shape"></path>
            <path d="M44.66,12.46 C44.66,9.46 45.08,8.63 49.34,7.36 C48.49,9.49 48.49,10.36 48.49,13.36 L48.49,21.46 L44.66,21.46 L44.66,12.46 Z" id="Shape"></path>
            <path d="M44.66,49.46 L48.49,49.46 L48.49,57.56 C48.49,60.56 48.49,61.39 49.34,63.56 C45.51,62.28 44.66,61.43 44.66,58.46 L44.66,49.46 Z" id="Shape"></path>
            <path d="M7.66,9.08 C7.66,6.53 8.08,5.25 11.91,3.98 C11.06,6.53 11.06,6.98 11.06,10.36 L11.06,60.11 C11.06,63.11 11.06,63.94 11.91,66.11 C8.08,64.83 7.23,63.98 7.23,61.01 L7.66,9.08 Z" id="Shape"></path>
            <path d="M0.43,13.12 C0.43,10.12 0.85,9.29 5.11,8.02 C3.83,10.15 3.83,11.02 3.83,14.02 L3.83,56.07 C3.83,59.07 3.83,59.9 4.68,62.07 C0.85,60.79 0,59.94 0,56.97 L0.43,13.12 Z" id="Shape"></path>
            <path d="M37.43,49.46 L41.26,49.46 L41.26,54.99 C41.26,57.99 41.26,58.82 42.11,60.99 C38.28,59.71 37.43,58.86 37.43,55.89 L37.43,49.46 Z" id="Shape"></path>
            <path d="M37.43,15.03 C37.43,12.03 38.28,11.2 42.11,9.93 C41.26,12.06 41.26,12.93 41.26,15.93 L41.26,21.46 L37.43,21.46 L37.43,15.03 Z" id="Shape"></path>
        </g>
    </g>
</svg>