<svg id="Layer_1" data-name="Layer 1" xmlns="http://www.w3.org/2000/svg" xmlns:xlink="http://www.w3.org/1999/xlink" viewBox="0 0 311.9 68.05"><defs><style>.cls-1,.cls-5{fill:none;}.cls-2{clip-path:url(#clip-path);}.cls-3{fill:#d42f2f;}.cls-4{fill:#d42e2e;}.cls-5{stroke:#d42e2e;stroke-miterlimit:10;stroke-width:1.34px;}</style><clipPath id="clip-path" transform="translate(-57.88 -24.55)"><rect class="cls-1" x="57.88" y="24.55" width="311.9" height="68.05"/></clipPath></defs><title>Hotels_Horizontal_Bold</title><g class="cls-2"><path class="cls-3" d="M91.21,83.38c0,6.11-3.77,9.22-9.42,9.22s-9.21-3.1-9.21-9.22V33.78c0-6.11,3.74-9.22,9.38-9.22s9.25,3.11,9.25,9.22V48.62l18.67.76V38c0-6.11,1.72-9.22,7.37-9.22s7.82,3.11,7.82,9.22V81.61c0,6.11-2.18,9.22-7.82,9.22s-7.37-3.11-7.37-9.22V69.16L91.21,69Z" transform="translate(-57.88 -24.55)"/><path class="cls-3" d="M57.88,36.52c0-2.92,2.55-5.29,6.72-6.54-2.08,2.92-2.79,4.46-2.79,7.79v45c0,3.33.71,4,2.79,7-4.17-1.25-6.72-3.62-6.72-6.54Z" transform="translate(-57.88 -24.55)"/><path class="cls-3" d="M64.6,34.17c0-3.18,2.67-5.74,7.22-7.1-2.27,3.18-3,4.86-3,8.5V84.64c0,3.64.72,4.4,3,7.59-4.55-1.36-7.22-4-7.22-7.16Z" transform="translate(-57.88 -24.55)"/><path class="cls-3" d="M108.86,30.49c-4.09,1.23-6.87,3.88-6.66,7.68,0,3.27,0,4.36,0,7.73l3.45.18v-7c0-3.27,1.16-5.74,3.21-8.6" transform="translate(-57.88 -24.55)"/><path class="cls-3" d="M102,32.84c-3.87,1.16-6.22,3.66-6.22,6.37,0,3.09,0,3.19,0,6.38l3.59.19V40.07c0-3.09.7-4.52,2.64-7.23" transform="translate(-57.88 -24.55)"/><path class="cls-3" d="M108.86,88.44c-4.09-1.22-6.87-3.88-6.66-7.68,0-3.27,0-4.54,0-7.91H106v7a13.67,13.67,0,0,0,2.9,8.6" transform="translate(-57.88 -24.55)"/><path class="cls-3" d="M102,86.11c-3.87-1.16-6.22-3.66-6.22-6.37,0-3.09,0-3.67,0-6.86h3.28v6c0,3.09,1,4.52,2.94,7.23" transform="translate(-57.88 -24.55)"/><path class="cls-4" d="M279.36,70.41a3.11,3.11,0,1,1-3.11,3.11,3.13,3.13,0,0,1,3.11-3.11" transform="translate(-57.88 -24.55)"/><path class="cls-5" d="M279.36,70.41a3.11,3.11,0,1,1-3.11,3.11,3.13,3.13,0,0,1,3.11-3.11" transform="translate(-57.88 -24.55)"/><path class="cls-4" d="M171.16,74.34V59.19c0-4.52-2.36-5.85-5.84-5.85a10.2,10.2,0,0,0-7.67,4v17a2,2,0,0,1-4,0V42.4a2,2,0,0,1,4,0V54.14a12.91,12.91,0,0,1,9.27-4.36c5.41,0,8.25,2.61,8.25,8.19V74.34a2,2,0,0,1-4,0" transform="translate(-57.88 -24.55)"/><path class="cls-5" d="M171.16,74.34V59.19c0-4.52-2.36-5.85-5.84-5.85a10.2,10.2,0,0,0-7.67,4v17a2,2,0,0,1-4,0V42.4a2,2,0,0,1,4,0V54.14a12.91,12.91,0,0,1,9.27-4.36c5.41,0,8.25,2.61,8.25,8.19V74.34a2,2,0,0,1-4,0" transform="translate(-57.88 -24.55)"/><path class="cls-4" d="M177.6,63.17c0-7.47,4.92-13.5,12.77-13.5s12.77,6,12.77,13.5-4.91,13.55-12.77,13.55S177.6,70.64,177.6,63.17m21.32,0c0-5.23-3-9.92-8.55-9.92s-8.6,4.69-8.6,9.92,3.1,10,8.6,10,8.55-4.7,8.55-10" transform="translate(-57.88 -24.55)"/><path class="cls-5" d="M177.6,63.17c0-7.47,4.92-13.5,12.77-13.5s12.77,6,12.77,13.5-4.91,13.55-12.77,13.55S177.6,70.64,177.6,63.17m21.32,0c0-5.23-3-9.92-8.55-9.92s-8.6,4.69-8.6,9.92,3.1,10,8.6,10,8.55-4.7,8.55-10" transform="translate(-57.88 -24.55)"/><path class="cls-4" d="M243.76,62.52c0-6.7-4.57-12.77-12.31-12.77-7.32,0-12.63,6-12.63,13.46a15.42,15.42,0,0,0,.81,5,10.15,10.15,0,0,1-5.55,4.07c-1.84.63-2.68-.5-2.68-2.41v-16h3.66a1.76,1.76,0,1,0,0-3.51h-3.66V45.12a2,2,0,0,0-4,0v5.27h-2.71a1.76,1.76,0,0,0,0,3.51h2.71V70.72c0,3.83,1.87,6.07,5.61,5.58a14.21,14.21,0,0,0,8.41-4.59,12.62,12.62,0,0,0,10.44,5,14.5,14.5,0,0,0,9.13-3,1.66,1.66,0,0,0,.69-1.33A1.61,1.61,0,0,0,240,70.77a1.73,1.73,0,0,0-.9.21,11.06,11.06,0,0,1-6.9,2.45c-5.52,0-8.92-4-9.23-8.88h18.42c1.49,0,2.34-.75,2.34-2M223,61.62c.21-3.94,2.92-8.57,8.38-8.57,5.84,0,8.39,4.74,8.44,8.57Z" transform="translate(-57.88 -24.55)"/><path class="cls-5" d="M243.76,62.52c0-6.7-4.57-12.77-12.31-12.77-7.32,0-12.63,6-12.63,13.46a15.42,15.42,0,0,0,.81,5,10.15,10.15,0,0,1-5.55,4.07c-1.84.63-2.68-.5-2.68-2.41v-16h3.66a1.76,1.76,0,1,0,0-3.51h-3.66V45.12a2,2,0,0,0-4,0v5.27h-2.71a1.76,1.76,0,0,0,0,3.51h2.71V70.72c0,3.83,1.87,6.07,5.61,5.58a14.21,14.21,0,0,0,8.41-4.59,12.62,12.62,0,0,0,10.44,5,14.5,14.5,0,0,0,9.13-3,1.66,1.66,0,0,0,.69-1.33A1.61,1.61,0,0,0,240,70.77a1.73,1.73,0,0,0-.9.21,11.06,11.06,0,0,1-6.9,2.45c-5.52,0-8.92-4-9.23-8.88h18.42c1.49,0,2.34-.75,2.34-2M223,61.62c.21-3.94,2.92-8.57,8.38-8.57,5.84,0,8.39,4.74,8.44,8.57Z" transform="translate(-57.88 -24.55)"/><path class="cls-4" d="M247,74.34V42.4a2.2,2.2,0,0,1,4.38,0V74.34a2.2,2.2,0,0,1-4.38,0" transform="translate(-57.88 -24.55)"/><path class="cls-5" d="M247,74.34V42.4a2.2,2.2,0,0,1,4.38,0V74.34a2.2,2.2,0,0,1-4.38,0" transform="translate(-57.88 -24.55)"/><path class="cls-4" d="M254.38,72.25a1.79,1.79,0,0,1,1.77-1.76,1.94,1.94,0,0,1,1.07.32,11.64,11.64,0,0,0,7.35,2.67c4,0,6.12-1.76,6.12-4.27,0-2.83-3.17-3.74-6.65-4.59-4.4-1-9.39-2.19-9.39-7.53,0-4,3.49-7.42,9.66-7.42a13.43,13.43,0,0,1,8.59,2.83,1.82,1.82,0,0,1,.7,1.33,1.76,1.76,0,0,1-1.72,1.71,1.69,1.69,0,0,1-1-.37,10,10,0,0,0-6.6-2.24c-3.54,0-5.74,1.6-5.74,3.89,0,2.51,3,3.31,6.33,4.11,4.51,1,9.71,2.3,9.71,8,0,4.32-3.49,7.79-10.2,7.79a14.28,14.28,0,0,1-9.28-3,1.69,1.69,0,0,1-.75-1.44" transform="translate(-57.88 -24.55)"/><path class="cls-5" d="M254.38,72.25a1.79,1.79,0,0,1,1.77-1.76,1.94,1.94,0,0,1,1.07.32,11.64,11.64,0,0,0,7.35,2.67c4,0,6.12-1.76,6.12-4.27,0-2.83-3.17-3.74-6.65-4.59-4.4-1-9.39-2.19-9.39-7.53,0-4,3.49-7.42,9.66-7.42a13.43,13.43,0,0,1,8.59,2.83,1.82,1.82,0,0,1,.7,1.33,1.76,1.76,0,0,1-1.72,1.71,1.69,1.69,0,0,1-1-.37,10,10,0,0,0-6.6-2.24c-3.54,0-5.74,1.6-5.74,3.89,0,2.51,3,3.31,6.33,4.11,4.51,1,9.71,2.3,9.71,8,0,4.32-3.49,7.79-10.2,7.79a14.28,14.28,0,0,1-9.28-3,1.69,1.69,0,0,1-.75-1.44" transform="translate(-57.88 -24.55)"/><path class="cls-4" d="M319,49.67c-7.79,0-12.66,6-12.66,13.5a15.8,15.8,0,0,0,.7,4.67,14.08,14.08,0,0,1-11.22,5.31c-5.45-.17-8.85-4.27-8.85-10s3.39-9.93,8.85-9.93a7.41,7.41,0,0,1,5.62,2.29,1.68,1.68,0,0,0,1.17.48,1.79,1.79,0,0,0,1.8-1.81,1.93,1.93,0,0,0-.58-1.33,10.94,10.94,0,0,0-8.21-3.2c-7.63,0-12.77,5.87-12.77,13.5S288,76.51,295.65,76.73c7.31,0,10.38-2.37,13.23-5.14h0A12,12,0,0,0,319,76.73c7.79,0,12.66-6.08,12.66-13.55s-4.87-13.5-12.66-13.5m0,23.48c-5.46,0-8.53-4.7-8.53-10s3.07-9.93,8.53-9.93,8.48,4.69,8.48,9.93-3,10-8.48,10" transform="translate(-57.88 -24.55)"/><path class="cls-5" d="M319,49.67c-7.79,0-12.66,6-12.66,13.5a15.8,15.8,0,0,0,.7,4.67,14.08,14.08,0,0,1-11.22,5.31c-5.45-.17-8.85-4.27-8.85-10s3.39-9.93,8.85-9.93a7.41,7.41,0,0,1,5.62,2.29,1.68,1.68,0,0,0,1.17.48,1.79,1.79,0,0,0,1.8-1.81,1.93,1.93,0,0,0-.58-1.33,10.94,10.94,0,0,0-8.21-3.2c-7.63,0-12.77,5.87-12.77,13.5S288,76.51,295.65,76.73c7.31,0,10.38-2.37,13.23-5.14h0A12,12,0,0,0,319,76.73c7.79,0,12.66-6.08,12.66-13.55s-4.87-13.5-12.66-13.5m0,23.48c-5.46,0-8.53-4.7-8.53-10s3.07-9.93,8.53-9.93,8.48,4.69,8.48,9.93-3,10-8.48,10" transform="translate(-57.88 -24.55)"/><path class="cls-4" d="M369.11,57.46V74.33a2,2,0,0,1-2,2,2,2,0,0,1-2-2V58.58c0-3.26-1.44-5.34-4.73-5.34a9,9,0,0,0-6.81,3.95V74.33a2,2,0,0,1-2,2,2,2,0,0,1-2-2V58.58c0-3.26-1.38-5.34-4.73-5.34-2.61,0-5.37,1.92-6.75,4V74.33a2,2,0,0,1-4,0V52.07a2,2,0,0,1,4,0v2a11.05,11.05,0,0,1,8.3-4.38c3.93,0,6.17,2.13,6.91,4.8a10.8,10.8,0,0,1,8.61-4.8c4.68,0,7.18,2.62,7.18,7.79" transform="translate(-57.88 -24.55)"/><path class="cls-5" d="M369.11,57.46V74.33a2,2,0,0,1-2,2,2,2,0,0,1-2-2V58.58c0-3.26-1.44-5.34-4.73-5.34a9,9,0,0,0-6.81,3.95V74.33a2,2,0,0,1-2,2,2,2,0,0,1-2-2V58.58c0-3.26-1.38-5.34-4.73-5.34-2.61,0-5.37,1.92-6.75,4V74.33a2,2,0,0,1-4,0V52.07a2,2,0,0,1,4,0v2a11.05,11.05,0,0,1,8.3-4.38c3.93,0,6.17,2.13,6.91,4.8a10.8,10.8,0,0,1,8.61-4.8c4.68,0,7.18,2.62,7.18,7.79" transform="translate(-57.88 -24.55)"/></g></svg>