<?xml version="1.0" encoding="UTF-8" standalone="no"?>
<svg width="60px" height="60px" viewBox="0 0 60 60" version="1.1" xmlns="http://www.w3.org/2000/svg" xmlns:xlink="http://www.w3.org/1999/xlink">
    <!-- Generator: Sketch 42 (36781) - http://www.bohemiancoding.com/sketch -->
    <title>MOON_[white]</title>
    <desc>Created with Sketch.</desc>
    <defs></defs>
    <g id="Home-page" stroke="none" stroke-width="1" fill="none" fill-rule="evenodd">
        <g id="MOON_[white]" fill="#FFFFFF">
            <path d="M54.4791768,35.7863304 C54.2342142,35.7863304 53.9809196,35.7546633 53.6967963,35.7454965 C52.6594548,35.7279962 51.6404438,35.6288282 50.6414298,35.4938263 C37.0151782,33.7804692 26.2076627,22.9978194 24.486259,9.35179655 C24.3529461,8.34928263 24.2812904,7.33593522 24.2621266,6.29592078 C24.259627,6.04675065 24.227132,5.77174683 24.227132,5.51924332 C24.227132,3.63588383 24.3912736,1.78669148 24.7395537,0 C20.0611018,0.850011806 15.7775895,2.82337255 12.1248143,5.53757691 C4.75760648,11.0834873 0,19.8311088 0,29.7345796 C0,46.4281448 13.551263,60 30.2503784,60 C40.1530322,60 48.9416895,55.225767 54.4500146,47.878165 C57.2079266,44.2189475 59.1434642,39.9180544 60,35.2446562 C58.2344364,35.5904943 56.3788866,35.7863304 54.4791768,35.7863304 L54.4791768,35.7863304 Z M30.2503784,53.9357491 C16.8882532,53.9357491 6.05157545,43.0964319 6.05157545,29.7345796 C6.05157545,28.7612328 6.11906514,27.8587203 6.23988002,26.9237073 C7.73548486,41.0455701 18.9421061,52.2373922 33.063282,53.7607467 C32.1517546,53.8574147 31.2143978,53.9357491 30.2503784,53.9357491 L30.2503784,53.9357491 Z" id="Shape"></path>
        </g>
    </g>
</svg>