<?xml version="1.0" encoding="UTF-8" standalone="no"?>
<svg width="21px" height="21px" viewBox="0 0 21 21" version="1.1" xmlns="http://www.w3.org/2000/svg" xmlns:xlink="http://www.w3.org/1999/xlink" xmlns:sketch="http://www.bohemiancoding.com/sketch/ns">
    <!-- Generator: Sketch 3.4.4 (17249) - http://www.bohemiancoding.com/sketch -->
    <title>landmarks</title>
    <desc>Created with Sketch.</desc>
    <defs></defs>
    <g id="Page-1" stroke="none" stroke-width="1" fill="none" fill-rule="evenodd" sketch:type="MSPage">
        <g id="landmarks" sketch:type="MSArtboardGroup" fill="#333333">
            <path d="M11.1433026,4.27010713 C10.7799588,3.90996429 10.1888334,3.90996429 9.8254896,4.27010713 L4.27204677,8.40809358 C4.10420775,8.57445398 4,8.80571322 4,9.06073823 L4,9.1274652 C4,9.63751522 4.41775317,10.0515881 4.93141436,10.0515881 L16.0383,10.0515881 C16.5519612,10.0515881 16.9687922,9.63751522 16.9687922,9.1274652 L16.9687922,9.06073823 C16.9687922,8.82399458 16.8784173,8.58725093 16.6967454,8.40809358 L11.1433026,4.27010713 Z" id="Fill-1" sketch:type="MSShapeGroup"></path>
            <path d="M10.6019619,15.6904892 C11.1107201,15.6904892 11.5248014,15.416365 11.5248014,15.0780253 L11.5248014,14.5484201 L11.5248014,7.1191075 L11.5248014,6.59019279 C11.5248014,6.2518531 11.1107201,5.97703841 10.6019619,5.97703841 L10.3678707,5.97703841 C9.85807212,5.97703841 9.44399082,6.2518531 9.44399082,6.59019279 L9.44399082,7.11289309 L9.44399082,14.5546345 L9.44399082,15.0628345 C9.44399082,15.416365 9.85807212,15.6904892 10.3678707,15.6904892 L10.6019619,15.6904892 Z" id="Fill-4" sketch:type="MSShapeGroup"></path>
            <path d="M6.22194696,15.9950235 C6.56259722,15.9950235 6.8405511,15.7208993 6.8405511,15.3825596 L6.8405511,14.8529544 L6.8405511,9.4236418 L6.8405511,8.89472709 C6.8405511,8.5563874 6.56259722,8.28157271 6.22194696,8.28157271 L6.06520605,8.28157271 C5.72385917,8.28157271 5.44729853,8.5563874 5.44729853,8.89472709 L5.44729853,9.4174274 L5.44729853,14.8591688 L5.44729853,15.3673688 C5.44729853,15.7208993 5.72385917,15.9950235 6.06520605,15.9950235 L6.22194696,15.9950235 Z" id="Fill-6" sketch:type="MSShapeGroup"></path>
            <path d="M14.9501444,16.3045343 C15.2907947,16.3045343 15.5680519,16.0304101 15.5680519,15.6920704 L15.5680519,15.1624652 L15.5680519,9.73315263 L15.5680519,9.20423792 C15.5680519,8.86589823 15.2907947,8.59108354 14.9501444,8.59108354 L14.7927069,8.59108354 C14.45136,8.59108354 14.1741027,8.86589823 14.1741027,9.20423792 L14.1741027,9.72693823 L14.1741027,15.1686796 L14.1741027,15.6768796 C14.1741027,16.0304101 14.45136,16.3045343 14.7927069,16.3045343 L14.9501444,16.3045343 Z" id="Fill-8" sketch:type="MSShapeGroup"></path>
            <path d="M4.63323329,15 C4.27725726,15 4,15.2741242 4,15.6131544 L4,15.767824 C4,16.1061637 4.27725726,16.3809783 4.61860414,16.3809783 L16.1766581,16.3809783 C16.5180049,16.3809783 16.7945656,16.1061637 16.7945656,15.767824 L16.7945656,15.6131544 C16.7945656,15.2741242 16.5180049,15 16.1766581,15 L4.63323329,15 Z" id="Fill-10" sketch:type="MSShapeGroup"></path>
        </g>
    </g>
</svg>