<svg id="Layer_1" data-name="Layer 1" xmlns="http://www.w3.org/2000/svg" viewBox="0 0 340 207" preserveAspectRatio="none slice"><defs><style>#ta-owl-face{fill:#000A12;}.cls-1{fill:#F89B42;}.cls-2{fill:#EF6945;}.cls-3{fill:#00AF87;}</style></defs><title>tripadvisor-logo-final</title><path id="ta-owl-face" d="M337.25,37.14C331.62,45.77,326.82,54.8,324,64.78a3.15,3.15,0,0,0,.35,3c14.77,21.21,19.47,44.49,13.3,69.58-5.41,22-18,39.17-37.2,51.32a83.24,83.24,0,0,1-45,12.91A78.85,78.85,0,0,1,235.24,199a84.72,84.72,0,0,1-41.47-24.47c-1.51-1.59-2.93-3.27-4.53-5.09-6,9-12,17.86-18.07,26.95-6.06-9.06-11.93-17.84-17.78-26.57a5.4,5.4,0,0,0-.6.31,2.56,2.56,0,0,0-.35.37c-13.82,16.32-31.2,26.32-52.38,29.67a81.77,81.77,0,0,1-34.88-2,84.71,84.71,0,0,1-61.32-68.6c-2.91-15.21.63-29.86,1.52-33.42A85.07,85.07,0,0,1,18.53,67.65a3.27,3.27,0,0,0,.37-2.45C16.4,56,12.1,47.69,7,39.7c-1.28-2-2.82-3.9-4.23-5.85V33.17a5.87,5.87,0,0,0,.85.09q25.46,0,50.91,0a4.23,4.23,0,0,0,2.18-.71,183,183,0,0,1,38-18.43,207.57,207.57,0,0,1,29.47-8,234.19,234.19,0,0,1,29.32-3.85c24-1.86,43.25.69,56,2.47a180.2,180.2,0,0,1,27.77,6.51,190.12,190.12,0,0,1,45.05,20.53,7,7,0,0,0,3.45,1c16.59,0.07,33.17,0,49.75.06,1.33,0,2.66.13,4,.21a1.36,1.36,0,0,1,0,.54C338.81,34.78,338,36,337.25,37.14ZM20,118A67.34,67.34,0,1,0,87.24,49.48C51,49.16,19.38,79.42,20,118ZM176.13,16.64C146.66,16.06,118,20.4,90.58,31.89c20.48,1.25,38.47,8.39,53.67,22.21s24.06,31,27.28,51.25c3.32-20,12-37.06,26.86-50.71S231,33.8,251.18,32.28C227.28,21.65,202.07,17.15,176.13,16.64Zm78.1,33.1c-36.8.75-65.6,30.41-65.93,67.09,0,37.27,30.23,67.71,67.36,67.57A67.1,67.1,0,0,0,323,117C323,78.17,291.5,49,254.24,49.74Zm3,108a41.79,41.79,0,0,1-43.52-40q0-.87,0-1.75c0-23.65,19.51-42.08,41.82-41.69a41.73,41.73,0,0,1,1.74,83.43h0Zm-1.62-69a27.27,27.27,0,1,0,27.09,27.44q0-.09,0-0.18a27.38,27.38,0,0,0-27.09-27.26h0Zm-167.32,69A41.8,41.8,0,0,1,44.53,118q-0.05-1-.05-2.07c0-23.82,19.67-42,41.87-41.64A41.73,41.73,0,0,1,88.32,157.73ZM86,88.75a27.27,27.27,0,1,0,27.55,27.16A27.27,27.27,0,0,0,86,88.75Z" transform="translate(-2.73 -1.62)"/><path id="ta-owl-forehead" class="cls-1" d="M198.39,54.64C213.29,41,231,33.8,251.18,32.28c-23.9-10.63-49.1-15.13-75-15.64-29.47-.58-58.16,3.77-85.55,15.25,20.48,1.25,38.47,8.39,53.67,22.21s24.06,31,27.28,51.25C174.85,85.34,183.5,68.29,198.39,54.64Z" transform="translate(-2.73 -1.62)"/><path id="ta-owl-lefteye" class="cls-2" d="M86.28,102.05a14,14,0,1,0,14,13.93,14,14,0,0,0-14-13.93h0Z" transform="translate(-2.73 -1.62)"/><path id="ta-owl-righteye" class="cls-3" d="M255.56,102.16a13.74,13.74,0,1,0,.22,0h-0.22Z" transform="translate(-2.73 -1.62)"/></svg>
