<svg id="Layer_1" data-name="Layer 1" xmlns="http://www.w3.org/2000/svg" viewBox="0 0 800 800"><defs><style>.cls-1{fill:#fff;}</style></defs><title>Hotels_Logo_WHITE</title><path class="cls-1" d="M121.06,346.5a24.76,24.76,0,0,1,4.38-14.08,19.9,19.9,0,0,0-14.37,19.08v16l10,.5Z"/><path class="cls-1" d="M111.07,456.37a19.91,19.91,0,0,0,14.37,19.08,24.79,24.79,0,0,1-4.38-14.09v-30h-10Z"/><path class="cls-1" d="M136,431.4h-10v30a19.9,19.9,0,0,0,14.37,19.08A24.76,24.76,0,0,1,136,466.36Z"/><path class="cls-1" d="M136,341.51a24.79,24.79,0,0,1,4.38-14.09,19.91,19.91,0,0,0-14.37,19.08v21.72l10,.5Z"/><path class="cls-1" d="M23.44,335.11a24.87,24.87,0,0,0-12.25,21.38v94.89a24.84,24.84,0,0,0,12.25,21.37,29.74,29.74,0,0,1-2.26-11.39V346.5A29.82,29.82,0,0,1,23.44,335.11Z"/><path class="cls-1" d="M36.16,336.52a29.74,29.74,0,0,1,2.26-11.39A24.86,24.86,0,0,0,26.17,346.5V461.36A24.91,24.91,0,0,0,42.48,484.7a29.77,29.77,0,0,1-6.32-18.34Z"/><path class="cls-1" d="M161,321.53a20,20,0,0,0-20,20V374l-49.94-2.5v-35a25,25,0,0,0-49.94,0V466.36a25,25,0,0,0,49.94,0V426.41H141v39.95a20,20,0,0,0,39.95,0V341.51A20,20,0,0,0,161,321.53Z"/><path class="cls-1" d="M181,466.36a20,20,0,0,1-39.95,0V426.41H91.09v39.95a25,25,0,0,1-49.94,0V336.52a25,25,0,0,1,49.94,0v35L141,374V341.51a20,20,0,1,1,39.95,0Z"/><path class="cls-1" d="M330.25,440.1V410.19H286.64V440.1a5.91,5.91,0,0,1-5.8,5.91,6,6,0,0,1-6-5.91V371.89a6,6,0,0,1,5.91-5.91,5.93,5.93,0,0,1,5.91,5.91v27.78h43.61V371.89a5.91,5.91,0,1,1,11.82,0V440.1a5.91,5.91,0,1,1-11.82,0Z"/><path class="cls-1" d="M350.43,416.81c0-16.43,11.11-29.9,28.84-29.9s28.84,13.47,28.84,29.9-11,30-28.84,30S350.43,433.36,350.43,416.81Zm46.57,0c0-10.75-6.26-20.45-17.73-20.45s-17.73,9.7-17.73,20.45,6.38,20.57,17.73,20.57S397,427.69,397,416.81Z"/><path class="cls-1" d="M470,386.91c17.14,0,27.78,13.35,27.78,28.37,0,3.19-2.25,5.08-6.27,5.08H452.57c.83,9.69,7.92,17.73,19.39,17.73a24.46,24.46,0,0,0,14.18-4.61,3.75,3.75,0,0,1,2.37-.59,4.23,4.23,0,0,1,4.25,4.25,4.18,4.18,0,0,1-1.89,3.55,33.09,33.09,0,0,1-20,6.15c-17,0-29.55-12.06-29.55-30C441.34,400.26,453.28,386.91,470,386.91Zm-17.5,25.76h34.87c-.23-7.56-5.31-17-17.37-17C458.48,395.65,453,404.87,452.45,412.67Z"/><path class="cls-1" d="M504.5,440.69V371.3a5.3,5.3,0,0,1,5.32-5.32,5.38,5.38,0,0,1,5.32,5.32v69.39a5.38,5.38,0,0,1-5.32,5.32A5.29,5.29,0,0,1,504.5,440.69Z"/><path class="cls-1" d="M522,436.67a4.54,4.54,0,0,1,4.61-4.61,4.89,4.89,0,0,1,2.6.83,27.67,27.67,0,0,0,16.07,5.44c8,0,12.3-3.31,12.3-8.16,0-5.68-6.51-7.57-13.83-9.22-9.7-2.25-21-4.85-21-17.14,0-9.1,7.8-16.9,21.75-16.9a31.44,31.44,0,0,1,19,5.91,4.34,4.34,0,0,1-2.48,7.92,4.12,4.12,0,0,1-2.37-.83,23.68,23.68,0,0,0-14.06-4.37c-7.22,0-11.71,2.83-11.71,7.44,0,5,6.15,6.62,13.24,8.28,9.93,2.24,21.75,5,21.75,18.08,0,9.81-8,17.5-23.05,17.5-7.92,0-15-2-20.8-6.39A4.69,4.69,0,0,1,522,436.67Z"/><path class="cls-1" d="M581.8,431.94a7.47,7.47,0,0,1,7.44,7.33,7.57,7.57,0,0,1-7.44,7.45,7.47,7.47,0,0,1-7.33-7.45A7.37,7.37,0,0,1,581.8,431.94Z"/><path class="cls-1" d="M644.47,416.81c0-16.43,11.11-29.9,28.84-29.9s28.84,13.47,28.84,29.9-11,30-28.84,30S644.47,433.36,644.47,416.81Zm46.57,0c0-10.75-6.26-20.45-17.73-20.45s-17.73,9.7-17.73,20.45,6.39,20.57,17.73,20.57S691,427.69,691,416.81Z"/><path class="cls-1" d="M790.17,404.16v36.53a5.4,5.4,0,0,1-5.44,5.32,5.27,5.27,0,0,1-5.2-5.32V407.36c0-6.62-2.95-9.81-9.93-9.81-5.79,0-11.47,6.51-14.18,10.65v32.49A5.3,5.3,0,0,1,750.1,446a5.37,5.37,0,0,1-5.32-5.32V407.36c0-6.62-2.84-9.81-10-9.81-5.55,0-11.11,6.9-14,11v32.1a5.37,5.37,0,0,1-5.32,5.32,5.3,5.3,0,0,1-5.32-5.32V393.05a5.28,5.28,0,0,1,5.21-5.32,5.4,5.4,0,0,1,5.43,5.32v3.31c2.37-3.54,9.93-9.45,18.44-9.45s13.71,4.49,15.49,10.63a24.27,24.27,0,0,1,19.43-10.63C784.65,386.91,790.17,392.7,790.17,404.16Z"/><path class="cls-1" d="M621.12,386.91c8.16,0,13.83,2.6,18.21,6.62a5,5,0,0,1,1.65,3.54,4.78,4.78,0,0,1-7.92,3.67,15.83,15.83,0,0,0-11.46-4.38c-11.23,0-18.44,8.63-18.44,20.45s7.21,20.19,18.44,20.57c7.57.26,15.21-5.25,21.33-14.92.77-1.21,1.89-3.44,2.81-4.61,1.73-2.19,3-1.14,4-.08,1.88,2,1.86,6.62.64,8.92a45.54,45.54,0,0,1-9.65,12.64,27.93,27.93,0,0,1-19.6,7.51c-17.26,0-29.07-12.89-29.07-30S603.86,386.91,621.12,386.91Z"/><path class="cls-1" d="M448.94,436.67c0,2-5.76,6.51-9.9,8.51a17.49,17.49,0,0,1-8.15,1.66c-9,0-13.6-5.09-13.6-14.07V397.66h-5.43a4.67,4.67,0,1,1,0-9.34h5.43V377.45a5.3,5.3,0,0,1,5.32-5.32,5.37,5.37,0,0,1,5.32,5.32v10.87h7.45a4.67,4.67,0,1,1,0,9.34h-7.45v32.75c0,4,1.89,7,5.56,7,6.51,0,11.62-10.11,14.5-10.11C450.71,427.27,448.94,434.06,448.94,436.67Z"/><path class="cls-1" d="M121.06,346.5a24.76,24.76,0,0,1,4.38-14.08,19.9,19.9,0,0,0-14.37,19.08v16l10,.5Z"/><path class="cls-1" d="M111.07,456.37a19.91,19.91,0,0,0,14.37,19.08,24.79,24.79,0,0,1-4.38-14.09v-30h-10Z"/><path class="cls-1" d="M136,431.4h-10v30a19.9,19.9,0,0,0,14.37,19.08A24.76,24.76,0,0,1,136,466.36Z"/><path class="cls-1" d="M136,341.51a24.79,24.79,0,0,1,4.38-14.09,19.91,19.91,0,0,0-14.37,19.08v21.72l10,.5Z"/><path class="cls-1" d="M23.44,335.11a24.87,24.87,0,0,0-12.25,21.38v94.89a24.84,24.84,0,0,0,12.25,21.37,29.74,29.74,0,0,1-2.26-11.39V346.5A29.82,29.82,0,0,1,23.44,335.11Z"/><path class="cls-1" d="M36.16,336.52a29.74,29.74,0,0,1,2.26-11.39A24.86,24.86,0,0,0,26.17,346.5V461.36A24.91,24.91,0,0,0,42.48,484.7a29.77,29.77,0,0,1-6.32-18.34Z"/><path class="cls-1" d="M161,321.53a20,20,0,0,0-20,20V374l-49.94-2.5v-35a25,25,0,0,0-49.94,0V466.36a25,25,0,0,0,49.94,0V426.41H141v39.95a20,20,0,0,0,39.95,0V341.51A20,20,0,0,0,161,321.53Z"/><path class="cls-1" d="M181,466.36a20,20,0,0,1-39.95,0V426.41H91.09v39.95a25,25,0,0,1-49.94,0V336.52a25,25,0,0,1,49.94,0v35L141,374V341.51a20,20,0,1,1,39.95,0Z"/><path class="cls-1" d="M330.25,440.1V410.19H286.64V440.1a5.91,5.91,0,0,1-5.8,5.91,6,6,0,0,1-6-5.91V371.89a6,6,0,0,1,5.91-5.91,5.93,5.93,0,0,1,5.91,5.91v27.78h43.61V371.89a5.91,5.91,0,1,1,11.82,0V440.1a5.91,5.91,0,1,1-11.82,0Z"/><path class="cls-1" d="M350.43,416.81c0-16.43,11.11-29.9,28.84-29.9s28.84,13.47,28.84,29.9-11,30-28.84,30S350.43,433.36,350.43,416.81Zm46.57,0c0-10.75-6.26-20.45-17.73-20.45s-17.73,9.7-17.73,20.45,6.38,20.57,17.73,20.57S397,427.69,397,416.81Z"/><path class="cls-1" d="M470,386.91c17.14,0,27.78,13.35,27.78,28.37,0,3.19-2.25,5.08-6.27,5.08H452.57c.83,9.69,7.92,17.73,19.39,17.73a24.46,24.46,0,0,0,14.18-4.61,3.75,3.75,0,0,1,2.37-.59,4.23,4.23,0,0,1,4.25,4.25,4.18,4.18,0,0,1-1.89,3.55,33.09,33.09,0,0,1-20,6.15c-17,0-29.55-12.06-29.55-30C441.34,400.26,453.28,386.91,470,386.91Zm-17.5,25.76h34.87c-.23-7.56-5.31-17-17.37-17C458.48,395.65,453,404.87,452.45,412.67Z"/><path class="cls-1" d="M504.5,440.69V371.3a5.3,5.3,0,0,1,5.32-5.32,5.38,5.38,0,0,1,5.32,5.32v69.39a5.38,5.38,0,0,1-5.32,5.32A5.29,5.29,0,0,1,504.5,440.69Z"/><path class="cls-1" d="M522,436.67a4.54,4.54,0,0,1,4.61-4.61,4.89,4.89,0,0,1,2.6.83,27.67,27.67,0,0,0,16.07,5.44c8,0,12.3-3.31,12.3-8.16,0-5.68-6.51-7.57-13.83-9.22-9.7-2.25-21-4.85-21-17.14,0-9.1,7.8-16.9,21.75-16.9a31.44,31.44,0,0,1,19,5.91,4.34,4.34,0,0,1-2.48,7.92,4.12,4.12,0,0,1-2.37-.83,23.68,23.68,0,0,0-14.06-4.37c-7.22,0-11.71,2.83-11.71,7.44,0,5,6.15,6.62,13.24,8.28,9.93,2.24,21.75,5,21.75,18.08,0,9.81-8,17.5-23.05,17.5-7.92,0-15-2-20.8-6.39A4.69,4.69,0,0,1,522,436.67Z"/><path class="cls-1" d="M581.8,431.94a7.47,7.47,0,0,1,7.44,7.33,7.57,7.57,0,0,1-7.44,7.45,7.47,7.47,0,0,1-7.33-7.45A7.37,7.37,0,0,1,581.8,431.94Z"/><path class="cls-1" d="M644.47,416.81c0-16.43,11.11-29.9,28.84-29.9s28.84,13.47,28.84,29.9-11,30-28.84,30S644.47,433.36,644.47,416.81Zm46.57,0c0-10.75-6.26-20.45-17.73-20.45s-17.73,9.7-17.73,20.45,6.39,20.57,17.73,20.57S691,427.69,691,416.81Z"/><path class="cls-1" d="M790.17,404.16v36.53a5.4,5.4,0,0,1-5.44,5.32,5.27,5.27,0,0,1-5.2-5.32V407.36c0-6.62-2.95-9.81-9.93-9.81-5.79,0-11.47,6.51-14.18,10.65v32.49A5.3,5.3,0,0,1,750.1,446a5.37,5.37,0,0,1-5.32-5.32V407.36c0-6.62-2.84-9.81-10-9.81-5.55,0-11.11,6.9-14,11v32.1a5.37,5.37,0,0,1-5.32,5.32,5.3,5.3,0,0,1-5.32-5.32V393.05a5.28,5.28,0,0,1,5.21-5.32,5.4,5.4,0,0,1,5.43,5.32v3.31c2.37-3.54,9.93-9.45,18.44-9.45s13.71,4.49,15.49,10.63a24.27,24.27,0,0,1,19.43-10.63C784.65,386.91,790.17,392.7,790.17,404.16Z"/><path class="cls-1" d="M621.12,386.91c8.16,0,13.83,2.6,18.21,6.62a5,5,0,0,1,1.65,3.54,4.78,4.78,0,0,1-7.92,3.67,15.83,15.83,0,0,0-11.46-4.38c-11.23,0-18.44,8.63-18.44,20.45s7.21,20.19,18.44,20.57c7.57.26,15.21-5.25,21.33-14.92.77-1.21,1.89-3.44,2.81-4.61,1.73-2.19,3-1.14,4-.08,1.88,2,1.86,6.62.64,8.92a45.54,45.54,0,0,1-9.65,12.64,27.93,27.93,0,0,1-19.6,7.51c-17.26,0-29.07-12.89-29.07-30S603.86,386.91,621.12,386.91Z"/><path class="cls-1" d="M448.94,436.67c0,2-5.76,6.51-9.9,8.51a17.49,17.49,0,0,1-8.15,1.66c-9,0-13.6-5.09-13.6-14.07V397.66h-5.43a4.67,4.67,0,1,1,0-9.34h5.43V377.45a5.3,5.3,0,0,1,5.32-5.32,5.37,5.37,0,0,1,5.32,5.32v10.87h7.45a4.67,4.67,0,1,1,0,9.34h-7.45v32.75c0,4,1.89,7,5.56,7,6.51,0,11.62-10.11,14.5-10.11C450.71,427.27,448.94,434.06,448.94,436.67Z"/></svg>