<?xml version="1.0" encoding="UTF-8" standalone="no"?>
<svg width="1418px" height="884px" viewBox="0 0 1418 884" version="1.1" xmlns="http://www.w3.org/2000/svg" xmlns:xlink="http://www.w3.org/1999/xlink">
    <!-- Generator: Sketch 48.1 (47250) - http://www.bohemiancoding.com/sketch -->
    <title>h_stacked</title>
    <desc>Created with Sketch.</desc>
    <defs></defs>
    <g id="Page-1" stroke="none" stroke-width="1" fill="none" fill-rule="evenodd">
        <g id="h_stacked" fill="#FFFFFF" fill-rule="nonzero">
            <path d="M153.14,864.92 L153.14,782.68 L33.19,782.68 L33.19,864.92 C33.2025225,873.77168 26.1200741,881.000938 17.27,881.17 C8.23827742,881.177135 0.86441795,873.950041 0.69,864.92 L0.69,677.36 C0.823997067,668.439823 8.0199073,661.239485 16.94,661.1 C25.9071211,661.12748 33.1680368,668.392864 33.19,677.36 L33.19,753.75 L153.19,753.75 L153.19,677.36 C153.043564,671.456526 156.109324,665.93773 161.198872,662.942909 C166.28842,659.948089 172.60158,659.948089 177.691128,662.942909 C182.780676,665.93773 185.846436,671.456526 185.7,677.36 L185.7,864.92 C185.481211,873.74036 178.268074,880.776794 169.445,880.776794 C160.621926,880.776794 153.408789,873.74036 153.19,864.92 L153.14,864.92 Z" id="Shape"></path>
            <path d="M774.41,96.88 C774.404952,83.018722 778.614437,69.4834998 786.48,58.07 C763.067078,64.8501174 746.935511,86.2651807 746.88,110.64 L746.88,154.64 L774.41,156 L774.41,96.88 Z" id="Shape"></path>
            <path d="M746.88,399.63 C746.934401,424.007409 763.065523,445.425953 786.48,452.21 C778.614437,440.7965 774.404952,427.261278 774.41,413.4 L774.41,330.83 L746.88,330.83 L746.88,399.63 Z" id="Shape"></path>
            <path d="M815.69,330.83 L788.17,330.83 L788.17,413.4 C788.214231,437.782041 804.342387,459.210206 827.76,466 C819.894437,454.5865 815.684952,441.051278 815.69,427.19 L815.69,330.83 Z" id="Shape"></path>
            <path d="M815.69,83.12 C815.684952,69.258722 819.894437,55.7234998 827.76,44.31 C804.351041,51.0937883 788.224216,72.5079625 788.17,96.88 L788.17,156.73 L815.69,158.1 L815.69,83.12 Z" id="Shape"></path>
            <path d="M505.41,65.49 C484.536109,77.7800648 471.70103,100.17682 471.65,124.4 L471.65,385.87 C471.701527,410.095673 484.536009,432.495188 505.41,444.79 C501.293157,434.836999 499.176232,424.170822 499.18,413.4 L499.18,96.88 C499.176232,86.1091783 501.293157,75.4430005 505.41,65.49 Z" id="Shape"></path>
            <path d="M540.46,69.36 C540.462035,58.5984776 542.582338,47.9425967 546.7,38 C525.824625,50.2885986 512.989015,72.6862816 512.94,96.91 L512.94,413.4 C512.989661,442.125398 530.921163,467.781731 557.88,477.7 C546.595596,463.2696 540.463469,445.478685 540.46,427.16 L540.46,69.36 Z" id="Shape"></path>
            <path d="M884.5,28.07 C854.116253,28.0975965 829.499987,52.73624 829.5,83.12 L829.5,172.57 L691.89,165.69 L691.89,69.36 C691.89,31.3572864 661.082714,0.55 623.08,0.55 C585.077286,0.55 554.27,31.3572864 554.27,69.36 L554.27,427.16 C554.27,465.162714 585.077286,495.97 623.08,495.97 C661.082714,495.97 691.89,465.162714 691.89,427.16 L691.89,317.07 L829.45,317.07 L829.45,427.16 C829.45,457.560514 854.094486,482.205 884.495,482.205 C914.895514,482.205 939.54,457.560514 939.54,427.16 L939.54,83.16 C939.56391,68.5505721 933.774348,54.5319017 923.448599,44.1967732 C913.122851,33.8616448 899.109444,28.0593554 884.5,28.07 Z" id="Shape"></path>
            <path d="M939.54,427.16 C939.54,457.560514 914.895514,482.205 884.495,482.205 C854.094486,482.205 829.45,457.560514 829.45,427.16 L829.45,317.07 L691.84,317.07 L691.84,427.16 C691.84,465.162714 661.032714,495.97 623.03,495.97 C585.027286,495.97 554.22,465.162714 554.22,427.16 L554.22,69.36 C554.22,31.3572864 585.027286,0.55 623.03,0.55 C661.032714,0.55 691.84,31.3572864 691.84,69.36 L691.84,165.69 L829.45,172.57 L829.45,83.12 C829.45,52.7194859 854.094486,28.075 884.495,28.075 C914.895514,28.075 939.54,52.7194859 939.54,83.12 L939.54,427.16 Z" id="Shape"></path>
            <path d="M208.62,800.88 C208.62,755.7 239.18,718.64 287.94,718.64 C337.03,718.64 367.26,755.7 367.26,800.88 C367.26,846.39 337.03,883.45 287.94,883.45 C239.18,883.45 208.62,846.39 208.62,800.88 Z M336.7,800.88 C336.7,771.3 319.47,744.65 287.94,744.65 C256.74,744.65 239.18,771.3 239.18,800.88 C239.18,830.79 256.74,857.45 287.94,857.45 C319.47,857.45 336.7,830.79 336.7,800.88 Z" id="Shape"></path>
            <path d="M537.31,718.64 C584.44,718.64 613.7,755.37 613.7,796.64 C613.7,805.41 607.52,810.64 596.47,810.64 L489.47,810.64 C491.75,837.3 511.25,859.41 542.78,859.41 C556.783099,859.346837 570.417215,854.914002 581.78,846.73 C583.41,845.43 585.68,845.1 588.28,845.1 C591.389763,845.086636 594.376018,846.316073 596.574973,848.515027 C598.773927,850.713982 600.003364,853.700237 599.99,856.81 C600.039571,860.735768 598.077769,864.414147 594.79,866.56 C579.18,877.94 560.65,883.46 539.85,883.46 C493.04,883.46 458.58,850.3 458.58,800.89 C458.64,755.37 491.47,718.64 537.31,718.64 Z M489.2,789.5 L585.09,789.5 C584.44,768.7 570.47,742.7 537.31,742.7 C505.78,742.7 490.82,768.05 489.2,789.5 Z" id="Shape"></path>
            <path d="M632.32,866.55 L632.32,675.73 C632.303854,671.836272 633.846921,668.098082 636.604919,665.349478 C639.362917,662.600874 643.10635,661.07057 647,661.1 C655.0438,661.186558 661.543442,667.6862 661.63,675.73 L661.63,866.55 C661.548657,874.594359 655.044412,881.094158 647,881.17 C643.107276,881.202118 639.3638,879.674054 636.605504,876.927032 C633.847208,874.180009 632.303826,870.442823 632.32,866.55 Z" id="Shape"></path>
            <path d="M680.39,855.5 C680.338202,852.121442 681.657486,848.866051 684.046769,846.476769 C686.436051,844.087486 689.691442,842.768202 693.07,842.82 C695.621217,842.87828 698.102374,843.666004 700.22,845.09 C712.22,853.87 727.85,860.09 744.43,860.09 C766.54,860.09 778.23,850.98 778.23,837.66 C778.23,822.05 760.35,816.85 740.23,812.3 C713.58,806.12 682.37,798.97 682.37,765.17 C682.37,740.17 703.83,718.68 742.19,718.68 C763.97,718.68 781.19,725.18 794.52,734.93 C797.44,737.21 799.72,740.46 799.72,744.69 C799.607765,751.270367 794.300367,756.577765 787.72,756.69 C785.369347,756.631217 783.096195,755.837363 781.22,754.42 C771.14,746.94 757.49,742.42 742.54,742.42 C722.71,742.42 710.36,750.22 710.36,762.9 C710.36,776.55 727.26,781.11 746.77,785.65 C774.07,791.83 806.58,799.31 806.58,835.39 C806.58,862.39 784.47,883.5 743.19,883.5 C721.41,883.5 701.91,877.98 685.98,865.95 C682.537312,863.574791 680.454972,859.682045 680.39,855.5 Z" id="Shape"></path>
            <path d="M844.9,842.49 C855.9,842.49 865.38,851.59 865.38,862.64 C865.197985,873.874535 856.134535,882.937985 844.9,883.12 C833.84,883.12 824.74,873.7 824.74,862.64 C824.794754,851.530323 833.790298,842.539242 844.9,842.49 Z" id="Shape"></path>
            <path d="M1017.25,800.88 C1017.25,755.7 1047.81,718.64 1096.56,718.64 C1145.65,718.64 1175.88,755.7 1175.88,800.88 C1175.88,846.39 1145.65,883.45 1096.56,883.45 C1047.81,883.45 1017.25,846.39 1017.25,800.88 Z M1145.33,800.88 C1145.33,771.3 1128.1,744.65 1096.56,744.65 C1065.36,744.65 1047.81,771.3 1047.81,800.88 C1047.81,830.79 1065.36,857.45 1096.56,857.45 C1128.1,857.45 1145.33,830.79 1145.33,800.88 Z" id="Shape"></path>
            <path d="M1417.93,766.1 L1417.93,866.55 C1417.80931,874.722566 1411.10297,881.259015 1402.93,881.17 C1394.95312,881.060243 1388.56322,874.527357 1388.63,866.55 L1388.63,774.88 C1388.63,756.67 1380.51,747.88 1361.33,747.88 C1345.4,747.88 1329.79,765.8 1322.33,777.17 L1322.33,866.53 C1322.34605,870.414099 1320.80951,874.143606 1318.06208,876.889163 C1315.31464,879.63472 1311.58409,881.168707 1307.7,881.15 C1299.65559,881.074158 1293.15134,874.574359 1293.07,866.53 L1293.07,774.86 C1293.07,756.65 1285.27,747.86 1265.44,747.86 C1250.16,747.86 1234.88,766.86 1227.09,778.22 L1227.09,866.51 C1227.00334,874.552125 1220.50218,881.048844 1212.46,881.13 C1208.57418,881.151384 1204.84105,879.618579 1202.09144,876.87273 C1199.34183,874.126881 1197.80393,870.395841 1197.82,866.51 L1197.82,735.51 C1197.75326,727.528794 1204.1492,720.994306 1212.13,720.89 C1220.30077,720.806489 1227.00387,727.339779 1227.13,735.51 L1227.13,744.62 C1233.62,734.86 1254.43,718.62 1277.83,718.62 C1301.56,718.62 1315.54,730.97 1320.42,747.88 C1329.52,733.25 1350.76,718.62 1373.85,718.62 C1402.76,718.64 1417.93,734.57 1417.93,766.1 Z" id="Shape"></path>
            <path d="M953.05,718.64 C975.48,718.64 991.05,725.79 1003.11,736.84 C1005.8811,739.346396 1007.52195,742.866108 1007.66,746.6 C1007.73637,751.787634 1004.75085,756.533782 1000.04164,758.711091 C995.332421,760.8884 989.782697,760.088529 985.88,756.67 C976.78,748.22 966.7,744.67 954.35,744.67 C923.46,744.67 903.63,768.39 903.63,800.9 C903.63,833.41 923.48,856.43 954.35,857.47 C975.17,858.17 996.17,843.03 1013.02,816.47 C1015.12,813.14 1018.2,807.01 1020.73,803.81 C1025.5,797.81 1028.91,800.65 1031.73,803.59 C1036.9,809 1036.85,821.79 1033.48,828.1 C1024,845.73 1016,854 1007,862.81 C994.38,875.05 975.53,883.45 953.1,883.45 C905.63,883.45 873.1,848.02 873.1,800.88 C873.1,753.74 905.58,718.64 953.05,718.64 Z" id="Shape"></path>
            <path d="M479.53,855.48 C479.53,861 463.69,873.38 452.32,878.9 C445.84,882.04 439.32,883.45 429.89,883.45 C405.18,883.45 392.5,869.45 392.5,844.77 L392.5,748.22 L377.55,748.22 C370.42838,748.081677 364.688323,742.34162 364.55,735.22 C364.55,728.39 370.73,722.54 377.55,722.54 L392.5,722.54 L392.5,692.63 C392.481273,688.744172 394.016629,685.012083 396.764356,682.264356 C399.512083,679.516629 403.244172,677.981273 407.13,678 C415.172182,678.081156 421.673345,684.577875 421.76,692.62 L421.76,722.53 L442.24,722.53 C449.331336,722.53 455.08,728.278664 455.08,735.37 C455.08,742.461336 449.331336,748.21 442.24,748.21 L421.76,748.21 L421.76,838.21 C421.76,849.21 426.96,857.39 437.04,857.39 C454.94,857.39 469.04,829.59 476.92,829.59 C484.4,829.65 479.53,848.33 479.53,855.48 Z" id="Shape"></path>
        </g>
    </g>
</svg>