<?xml version="1.0" encoding="UTF-8" standalone="no"?>
<svg width="780px" height="179px" viewBox="0 0 780 179" version="1.1" xmlns="http://www.w3.org/2000/svg" xmlns:xlink="http://www.w3.org/1999/xlink">
    <!-- Generator: Sketch 48.1 (47250) - http://www.bohemiancoding.com/sketch -->
    <title>Hotels_Logo_WHITE_Wordmark_Horizontal_icon_SMALL_NONE</title>
    <desc>Created with Sketch.</desc>
    <defs></defs>
    <g id="Page-1" stroke="none" stroke-width="1" fill="none" fill-rule="evenodd">
        <g id="Hotels_Logo_WHITE_Wordmark_Horizontal_icon_SMALL_NONE" fill="#FFFFFF" fill-rule="nonzero">
            <path d="M110.06,34.5 C110.056154,29.4707545 111.583919,24.5595807 114.44,20.42 C105.941217,22.8785413 100.086098,30.6527698 100.07,39.5 L100.07,55.5 L110.07,56 L110.06,34.5 Z" id="Shape"></path>
            <path d="M100.07,144.37 C100.089429,153.216112 105.943211,160.988566 114.44,163.45 C111.583708,159.306772 110.056022,154.392368 110.06,149.36 L110.06,119.36 L100.06,119.36 L100.07,144.37 Z" id="Shape"></path>
            <path d="M125,119.4 L115,119.4 L115,149.4 C115.016098,158.24723 120.871217,166.021459 129.37,168.48 C126.509692,164.328039 124.985075,159.401817 125,154.36 L125,119.4 Z" id="Shape"></path>
            <path d="M125,29.51 C124.996022,24.4776324 126.523708,19.5632277 129.38,15.42 C120.883211,17.8814343 115.029429,25.6538876 115.01,34.5 L115.01,56.22 L125.01,56.72 L125,29.51 Z" id="Shape"></path>
            <path d="M12.44,23.11 C4.86503286,27.5707922 0.207746801,35.6991821 0.19,44.49 L0.19,139.38 C0.20522969,148.168864 4.86364664,156.295425 12.44,160.75 C10.9455759,157.138714 10.1776063,153.268284 10.18,149.36 L10.18,34.5 C10.1796934,30.5919211 10.947583,26.7218932 12.44,23.11 Z" id="Shape"></path>
            <path d="M25.16,24.52 C25.1576063,20.6117164 25.9255759,16.7412856 27.42,13.13 C19.8466158,17.5875109 15.1892637,25.7122142 15.17,34.5 L15.17,149.36 C15.1860646,159.786748 21.6943409,169.100247 31.48,172.7 C27.3848046,167.463736 25.1599683,161.007487 25.16,154.36 L25.16,24.52 Z" id="Shape"></path>
            <path d="M150,9.53 C138.954305,9.53 130,18.484305 130,29.53 L130,62 L80.06,59.5 L80.06,24.5 C79.4071047,11.1848282 68.4211692,0.724377393 55.09,0.724377393 C41.7588308,0.724377393 30.7728953,11.1848282 30.12,24.5 L30.12,154.36 C30.7728953,167.675172 41.7588308,178.135623 55.09,178.135623 C68.4211692,178.135623 79.4071047,167.675172 80.06,154.36 L80.06,114.41 L130,114.41 L130,154.36 C130.53269,165.0038 139.317878,173.360313 149.975,173.360313 C160.632122,173.360313 169.41731,165.0038 169.95,154.36 L169.95,29.51 C169.939016,18.491609 161.018362,9.55754052 150,9.53 Z" id="Shape"></path>
            <path d="M170,154.36 C169.46731,165.0038 160.682122,173.360313 150.025,173.360313 C139.367878,173.360313 130.58269,165.0038 130.05,154.36 L130.05,114.41 L80.09,114.41 L80.09,154.36 C79.4371047,167.675172 68.4511692,178.135623 55.12,178.135623 C41.7888308,178.135623 30.8028953,167.675172 30.15,154.36 L30.15,24.52 C30.8028953,11.2048282 41.7888308,0.744377393 55.12,0.744377393 C68.4511692,0.744377393 79.4371047,11.2048282 80.09,24.52 L80.09,59.52 L130,62 L130,29.51 C129.630913,22.1351777 133.355346,15.1569859 139.687697,11.3588869 C146.020049,7.56078778 153.929951,7.56078778 160.262303,11.3588869 C166.594654,15.1569859 170.319087,22.1351777 169.95,29.51 L170,154.36 Z" id="Shape"></path>
            <path d="M319.25,128.1 L319.25,98.19 L275.64,98.19 L275.64,128.1 C275.640558,131.321523 273.060965,133.950039 269.84,134.01 C266.561123,134.010369 263.889183,131.378508 263.84,128.1 L263.84,59.89 C263.888303,56.6462154 266.506215,54.0283026 269.75,53.98 C273.009446,53.9909747 275.649025,56.6305538 275.66,59.89 L275.66,87.67 L319.27,87.67 L319.27,59.89 C319.27,56.6259971 321.915997,53.98 325.18,53.98 C328.444003,53.98 331.09,56.6259971 331.09,59.89 L331.09,128.1 C331.09,131.364003 328.444003,134.01 325.18,134.01 C321.915997,134.01 319.27,131.364003 319.27,128.1 L319.25,128.1 Z" id="Shape"></path>
            <path d="M339.43,104.81 C339.43,88.38 350.54,74.91 368.27,74.91 C386,74.91 397.11,88.38 397.11,104.81 C397.11,121.24 386.11,134.81 368.27,134.81 C350.43,134.81 339.43,121.36 339.43,104.81 Z M386,104.81 C386,94.06 379.74,84.36 368.27,84.36 C356.8,84.36 350.54,94.06 350.54,104.81 C350.54,115.56 356.92,125.38 368.27,125.38 C379.62,125.38 386,115.69 386,104.81 Z" id="Shape"></path>
            <path d="M459,74.91 C476.14,74.91 486.78,88.26 486.78,103.28 C486.78,106.47 484.53,108.36 480.51,108.36 L441.57,108.36 C442.4,118.05 449.49,126.09 460.96,126.09 C466.051256,126.066555 471.008308,124.454989 475.14,121.48 C475.842028,121.024376 476.676296,120.81669 477.51,120.89 C478.638802,120.88465 479.722917,121.330699 480.521109,122.128891 C481.319301,122.927083 481.76535,124.011198 481.76,125.14 C481.778075,126.568566 481.065278,127.907416 479.87,128.69 C474.04404,132.84933 467.026386,135.007258 459.87,134.84 C442.87,134.84 430.32,122.78 430.32,104.84 C430.34,88.26 442.28,74.91 459,74.91 Z M441.5,100.67 L476.37,100.67 C476.14,93.11 471.06,83.67 459,83.67 C447.48,83.65 442,92.87 441.45,100.67 L441.5,100.67 Z" id="Shape"></path>
            <path d="M493.5,128.69 L493.5,59.3 C493.494659,57.8874178 494.053443,56.5311498 495.052296,55.5322962 C496.05115,54.5334426 497.407418,53.9746594 498.82,53.98 C501.744613,54.0124386 504.107561,56.375387 504.14,59.3 L504.14,128.69 C504.107561,131.614613 501.744613,133.977561 498.82,134.01 C497.406599,134.018038 496.048761,133.460122 495.04932,132.46068 C494.049878,131.461239 493.491962,130.103401 493.5,128.69 Z" id="Shape"></path>
            <path d="M511,124.67 C510.980909,123.441599 511.460471,122.257903 512.329187,121.389187 C513.197903,120.520471 514.381599,120.040909 515.61,120.06 C516.537875,120.084301 517.439671,120.372181 518.21,120.89 C522.864879,124.341326 528.48585,126.244132 534.28,126.33 C542.28,126.33 546.58,123.02 546.58,118.17 C546.58,112.49 540.07,110.6 532.75,108.95 C523.05,106.7 511.75,104.1 511.75,91.81 C511.75,82.71 519.55,74.91 533.5,74.91 C540.306144,74.7710549 546.973521,76.84496 552.5,80.82 C554.073254,81.8980871 554.758328,83.8769241 554.188412,85.6969776 C553.618496,87.517031 551.92716,88.7517394 550.02,88.74 C549.162879,88.7166913 548.334385,88.4265437 547.65,87.91 C543.54676,84.9963148 538.621959,83.4656334 533.59,83.54 C526.37,83.54 521.88,86.37 521.88,90.98 C521.88,95.98 528.03,97.6 535.12,99.26 C545.05,101.5 556.87,104.26 556.87,117.34 C556.87,127.15 548.87,134.84 533.82,134.84 C525.9,134.84 518.82,132.84 513.02,128.45 C511.776659,127.589328 511.024578,126.181969 511,124.67 Z" id="Shape"></path>
            <path d="M570.8,119.94 C574.859831,119.955592 578.163942,123.210851 578.24,127.27 C578.175849,131.353776 574.883686,134.650364 570.8,134.72 C566.736977,134.643852 563.480167,131.333724 563.47,127.27 C563.491863,123.230844 566.760844,119.961863 570.8,119.94 Z" id="Shape"></path>
            <path d="M633.47,104.81 C633.47,88.38 644.58,74.91 662.31,74.91 C680.04,74.91 691.15,88.38 691.15,104.81 C691.15,121.24 680.15,134.81 662.31,134.81 C644.47,134.81 633.47,121.36 633.47,104.81 Z M680.04,104.81 C680.04,94.06 673.78,84.36 662.31,84.36 C650.84,84.36 644.58,94.06 644.58,104.81 C644.58,115.56 650.97,125.38 662.31,125.38 C673.65,125.38 680,115.69 680,104.81 L680.04,104.81 Z" id="Shape"></path>
            <path d="M779.17,92.16 L779.17,128.69 C779.126128,131.656693 776.696934,134.032302 773.73,134.01 C770.827247,133.971573 768.502203,131.592874 768.53,128.69 L768.53,95.36 C768.53,88.74 765.58,85.55 758.6,85.55 C752.81,85.55 747.13,92.06 744.42,96.2 L744.42,128.69 C744.422672,130.100852 743.862711,131.454542 742.864148,132.451228 C741.865586,133.447913 740.510844,134.005327 739.1,134 C736.173155,133.972873 733.807127,131.606845 733.78,128.68 L733.78,95.36 C733.78,88.74 730.94,85.55 723.78,85.55 C718.23,85.55 712.67,92.45 709.78,96.55 L709.78,128.65 C709.752873,131.576845 707.386845,133.942873 704.46,133.97 C703.047418,133.975341 701.69115,133.416557 700.692296,132.417704 C699.693443,131.41885 699.134659,130.062582 699.14,128.65 L699.14,81.05 C699.117741,78.1454906 701.445659,75.7684226 704.35,75.73 C707.313046,75.7132139 709.73615,78.0872312 709.78,81.05 L709.78,84.36 C712.15,80.82 719.71,74.91 728.22,74.91 C736.73,74.91 741.93,79.4 743.71,85.54 C748.09814,79.075793 755.329884,75.1193628 763.14,74.91 C773.65,74.91 779.17,80.7 779.17,92.16 Z" id="Shape"></path>
            <path d="M610.12,74.91 C618.28,74.91 623.95,77.51 628.33,81.53 C629.337181,82.4375074 629.932671,83.7151043 629.98,85.07 C630.006199,86.9556812 628.921239,88.6805112 627.210155,89.4733998 C625.499071,90.2662884 623.481734,89.9790126 622.06,88.74 C618.984065,85.7988958 614.85346,84.2201831 610.6,84.36 C599.37,84.36 592.16,92.99 592.16,104.81 C592.16,116.63 599.37,125 610.6,125.38 C618.17,125.64 625.81,120.13 631.93,110.46 C632.7,109.25 633.82,107.02 634.74,105.85 C636.47,103.66 637.74,104.71 638.74,105.77 C640.62,107.77 640.6,112.39 639.38,114.69 C636.929572,119.436701 633.663113,123.715254 629.73,127.33 C624.421561,132.286407 617.391257,134.980161 610.13,134.84 C592.87,134.84 581.06,121.95 581.06,104.84 C581.06,87.73 592.86,74.91 610.12,74.91 Z" id="Shape"></path>
            <path d="M437.94,124.67 C437.94,126.67 432.18,131.18 428.04,133.18 C425.496339,134.380634 422.700626,134.950067 419.89,134.84 C410.89,134.84 406.29,129.75 406.29,120.77 L406.29,85.66 L400.86,85.66 C398.28083,85.66 396.19,83.5691698 396.19,80.99 C396.19,78.4108302 398.28083,76.32 400.86,76.32 L406.29,76.32 L406.29,65.45 C406.284659,64.0374178 406.843443,62.6811498 407.842296,61.6822962 C408.84115,60.6834426 410.197418,60.1246594 411.61,60.13 C414.536845,60.1571273 416.902873,62.5231553 416.93,65.45 L416.93,76.32 L424.38,76.32 C426.95917,76.32 429.05,78.4108302 429.05,80.99 C429.05,83.5691698 426.95917,85.66 424.38,85.66 L416.93,85.66 L416.93,118.41 C416.93,122.41 418.82,125.41 422.49,125.41 C429,125.41 434.11,115.3 436.99,115.3 C439.71,115.27 437.94,122.06 437.94,124.67 Z" id="Shape"></path>
            <path d="M110.06,34.5 C110.056154,29.4707545 111.583919,24.5595807 114.44,20.42 C105.941217,22.8785413 100.086098,30.6527698 100.07,39.5 L100.07,55.5 L110.07,56 L110.06,34.5 Z" id="Shape"></path>
            <path d="M100.07,144.37 C100.089429,153.216112 105.943211,160.988566 114.44,163.45 C111.583708,159.306772 110.056022,154.392368 110.06,149.36 L110.06,119.36 L100.06,119.36 L100.07,144.37 Z" id="Shape"></path>
            <path d="M125,119.4 L115,119.4 L115,149.4 C115.016098,158.24723 120.871217,166.021459 129.37,168.48 C126.509692,164.328039 124.985075,159.401817 125,154.36 L125,119.4 Z" id="Shape"></path>
            <path d="M125,29.51 C124.996022,24.4776324 126.523708,19.5632277 129.38,15.42 C120.883211,17.8814343 115.029429,25.6538876 115.01,34.5 L115.01,56.22 L125.01,56.72 L125,29.51 Z" id="Shape"></path>
            <path d="M12.44,23.11 C4.86503286,27.5707922 0.207746801,35.6991821 0.19,44.49 L0.19,139.38 C0.20522969,148.168864 4.86364664,156.295425 12.44,160.75 C10.9455759,157.138714 10.1776063,153.268284 10.18,149.36 L10.18,34.5 C10.1796934,30.5919211 10.947583,26.7218932 12.44,23.11 Z" id="Shape"></path>
            <path d="M25.16,24.52 C25.1576063,20.6117164 25.9255759,16.7412856 27.42,13.13 C19.8466158,17.5875109 15.1892637,25.7122142 15.17,34.5 L15.17,149.36 C15.1860646,159.786748 21.6943409,169.100247 31.48,172.7 C27.3848046,167.463736 25.1599683,161.007487 25.16,154.36 L25.16,24.52 Z" id="Shape"></path>
            <path d="M150,9.53 C138.954305,9.53 130,18.484305 130,29.53 L130,62 L80.06,59.5 L80.06,24.5 C79.4071047,11.1848282 68.4211692,0.724377393 55.09,0.724377393 C41.7588308,0.724377393 30.7728953,11.1848282 30.12,24.5 L30.12,154.36 C30.7728953,167.675172 41.7588308,178.135623 55.09,178.135623 C68.4211692,178.135623 79.4071047,167.675172 80.06,154.36 L80.06,114.41 L130,114.41 L130,154.36 C130.53269,165.0038 139.317878,173.360313 149.975,173.360313 C160.632122,173.360313 169.41731,165.0038 169.95,154.36 L169.95,29.51 C169.939016,18.491609 161.018362,9.55754052 150,9.53 Z" id="Shape"></path>
            <path d="M170,154.36 C169.46731,165.0038 160.682122,173.360313 150.025,173.360313 C139.367878,173.360313 130.58269,165.0038 130.05,154.36 L130.05,114.41 L80.09,114.41 L80.09,154.36 C79.4371047,167.675172 68.4511692,178.135623 55.12,178.135623 C41.7888308,178.135623 30.8028953,167.675172 30.15,154.36 L30.15,24.52 C30.8028953,11.2048282 41.7888308,0.744377393 55.12,0.744377393 C68.4511692,0.744377393 79.4371047,11.2048282 80.09,24.52 L80.09,59.52 L130,62 L130,29.51 C129.630913,22.1351777 133.355346,15.1569859 139.687697,11.3588869 C146.020049,7.56078778 153.929951,7.56078778 160.262303,11.3588869 C166.594654,15.1569859 170.319087,22.1351777 169.95,29.51 L170,154.36 Z" id="Shape"></path>
            <path d="M319.25,128.1 L319.25,98.19 L275.64,98.19 L275.64,128.1 C275.640558,131.321523 273.060965,133.950039 269.84,134.01 C266.561123,134.010369 263.889183,131.378508 263.84,128.1 L263.84,59.89 C263.888303,56.6462154 266.506215,54.0283026 269.75,53.98 C273.009446,53.9909747 275.649025,56.6305538 275.66,59.89 L275.66,87.67 L319.27,87.67 L319.27,59.89 C319.27,56.6259971 321.915997,53.98 325.18,53.98 C328.444003,53.98 331.09,56.6259971 331.09,59.89 L331.09,128.1 C331.09,131.364003 328.444003,134.01 325.18,134.01 C321.915997,134.01 319.27,131.364003 319.27,128.1 L319.25,128.1 Z" id="Shape"></path>
            <path d="M339.43,104.81 C339.43,88.38 350.54,74.91 368.27,74.91 C386,74.91 397.11,88.38 397.11,104.81 C397.11,121.24 386.11,134.81 368.27,134.81 C350.43,134.81 339.43,121.36 339.43,104.81 Z M386,104.81 C386,94.06 379.74,84.36 368.27,84.36 C356.8,84.36 350.54,94.06 350.54,104.81 C350.54,115.56 356.92,125.38 368.27,125.38 C379.62,125.38 386,115.69 386,104.81 Z" id="Shape"></path>
            <path d="M459,74.91 C476.14,74.91 486.78,88.26 486.78,103.28 C486.78,106.47 484.53,108.36 480.51,108.36 L441.57,108.36 C442.4,118.05 449.49,126.09 460.96,126.09 C466.051256,126.066555 471.008308,124.454989 475.14,121.48 C475.842028,121.024376 476.676296,120.81669 477.51,120.89 C478.638802,120.88465 479.722917,121.330699 480.521109,122.128891 C481.319301,122.927083 481.76535,124.011198 481.76,125.14 C481.778075,126.568566 481.065278,127.907416 479.87,128.69 C474.04404,132.84933 467.026386,135.007258 459.87,134.84 C442.87,134.84 430.32,122.78 430.32,104.84 C430.34,88.26 442.28,74.91 459,74.91 Z M441.5,100.67 L476.37,100.67 C476.14,93.11 471.06,83.67 459,83.67 C447.48,83.65 442,92.87 441.45,100.67 L441.5,100.67 Z" id="Shape"></path>
            <path d="M493.5,128.69 L493.5,59.3 C493.494659,57.8874178 494.053443,56.5311498 495.052296,55.5322962 C496.05115,54.5334426 497.407418,53.9746594 498.82,53.98 C501.744613,54.0124386 504.107561,56.375387 504.14,59.3 L504.14,128.69 C504.107561,131.614613 501.744613,133.977561 498.82,134.01 C497.406599,134.018038 496.048761,133.460122 495.04932,132.46068 C494.049878,131.461239 493.491962,130.103401 493.5,128.69 Z" id="Shape"></path>
            <path d="M511,124.67 C510.980909,123.441599 511.460471,122.257903 512.329187,121.389187 C513.197903,120.520471 514.381599,120.040909 515.61,120.06 C516.537875,120.084301 517.439671,120.372181 518.21,120.89 C522.864879,124.341326 528.48585,126.244132 534.28,126.33 C542.28,126.33 546.58,123.02 546.58,118.17 C546.58,112.49 540.07,110.6 532.75,108.95 C523.05,106.7 511.75,104.1 511.75,91.81 C511.75,82.71 519.55,74.91 533.5,74.91 C540.306144,74.7710549 546.973521,76.84496 552.5,80.82 C554.073254,81.8980871 554.758328,83.8769241 554.188412,85.6969776 C553.618496,87.517031 551.92716,88.7517394 550.02,88.74 C549.162879,88.7166913 548.334385,88.4265437 547.65,87.91 C543.54676,84.9963148 538.621959,83.4656334 533.59,83.54 C526.37,83.54 521.88,86.37 521.88,90.98 C521.88,95.98 528.03,97.6 535.12,99.26 C545.05,101.5 556.87,104.26 556.87,117.34 C556.87,127.15 548.87,134.84 533.82,134.84 C525.9,134.84 518.82,132.84 513.02,128.45 C511.776659,127.589328 511.024578,126.181969 511,124.67 Z" id="Shape"></path>
            <path d="M570.8,119.94 C574.859831,119.955592 578.163942,123.210851 578.24,127.27 C578.175849,131.353776 574.883686,134.650364 570.8,134.72 C566.736977,134.643852 563.480167,131.333724 563.47,127.27 C563.491863,123.230844 566.760844,119.961863 570.8,119.94 Z" id="Shape"></path>
            <path d="M633.47,104.81 C633.47,88.38 644.58,74.91 662.31,74.91 C680.04,74.91 691.15,88.38 691.15,104.81 C691.15,121.24 680.15,134.81 662.31,134.81 C644.47,134.81 633.47,121.36 633.47,104.81 Z M680.04,104.81 C680.04,94.06 673.78,84.36 662.31,84.36 C650.84,84.36 644.58,94.06 644.58,104.81 C644.58,115.56 650.97,125.38 662.31,125.38 C673.65,125.38 680,115.69 680,104.81 L680.04,104.81 Z" id="Shape"></path>
            <path d="M779.17,92.16 L779.17,128.69 C779.126128,131.656693 776.696934,134.032302 773.73,134.01 C770.827247,133.971573 768.502203,131.592874 768.53,128.69 L768.53,95.36 C768.53,88.74 765.58,85.55 758.6,85.55 C752.81,85.55 747.13,92.06 744.42,96.2 L744.42,128.69 C744.422672,130.100852 743.862711,131.454542 742.864148,132.451228 C741.865586,133.447913 740.510844,134.005327 739.1,134 C736.173155,133.972873 733.807127,131.606845 733.78,128.68 L733.78,95.36 C733.78,88.74 730.94,85.55 723.78,85.55 C718.23,85.55 712.67,92.45 709.78,96.55 L709.78,128.65 C709.752873,131.576845 707.386845,133.942873 704.46,133.97 C703.047418,133.975341 701.69115,133.416557 700.692296,132.417704 C699.693443,131.41885 699.134659,130.062582 699.14,128.65 L699.14,81.05 C699.117741,78.1454906 701.445659,75.7684226 704.35,75.73 C707.313046,75.7132139 709.73615,78.0872312 709.78,81.05 L709.78,84.36 C712.15,80.82 719.71,74.91 728.22,74.91 C736.73,74.91 741.93,79.4 743.71,85.54 C748.09814,79.075793 755.329884,75.1193628 763.14,74.91 C773.65,74.91 779.17,80.7 779.17,92.16 Z" id="Shape"></path>
            <path d="M610.12,74.91 C618.28,74.91 623.95,77.51 628.33,81.53 C629.337181,82.4375074 629.932671,83.7151043 629.98,85.07 C630.006199,86.9556812 628.921239,88.6805112 627.210155,89.4733998 C625.499071,90.2662884 623.481734,89.9790126 622.06,88.74 C618.984065,85.7988958 614.85346,84.2201831 610.6,84.36 C599.37,84.36 592.16,92.99 592.16,104.81 C592.16,116.63 599.37,125 610.6,125.38 C618.17,125.64 625.81,120.13 631.93,110.46 C632.7,109.25 633.82,107.02 634.74,105.85 C636.47,103.66 637.74,104.71 638.74,105.77 C640.62,107.77 640.6,112.39 639.38,114.69 C636.929572,119.436701 633.663113,123.715254 629.73,127.33 C624.421561,132.286407 617.391257,134.980161 610.13,134.84 C592.87,134.84 581.06,121.95 581.06,104.84 C581.06,87.73 592.86,74.91 610.12,74.91 Z" id="Shape"></path>
            <path d="M437.94,124.67 C437.94,126.67 432.18,131.18 428.04,133.18 C425.496339,134.380634 422.700626,134.950067 419.89,134.84 C410.89,134.84 406.29,129.75 406.29,120.77 L406.29,85.66 L400.86,85.66 C398.28083,85.66 396.19,83.5691698 396.19,80.99 C396.19,78.4108302 398.28083,76.32 400.86,76.32 L406.29,76.32 L406.29,65.45 C406.284659,64.0374178 406.843443,62.6811498 407.842296,61.6822962 C408.84115,60.6834426 410.197418,60.1246594 411.61,60.13 C414.536845,60.1571273 416.902873,62.5231553 416.93,65.45 L416.93,76.32 L424.38,76.32 C426.95917,76.32 429.05,78.4108302 429.05,80.99 C429.05,83.5691698 426.95917,85.66 424.38,85.66 L416.93,85.66 L416.93,118.41 C416.93,122.41 418.82,125.41 422.49,125.41 C429,125.41 434.11,115.3 436.99,115.3 C439.71,115.27 437.94,122.06 437.94,124.67 Z" id="Shape"></path>
        </g>
    </g>
</svg>