<?xml version="1.0" encoding="UTF-8"?>
<svg width="235px" height="20px" viewBox="0 0 235 20" version="1.1" xmlns="http://www.w3.org/2000/svg" xmlns:xlink="http://www.w3.org/1999/xlink">
    <!-- Generator: Sketch 48.2 (47327) - http://www.bohemiancoding.com/sketch -->
    <title>LOGO LOCKUP</title>
    <desc>Created with Sketch.</desc>
    <defs></defs>
    <g id="hotelsrewards_tm_logo_[white]" stroke="none" stroke-width="1" fill="none" fill-rule="evenodd" transform="translate(-12.000000, -20.000000)">
        <g id="LOGO-LOCKUP" transform="translate(12.000000, 20.000000)" fill="#FFFFFF">
            <g id="WORDMARK">
                <path d="M43.9401565,11.4955665 L52.6677934,11.4955665 C52.6087011,9.63251232 51.3367136,7.30541872 48.3189984,7.30541872 C45.4495149,7.30541872 44.0873865,9.57536946 43.9401565,11.4955665 M48.3189984,5.15172414 C52.6087011,5.15172414 55.2708607,8.43940887 55.2708607,12.1359606 C55.2708607,12.9211823 54.7089828,13.3871921 53.7034116,13.3871921 L43.9692019,13.3871921 C44.1765258,15.773399 45.9523005,17.7527094 48.821784,17.7527094 C50.0346792,17.7527094 51.3066667,17.3743842 52.3723318,16.617734 C52.5195618,16.5014778 52.7268858,16.4729064 52.9632551,16.4729064 C53.5561815,16.4729064 54.0289202,16.9369458 54.0289202,17.5192118 C54.0289202,17.8975369 53.8516432,18.1891626 53.5561815,18.3931034 C52.1359624,19.4108374 50.4493271,19.9054187 48.5553678,19.9054187 C44.2947105,19.9054187 41.1598122,16.9369458 41.1598122,12.5142857 C41.1598122,8.43940887 44.1474804,5.15172414 48.3189984,5.15172414" id="Fill-21"></path>
                <path d="M56.96641,18.3931034 L56.96641,1.30935961 C56.96641,0.58226601 57.5583349,0 58.2974898,0 C59.0075994,0 59.6295712,0.58226601 59.6295712,1.30935961 L59.6295712,18.3931034 C59.6295712,19.120197 59.0075994,19.7024631 58.2974898,19.7024631 C57.5583349,19.7024631 56.96641,19.120197 56.96641,18.3931034" id="Fill-23"></path>
                <path d="M61.341446,17.4030542 C61.341446,16.7636453 61.8442316,16.269064 62.4942473,16.269064 C62.7316182,16.269064 62.9679875,16.3567488 63.146266,16.4730049 C64.2409765,17.2582266 65.6601941,17.810936 67.1695524,17.810936 C69.1806948,17.810936 70.2463599,16.9961576 70.2463599,15.8030542 C70.2463599,14.4060099 68.6188169,13.94 66.7849515,13.5331034 C64.3591612,12.9803941 61.518723,12.3390148 61.518723,9.31339901 C61.518723,7.07300493 63.4717746,5.15083744 66.9622285,5.15083744 C68.9443255,5.15083744 70.5117746,5.73310345 71.7246698,6.60699507 C71.9910861,6.80995074 72.19841,7.10157635 72.19841,7.47990148 C72.19841,8.06216749 71.6956244,8.55674877 71.1036995,8.55674877 C70.8973772,8.55674877 70.6610078,8.46906404 70.5117746,8.35182266 C69.5953427,7.68384236 68.3524006,7.27596059 66.9922754,7.27596059 C65.1874554,7.27596059 64.062698,7.97448276 64.062698,9.10945813 C64.062698,10.331133 65.6011017,10.7390148 67.3758748,11.1459113 C69.861759,11.6996059 72.8203818,12.3685714 72.8203818,15.5991133 C72.8203818,18.0138916 70.8082379,19.9055172 67.0513678,19.9055172 C65.0692707,19.9055172 63.2934961,19.410936 61.8442316,18.3340887 C61.5477684,18.1301478 61.341446,17.7823645 61.341446,17.4030542" id="Fill-25"></path>
                <path d="M13.8756808,18.2477833 L13.8756808,10.8842365 L2.95862285,10.8842365 L2.95862285,18.2477833 C2.95862285,19.0330049 2.30760563,19.7029557 1.50835681,19.7029557 C0.680062598,19.7029557 0,19.0330049 0,18.2477833 L0,1.45566502 C0,0.669458128 0.680062598,0.000492610837 1.47931142,0.000492610837 C2.30760563,0.000492610837 2.95862285,0.669458128 2.95862285,1.45566502 L2.95862285,8.29408867 L13.8756808,8.29408867 L13.8756808,1.45566502 C13.8756808,0.669458128 14.5256964,0.000492610837 15.3549922,0.000492610837 C16.1832864,0.000492610837 16.833302,0.669458128 16.833302,1.45566502 L16.833302,18.2477833 C16.833302,19.0330049 16.1832864,19.7029557 15.3549922,19.7029557 C14.5256964,19.7029557 13.8756808,19.0330049 13.8756808,18.2477833" id="Fill-17"></path>
                <path d="M30.5932019,12.5144828 C30.5932019,9.8662069 29.0257527,7.48 26.1552676,7.48 C23.3148294,7.48 21.7183349,9.8662069 21.7183349,12.5144828 C21.7183349,15.19133 23.3148294,17.5785222 26.1552676,17.5785222 C29.0257527,17.5785222 30.5932019,15.19133 30.5932019,12.5144828 M18.9359875,12.5144828 C18.9359875,8.46916256 21.7183349,5.15093596 26.1552676,5.15093596 C30.6222473,5.15093596 33.3735462,8.46916256 33.3735462,12.5144828 C33.3735462,16.5883744 30.6222473,19.9056158 26.1552676,19.9056158 C21.7183349,19.9056158 18.9359875,16.5883744 18.9359875,12.5144828" id="Fill-19"></path>
                <path d="M76.1272488,16.2388177 C77.13282,16.2388177 77.9911612,17.0535961 77.9911612,18.0437438 C77.9911612,19.0329064 77.13282,19.8762562 76.1272488,19.8762562 C75.1216776,19.8762562 74.2933834,19.0329064 74.2933834,18.0437438 C74.2933834,17.0535961 75.1216776,16.2388177 76.1272488,16.2388177" id="Fill-27"></path>
                <path d="M103.324945,12.5144828 C103.324945,9.8662069 101.756495,7.48 98.8860094,7.48 C96.0465728,7.48 94.4490767,9.8662069 94.4490767,12.5144828 C94.4490767,15.19133 96.0465728,17.5785222 98.8860094,17.5785222 C101.756495,17.5785222 103.324945,15.19133 103.324945,12.5144828 M91.6677308,12.5144828 C91.6677308,8.46916256 94.4490767,5.15093596 98.8860094,5.15093596 C103.353991,5.15093596 106.10529,8.46916256 106.10529,12.5144828 C106.10529,16.5883744 103.353991,19.9056158 98.8860094,19.9056158 C94.4490767,19.9056158 91.6677308,16.5883744 91.6677308,12.5144828" id="Fill-29"></path>
                <path d="M127.944513,9.4 L127.944513,18.3931034 C127.944513,19.120197 127.322541,19.7024631 126.583387,19.7024631 C125.874279,19.7024631 125.281352,19.120197 125.281352,18.3931034 L125.281352,10.1862069 C125.281352,8.55665025 124.542197,7.77142857 122.796469,7.77142857 C121.347205,7.77142857 119.925984,9.37536946 119.245922,10.3940887 L119.245922,18.3931034 C119.245922,19.120197 118.654998,19.7024631 117.914842,19.7024631 C117.204732,19.7024631 116.583762,19.120197 116.583762,18.3931034 L116.583762,10.1862069 C116.583762,8.55665025 115.873653,7.77142857 114.068833,7.77142857 C112.67866,7.77142857 111.288488,9.46995074 110.578379,10.48867 L110.578379,18.3931034 C110.578379,19.120197 109.956407,19.7024631 109.247299,19.7024631 C108.507142,19.7024631 107.915218,19.120197 107.915218,18.3931034 L107.915218,6.66502463 C107.915218,5.93694581 108.507142,5.35566502 109.217252,5.35566502 C109.956407,5.35566502 110.578379,5.93694581 110.578379,6.66502463 L110.578379,7.47980296 C111.170304,6.60689655 113.064263,5.15172414 115.19359,5.15172414 C117.352964,5.15172414 118.624951,6.25812808 119.069646,7.77044335 C119.896939,6.46108374 121.830961,5.15172414 123.931243,5.15172414 C126.564357,5.15172414 127.944513,6.5773399 127.944513,9.4" id="Fill-31"></path>
                <path d="M86.1556182,5.15123153 C88.1968075,5.15123153 89.6170266,5.79162562 90.7117371,6.78078818 C90.9481064,6.98472906 91.1253834,7.33448276 91.1253834,7.65369458 C91.1253834,8.32364532 90.5935524,8.84679803 89.9425352,8.84679803 C89.6170266,8.84679803 89.3506103,8.73054187 89.1432864,8.55615764 C88.3149922,7.79950739 87.3975587,7.47931034 86.2738028,7.47931034 C83.4634116,7.47931034 81.6585915,9.6044335 81.6585915,12.5147783 C81.6585915,15.4251232 83.4644131,17.4852217 86.2738028,17.5778325 C88.2659155,17.6438424 90.2760563,16.1423645 91.8465102,13.5305419 C92.4123944,12.9669951 92.8,12.7512315 93.3148044,12.7512315 C93.9958685,12.7512315 93.7815336,14.379803 93.4750548,14.944335 C92.6127074,16.5295567 91.8885759,17.2665025 91.0602817,18.0586207 C89.9134898,19.1541872 88.1968075,19.9059113 86.1556182,19.9059113 C81.8368701,19.9059113 78.8772457,16.7344828 78.8772457,12.5147783 C78.8772457,8.29408867 81.8368701,5.15123153 86.1556182,5.15123153" id="Fill-33"></path>
                <path d="M43.3983099,17.402069 C43.3983099,17.8966502 41.9570579,19.0050246 40.9204382,19.4986207 C40.3305164,19.7803941 39.73759,19.9055172 38.8792488,19.9055172 C36.6307355,19.9055172 35.4779343,18.6542857 35.4779343,16.4424631 L35.4779343,7.80009852 L34.1158059,7.80009852 C33.4948357,7.80009852 32.9329577,7.27596059 32.9329577,6.6355665 C32.9329577,6.02374384 33.4948357,5.50059113 34.1158059,5.50059113 L35.4779343,5.50059113 L35.4779343,2.82275862 C35.4779343,2.09566502 36.0688576,1.51339901 36.8090141,1.51339901 C37.5191236,1.51339901 38.1400939,2.09566502 38.1400939,2.82275862 L38.1400939,5.50059113 L40.0040063,5.50059113 C40.6550235,5.50059113 41.1868545,6.02374384 41.1868545,6.6355665 C41.1868545,7.27596059 40.6550235,7.80009852 40.0040063,7.80009852 L38.1400939,7.80009852 L38.1400939,15.8611823 C38.1400939,16.8503448 38.6138341,17.5784236 39.530266,17.5784236 C41.1598122,17.5784236 42.4388106,15.0887685 43.1599374,15.0887685 C43.84,15.0887685 43.3983099,16.7616749 43.3983099,17.402069" id="Fill-35"></path>
            </g>
            <path d="M140.123167,11.4076246 L145.108504,18.3870968 C145.196481,18.5043988 145.255132,18.6803519 145.255132,18.914956 C145.255132,19.3255132 144.932551,19.7360704 144.463343,19.7360704 C144.170088,19.7360704 143.906158,19.6187683 143.730205,19.3841642 L138.27566,11.5542522 L133.671554,11.5542522 L133.671554,18.8856305 C133.671554,19.3255132 133.319648,19.7360704 132.85044,19.7360704 C132.381232,19.7360704 132,19.3255132 132,18.8856305 L132,0.997067449 C132,0.410557185 132.322581,0.0879765396 132.909091,0.0879765396 L139.302053,0.0879765396 C142.674487,0.0879765396 145.255132,2.228739 145.255132,5.80645161 C145.255132,9.23753666 142.909091,11.202346 140.123167,11.4076246 Z M133.671554,1.61290323 L133.671554,10.0293255 L139.155425,10.0293255 C141.73607,10.0293255 143.495601,8.26979472 143.495601,5.80645161 C143.495601,3.3431085 141.73607,1.61290323 139.155425,1.61290323 L133.671554,1.61290323 Z M146.062089,12.5513196 C146.062089,8.4457478 148.965315,5.13196481 152.894934,5.13196481 C157.205784,5.13196481 159.581151,8.56304985 159.581151,12.1994135 C159.581151,12.7272727 159.25857,13.0498534 158.67206,13.0498534 L147.733643,13.0498534 C147.880271,16.1290323 149.933057,18.6803519 153.276165,18.6803519 C154.889069,18.6803519 156.326019,18.1524927 157.528365,17.0674487 C157.616341,16.9794721 157.762969,16.9501466 157.909596,16.9501466 C158.261503,16.9501466 158.525432,17.2140762 158.525432,17.5953079 C158.525432,17.8005865 158.437456,17.9472141 158.290828,18.0938416 C156.883204,19.3255132 155.2703,20 153.158863,20 C149.023966,20 146.062089,16.9208211 146.062089,12.5513196 Z M152.865608,6.4516129 C149.5225,6.4516129 147.850945,9.38416422 147.733643,11.8475073 L158.026899,11.8475073 C157.997573,9.44281525 156.413995,6.4516129 152.865608,6.4516129 Z M174.786935,19.7360704 C174.376378,19.7360704 173.995146,19.4721408 173.877844,19.0615836 L170.094853,7.53665689 L166.282536,19.0615836 C166.165234,19.4721408 165.784002,19.7360704 165.373445,19.7360704 C164.933562,19.7360704 164.581656,19.4721408 164.464354,19.0615836 L160.358782,6.4516129 C160.329457,6.33431085 160.300131,6.24633431 160.300131,6.15835777 C160.300131,5.74780059 160.622712,5.39589443 161.062595,5.39589443 C161.414501,5.39589443 161.707756,5.60117302 161.825058,5.95307918 L165.432096,17.5073314 L169.273738,5.98240469 C169.361715,5.63049853 169.713621,5.39589443 170.094853,5.39589443 C170.476084,5.39589443 170.798665,5.63049853 170.886642,5.98240469 L174.728284,17.5073314 L178.364648,5.95307918 C178.452624,5.60117302 178.745879,5.39589443 179.097785,5.39589443 C179.537668,5.39589443 179.860249,5.74780059 179.860249,6.18768328 C179.860249,6.24633431 179.830923,6.42228739 179.801598,6.51026393 L175.696026,19.0615836 C175.578724,19.4721408 175.226818,19.7360704 174.786935,19.7360704 Z M186.766913,5.13196481 C189.640813,5.13196481 191.928203,6.51026393 191.928203,9.67741935 L191.928203,18.973607 C191.928203,19.3841642 191.576297,19.7360704 191.16574,19.7360704 C190.755182,19.7360704 190.403276,19.3841642 190.403276,18.973607 L190.403276,17.9178886 C189.20093,19.3255132 187.558701,20 185.593892,20 C183.159874,20 180.63788,18.3284457 180.63788,15.2785924 C180.63788,12.1994135 183.130549,10.5865103 185.593892,10.5865103 C187.558701,10.5865103 189.171605,11.2316716 190.403276,12.6099707 L190.403276,9.73607038 C190.403276,7.62463343 188.702396,6.48093842 186.59096,6.48093842 C185.036707,6.48093842 183.805036,6.95014663 182.60269,8.15249267 C182.485388,8.24046921 182.33876,8.29912023 182.162807,8.29912023 C181.781575,8.29912023 181.48832,8.0058651 181.48832,7.62463343 C181.48832,7.41935484 181.576297,7.24340176 181.722924,7.12609971 C183.101223,5.7771261 184.655476,5.13196481 186.766913,5.13196481 Z M186.121751,18.797654 C187.822631,18.797654 189.406209,18.1524927 190.403276,16.8621701 L190.403276,13.7536657 C189.406209,12.4633431 187.822631,11.7888563 186.121751,11.7888563 C183.77571,11.7888563 182.250784,13.2844575 182.250784,15.3079179 C182.250784,17.3020528 183.77571,18.797654 186.121751,18.797654 Z M200.741025,5.24926686 C201.210233,5.24926686 201.503489,5.60117302 201.503489,6.04105572 C201.503489,6.42228739 201.151582,6.77419355 200.594398,6.80351906 C199.098796,6.86217009 197.280615,8.06451613 196.606128,9.3255132 L196.606128,18.973607 C196.606128,19.3841642 196.254222,19.7360704 195.843665,19.7360704 C195.433107,19.7360704 195.081201,19.3841642 195.081201,18.973607 L195.081201,6.15835777 C195.081201,5.74780059 195.433107,5.39589443 195.843665,5.39589443 C196.254222,5.39589443 196.606128,5.74780059 196.606128,6.15835777 L196.606128,7.94721408 C197.544544,6.68621701 198.74689,5.68914956 200.066538,5.36656891 C200.359794,5.27859238 200.506421,5.24926686 200.741025,5.24926686 Z M214.011325,0 C214.421883,0 214.773789,0.351906158 214.773789,0.762463343 L214.773789,18.973607 C214.773789,19.3841642 214.421883,19.7360704 214.011325,19.7360704 C213.600768,19.7360704 213.219537,19.3841642 213.219537,18.973607 L213.219537,17.4193548 C212.193144,18.8856305 210.374962,20 208.29285,20 C204.539185,20 201.95854,17.1260997 201.95854,12.5806452 C201.95854,8.09384164 204.539185,5.13196481 208.29285,5.13196481 C210.286985,5.13196481 212.046516,6.12903226 213.219537,7.74193548 L213.219537,0.762463343 C213.219537,0.351906158 213.600768,0 214.011325,0 Z M208.55678,18.6217009 C210.550915,18.6217009 212.398422,17.4486804 213.219537,16.0997067 L213.219537,9.09090909 C212.398422,7.71260997 210.550915,6.51026393 208.55678,6.51026393 C205.41895,6.51026393 203.600768,9.14956012 203.600768,12.5806452 C203.600768,16.0117302 205.41895,18.6217009 208.55678,18.6217009 Z M217.134998,18.1818182 C216.988371,18.0645161 216.871069,17.8592375 216.871069,17.6539589 C216.871069,17.2434018 217.193649,16.9208211 217.604206,16.9208211 C217.78016,16.9208211 217.926787,16.9794721 218.044089,17.0967742 C219.041157,18.0351906 220.448781,18.7096774 222.178986,18.7096774 C224.554353,18.7096774 225.961978,17.5366569 225.961978,15.8944282 C225.961978,14.0762463 224.026494,13.5483871 222.003033,13.0205279 C219.627667,12.4340176 217.017696,11.8181818 217.017696,9.06158358 C217.017696,6.8914956 218.865204,5.13196481 222.061684,5.13196481 C224.173121,5.13196481 225.668723,5.83577713 226.724441,6.83284457 C226.871069,6.97947214 226.959045,7.12609971 226.959045,7.36070381 C226.959045,7.71260997 226.66579,8.03519062 226.284558,8.03519062 C226.137931,8.03519062 225.961978,7.94721408 225.874001,7.85923754 C224.96491,6.97947214 223.645262,6.42228739 222.061684,6.42228739 C219.862271,6.42228739 218.513297,7.50733138 218.513297,8.97360704 C218.513297,10.5865103 220.331479,11.026393 222.296289,11.5249267 C224.730306,12.1407625 227.457579,12.8152493 227.457579,15.8357771 C227.457579,18.1231672 225.698048,20 222.149661,20 C220.126201,20 218.542623,19.4721408 217.134998,18.1818182 Z" id="Rewards" opacity="0.98999995"></path>
            <path d="M230.185862,3 C230.012743,3 229.874249,2.85462555 229.874249,2.68722467 L229.874249,0.581497797 L229.272662,0.581497797 C229.125511,0.581497797 229,0.45814978 229,0.308370044 C229,0.154185022 229.125511,0.0308370044 229.272662,0.0308370044 L231.094734,0.0308370044 C231.241885,0.0308370044 231.367396,0.154185022 231.367396,0.308370044 C231.367396,0.45814978 231.241885,0.581497797 231.094734,0.581497797 L230.493147,0.581497797 L230.493147,2.68722467 C230.493147,2.85462555 230.354653,3 230.185862,3 Z M234.688387,3 C234.519596,3 234.381101,2.85462555 234.381101,2.68722467 L234.381101,0.854625551 L233.59774,2.88546256 C233.571772,2.95154185 233.506853,3 233.433277,3 C233.359702,3 233.294782,2.95154185 233.268815,2.88546256 L232.485453,0.854625551 L232.485453,2.68722467 C232.485453,2.85462555 232.351286,3 232.182496,3 C232.009377,3 231.870882,2.85462555 231.870882,2.68722467 L231.870882,0.511013216 C231.870882,0.22907489 232.095937,0 232.372926,0 C232.589324,0 232.771099,0.136563877 232.844674,0.330396476 L233.433277,1.86343612 L234.026208,0.330396476 C234.095456,0.136563877 234.281558,0 234.493628,0 C234.774946,0 235,0.22907489 235,0.511013216 L235,2.68722467 C235,2.85462555 234.861505,3 234.688387,3 Z" id="TM"></path>
        </g>
    </g>
</svg>