<?xml version="1.0" encoding="utf-8"?>
<!-- Generator: Adobe Illustrator 22.1.0, SVG Export Plug-In . SVG Version: 6.00 Build 0)  -->
<svg version="1.1" id="Layer_1" xmlns="http://www.w3.org/2000/svg" xmlns:xlink="http://www.w3.org/1999/xlink" x="0px" y="0px"
	 viewBox="0 0 23.4 17.9" style="enable-background:new 0 0 23.4 17.9;" xml:space="preserve">
<style type="text/css">
	.st0{fill:#FFFFFF;}
</style>
<g>
	<path class="st0" d="M21.4,6.8V2.6C21.4,1.2,20.4,0,19,0L4.4,0C3.1,0,2,1.1,2,2.5l0,4.3c-2.8,0-2.5,6.3-0.1,6.3h1.9l-0.4,1.1
		l1.2,0.1l0.2-1.3h13.8l0.4,1.1h1.2l-0.5-1.1h1.8C23.8,13.1,24.2,6.8,21.4,6.8z M21.7,7.7v4.6H1.2V7.7H21.7z M20.8,8.4H2v3.1h18.8
		V8.4z M3,2.5c-0.1,0,0,0,17.5,0l0,4.3h-0.7V5.6c0-0.7-0.5-1.3-1.2-1.3h-5.3c-0.7,0-1.2,0.6-1.2,1.3v1.1h-0.7V5.6
		c0-0.7-0.5-1.3-1.2-1.3H4.9c-0.7,0-1.2,0.6-1.2,1.3v1.1H3C3,6.8,3,2.5,3,2.5z M13.1,6.8c0-0.3-0.1-1.3,0.2-1.3h5.3
		c0.3,0,0.2,1.1,0.2,1.3C18.7,6.8,13.1,6.8,13.1,6.8z M4.7,6.8c0-0.3-0.1-1.3,0.2-1.3h5.3c0.3,0,0.2,1.1,0.2,1.3H4.7z"/>
</g>
</svg>
