<?xml version="1.0" encoding="utf-8"?>
<!-- Generator: Adobe Illustrator 22.1.0, SVG Export Plug-In . SVG Version: 6.00 Build 0)  -->
<svg version="1.1" id="Layer_1" xmlns="http://www.w3.org/2000/svg" xmlns:xlink="http://www.w3.org/1999/xlink" x="0px" y="0px"
	 viewBox="0 0 98.6 82" style="enable-background:new 0 0 98.6 82;" xml:space="preserve">
<style type="text/css">
	.st0{fill:#FFFFFF;}
</style>
<path class="st0" d="M85,36.2c1.4,0,2.5-1.1,2.5-2.5V6.9c0-3.8-3.1-6.9-6.9-6.9H6.9C3.1,0,0,3.1,0,6.9v57.2C0,67.9,3.1,71,6.9,71
	h42.6c1.4,0,2.5-1.1,2.5-2.5S50.9,66,49.5,66H6.9c-1,0-1.9-0.8-1.9-1.9V21.5h77.5v12.2C82.5,35.1,83.6,36.2,85,36.2z M5,16.5V6.9
	C5,5.9,5.8,5,6.9,5h73.7c1,0,1.9,0.8,1.9,1.9v9.6H5z M76.8,38.3c-12,0-21.8,9.8-21.8,21.8S64.7,82,76.8,82s21.8-9.8,21.8-21.8
	S88.8,38.3,76.8,38.3z M76.8,77C67.5,77,60,69.5,60,60.2s7.5-16.8,16.8-16.8s16.8,7.5,16.8,16.8S86,77,76.8,77z M85,53.9
	c1,1,1,2.6,0,3.5l-9.1,9.1c-0.5,0.5-1.1,0.7-1.8,0.7c-0.6,0-1.3-0.2-1.8-0.7l-3.8-3.8c-1-1-1-2.6,0-3.5c1-1,2.6-1,3.5,0l2.1,2.1
	l7.3-7.3C82.4,52.9,84,52.9,85,53.9z M23.1,10.8c0,1.6-1.3,2.8-2.8,2.8s-2.8-1.3-2.8-2.8c0-1.6,1.3-2.8,2.8-2.8S23.1,9.2,23.1,10.8z
	 M32.4,10.8c0,1.6-1.3,2.8-2.8,2.8s-2.8-1.3-2.8-2.8c0-1.6,1.3-2.8,2.8-2.8S32.4,9.2,32.4,10.8z M13.7,10.8c0,1.6-1.3,2.8-2.8,2.8
	c-1.6,0-2.8-1.3-2.8-2.8C8.1,9.2,9.4,8,10.9,8C12.4,7.9,13.7,9.2,13.7,10.8z"/>
</svg>
