<?xml version="1.0" encoding="utf-8"?>
<!-- Generator: Adobe Illustrator 22.1.0, SVG Export Plug-In . SVG Version: 6.00 Build 0)  -->
<svg version="1.1" id="Layer_1" xmlns="http://www.w3.org/2000/svg" xmlns:xlink="http://www.w3.org/1999/xlink" x="0px" y="0px"
	 viewBox="0 0 70.8 41.3" style="enable-background:new 0 0 70.8 41.3;" xml:space="preserve">
<style type="text/css">
	.st0{fill:#FFFFFF;}
</style>
<g>
	<path class="st0" d="M70.5,19.6C70.1,18.8,59.5,0,35.4,0C11.3,0,0.7,18.8,0.3,19.6c-0.4,0.7-0.4,1.5,0,2.2
		c0.4,0.8,11,19.6,35.1,19.6c24.1,0,34.7-18.8,35.1-19.6C70.9,21.1,70.9,20.3,70.5,19.6z M35.4,33.9c-7.3,0-13.2-5.9-13.2-13.2
		S28.1,7.4,35.4,7.4s13.2,5.9,13.2,13.2S42.7,33.9,35.4,33.9z M4.9,20.7c2-3.1,8.7-11.8,20.9-14.9c-4.9,3.2-8.2,8.7-8.2,14.9
		c0,6.3,3.3,11.8,8.2,14.9C13.6,32.4,7,23.8,4.9,20.7z M45,35.6c4.9-3.2,8.2-8.7,8.2-14.9S49.9,8.9,45,5.7
		c12.2,3.2,18.9,11.9,20.9,14.9C63.8,23.8,57.2,32.4,45,35.6z"/>
	<circle class="st0" cx="35.4" cy="20.7" r="3.9"/>
</g>
</svg>
