<?xml version="1.0" encoding="utf-8"?>
<!-- Generator: Adobe Illustrator 22.1.0, SVG Export Plug-In . SVG Version: 6.00 Build 0)  -->
<svg version="1.1" id="Layer_1" xmlns="http://www.w3.org/2000/svg" xmlns:xlink="http://www.w3.org/1999/xlink" x="0px" y="0px"
	 viewBox="0 0 50 86.6" style="enable-background:new 0 0 50 86.6;" xml:space="preserve">
<style type="text/css">
	.st0{fill:#FFFFFF;}
</style>
<title>115all</title>
<path class="st0" d="M47,32.8H32.5L42.8,4c0.6-1.6-0.3-3.3-1.8-3.8C40.6,0.1,40.3,0,40,0H16c-1.3,0-2.5,0.9-2.9,2.1L0.1,45
	c-0.5,1.6,0.4,3.3,2,3.7c0.3,0.1,0.6,0.1,0.9,0.1h13.5l-6.4,34.3c-0.3,1.6,0.8,3.2,2.5,3.5c1.1,0.2,2.3-0.3,2.9-1.2l33.9-47.8
	c1-1.3,0.6-3.2-0.7-4.2C48.2,33,47.6,32.8,47,32.8z M18.5,70.8l4.5-24.4c0.3-1.6-0.8-3.2-2.4-3.5c-0.2,0-0.4-0.1-0.6-0.1H7.1L18.2,6
	h17.5L25.5,34.8c-0.6,1.6,0.3,3.3,1.8,3.8c0.3,0.1,0.7,0.2,1,0.2h12.9L18.5,70.8z"/>
</svg>
