<?xml version="1.0" encoding="utf-8"?>
<!-- Generator: Adobe Illustrator 22.1.0, SVG Export Plug-In . SVG Version: 6.00 Build 0)  -->
<svg version="1.1" id="Layer_1" xmlns="http://www.w3.org/2000/svg" xmlns:xlink="http://www.w3.org/1999/xlink" x="0px" y="0px"
	 viewBox="0 0 63.2 59.4" style="enable-background:new 0 0 63.2 59.4;" xml:space="preserve">
<style type="text/css">
	.st0{fill:#FFFFFF;}
</style>
<g>
	<g>
		<path class="st0" d="M8,29.7H4C4,17.5,11.6,6.4,23,2c3.5-1.3,7-2,10.6-2c4.1,0,8.2,0.9,12,2.6c7.2,3.2,12.8,9.1,15.6,16.5
			c5.9,15.3-1.8,32.5-17.1,38.3c-7.4,2.9-15.5,2.6-22.7-0.6c-6.6-2.9-11.8-8-14.8-14.5l-2.9,6.6L0,47.3l5.8-12.5l12.5,5.5L16.7,44
			l-5.9-2.6c2.7,5.2,7,9.3,12.4,11.7c6.3,2.8,13.2,3,19.6,0.5c13.2-5.1,19.8-20,14.8-33.2C55.1,14,50.3,8.9,44.1,6.2
			c-6.3-2.8-13.2-3-19.6-0.5C14.6,9.5,8,19.2,8,29.7z"/>
	</g>
</g>
</svg>
